STARTFONT 2.1
COMMENT
COMMENT Converted from OpenType font "Vollda-Bold.otf" by "otf2bdf 3.0".
COMMENT
FONT -FreeType-Vollda-Bold-R-Normal--89-640-100-100-P-485-ISO10646-1
SIZE 64 100 100
FONTBOUNDINGBOX 284 123 -16 -26
STARTPROPERTIES 19
FOUNDRY "FreeType"
FAMILY_NAME "Vollda"
WEIGHT_NAME "Bold"
SLANT "R"
SETWIDTH_NAME "Normal"
ADD_STYLE_NAME ""
PIXEL_SIZE 89
POINT_SIZE 640
RESOLUTION_X 100
RESOLUTION_Y 100
SPACING "P"
AVERAGE_WIDTH 485
CHARSET_REGISTRY "ISO10646"
CHARSET_ENCODING "1"
FONT_ASCENT 84
FONT_DESCENT 39
COPYRIGHT "Copyright 2023 Vollda (https://github.com/alexburba/vollda)"
_OTF_FONTFILE "Vollda-Bold.otf"
_OTF_PSNAME "Vollda-Bold"
ENDPROPERTIES
CHARS 1220
STARTCHAR 0000
ENCODING 0
SWIDTH 0 0
DWIDTH 0 0
BBX 0 0 0 0
BITMAP
ENDCHAR
STARTCHAR 000D
ENCODING 13
SWIDTH 191 0
DWIDTH 17 0
BBX 0 0 0 0
BITMAP
ENDCHAR
STARTCHAR 0020
ENCODING 32
SWIDTH 191 0
DWIDTH 17 0
BBX 0 0 0 0
BITMAP
ENDCHAR
STARTCHAR 0021
ENCODING 33
SWIDTH 405 0
DWIDTH 36 0
BBX 15 64 11 0
BITMAP
007C
03FC
7FFC
FFFC
FFFC
FFFC
FFFC
7FFC
7FFC
7FF8
7FF8
7FF8
7FF8
7FF8
7FF8
3FF8
3FF8
3FF8
3FF8
3FF0
3FF0
3FF0
3FF0
3FF0
1FF0
1FF0
1FF0
1FF0
1FF0
1FF0
1FF0
1FE0
1FE0
1FE0
1FE0
0FE0
0FE0
0FE0
0FE0
0FE0
0FE0
0FC0
0000
0000
0000
0000
0000
0000
0000
0000
0FE0
3FF0
7FF8
7FFC
FFFC
FFFE
FFFE
FFFE
FFFC
7FFC
7FFC
3FF8
1FF0
0780
ENDCHAR
STARTCHAR 0022
ENCODING 34
SWIDTH 371 0
DWIDTH 33 0
BBX 23 25 5 39
BITMAP
010000
07801E
7FC1FE
FFC3FE
7FC3FE
7FC1FE
7F81FE
7F81FE
7F81FE
7F81FE
3F81FE
3F81FC
3F81FC
3F81FC
3F00FC
3F00FC
3F00FC
3F00FC
3F00FC
3F00FC
3F00FC
3F00FC
3F00FC
3F00F8
000018
ENDCHAR
STARTCHAR 0023
ENCODING 35
SWIDTH 607 0
DWIDTH 54 0
BBX 50 65 2 -1
BITMAP
00001000020000
00001E0003E000
00003F8003F000
00003F0003F000
00003F0003F000
00003F0007E000
00003F0007E000
00007F0007E000
00007E0007E000
00007E0007E000
00007E000FC000
00007E000FC000
0000FE000FC000
0000FC000FC000
0000FC000FC000
0000FC001F8000
0000FC001F8000
0000FC001F8000
0001F8001F8000
03FFFFFFFFFFC0
07FFFFFFFFFFC0
07FFFFFFFFFFC0
07FFFFFFFFFFC0
07FFFFFFFFFF80
07FFFFFFFFFF80
0003F0007E0000
0003F0007E0000
0003F0007E0000
0007E0007E0000
0007E0007E0000
0007E000FC0000
0007E000FC0000
0007E000FC0000
000FE000FC0000
000FC000FC0000
000FC001F80000
000FC001F80000
000FC001F80000
001FC001F80000
001F8001F80000
7FFFFFFFFFFE00
7FFFFFFFFFFC00
7FFFFFFFFFFC00
FFFFFFFFFFFC00
FFFFFFFFFFFC00
FFFFFFFFFFFC00
FFFF0007E00000
003F0007E00000
007F0007E00000
007E0007E00000
007E000FE00000
007E000FC00000
007E000FC00000
00FE000FC00000
00FC000FC00000
00FC001FC00000
00FC001F800000
00FC001F800000
01FC001F800000
01F8001F800000
01F8003F800000
01F8003F000000
01F8003F000000
00F8001F000000
00100007000000
ENDCHAR
STARTCHAR 0024
ENCODING 36
SWIDTH 551 0
DWIDTH 49 0
BBX 42 75 4 -8
BITMAP
000020000000
00003F000000
00003F000000
00003F000000
00003F000000
00003F000000
0000FFE00000
000FFFFF0000
003FFFFFE000
00FFFFFFF800
01FFFFFFFC00
03FFFFFFFC00
07FF3FFFFC00
0FFC3F3FFC00
1FF83F1FFC00
1FF83F0FFC00
1FF83F07FC00
3FF03F07FC00
3FF03F07FC00
3FF03F03FC00
3FF83F03FC00
7FF83F03FC00
7FF83F03FC00
7FFC3F01F000
7FFE3F000000
7FFF3F000000
3FFFBF000000
3FFFFF000000
3FFFFF000000
3FFFFF000000
1FFFFF800000
1FFFFFF00000
0FFFFFFC0000
0FFFFFFE0000
07FFFFFF8000
03FFFFFFE000
01FFFFFFF000
00FFFFFFF800
007FFFFFFC00
001FFFFFFE00
000FFFFFFF00
0003FFFFFF00
0000FFFFFF80
00003FFFFF80
00003FFFFFC0
00003FFFFFC0
00003EFFFFC0
00003E3FFFC0
3F803E0FFFC0
7F803E07FFC0
7F803E07FFC0
7FC03E03FFC0
7FC03E03FFC0
7FC03E03FFC0
7FC03E03FFC0
7FE03E03FFC0
7FE03E03FF80
7FE03E03FF80
7FF03E07FF00
7FF83E0FFF00
7FFC3E1FFE00
FFFFBE7FFC00
FFFFFFFFF800
3FFFFFFFF000
0FFFFFFFE000
01FFFFFF8000
003FFFFC0000
0000FF800000
00003F000000
00003F000000
00003F000000
00003F000000
00003F000000
00003F000000
000007000000
ENDCHAR
STARTCHAR 0025
ENCODING 37
SWIDTH 855 0
DWIDTH 76 0
BBX 61 62 8 -1
BITMAP
0000000000000E00
003FE00000001F80
01FFF80000003FC0
03FFFE0000007F80
0FFFFF0000007F00
1FFFFF800000FF00
3FF0FFC00001FE00
3FE07FC00003FC00
7FC03FE00007F800
7F803FE0000FF000
FF801FF0000FE000
FF801FF0001FE000
FF801FF0003FC000
FF001FF0007F8000
FF001FF000FF0000
FF001FF001FE0000
FF801FF001FC0000
FF801FF003FC0000
FF801FF007F80000
FF801FE00FF00000
7FC03FE01FE00000
7FC03FE03FC00000
3FE07FC03F800000
3FF8FF807F800000
1FFFFF80FF000000
0FFFFF01FE000000
07FFFC03FC000000
01FFF807F8000000
007FC007F0000000
0000000FF0000000
0000001FE0000000
0000003FC0000000
0000007F80000000
000000FF00010000
000000FE007FF800
000001FE01FFFE00
000003FC03FFFF00
000007F807FFFF80
00000FF00FFFFFC0
00001FE01FF07FE0
00001FC01FE03FE0
00003FC03FE01FF0
00007F803FC01FF0
0000FF007FC00FF8
0001FE007FC00FF8
0003FC007F800FF8
0003F8007F800FF8
0007F8007F800FF8
000FF0007F800FF8
001FE0007F800FF8
003FC0007FC00FF8
007F80007FC00FF0
00FF00007FC00FF0
00FF00003FE01FF0
01FE00003FE01FE0
03FC00001FF03FE0
07F800001FFFFFC0
0FF000000FFFFF80
0FE0000007FFFF00
0FE0000001FFFE00
03C0000000FFF800
0080000000078000
ENDCHAR
STARTCHAR 0026
ENCODING 38
SWIDTH 765 0
DWIDTH 68 0
BBX 59 65 5 -1
BITMAP
000001FE00000000
00003FFFF8000000
0000FFFFFF000000
0003FFFFFFC00000
0007FFFFFFC00000
000FFFFFFFC00000
001FFE03FFC00000
003FFC01FF800000
003FFC00FF800000
007FF800FF800000
007FF8007F800000
007FF8007F800000
007FF8007F800000
007FF8003F800000
007FF8003F800000
007FF8003F800000
007FF80000000000
007FFC0000000000
007FFC0000000000
007FFE0000000000
003FFE0000000000
003FFF0000000000
003FFF0000000000
001FFF8001FFFFC0
001FFFC001FFFFC0
000FFFC001FFFFC0
000FFFE001FFFF80
000FFFF001FFFF80
003FFFF8003FFE00
007FFFF8000FFC00
01FFFFFC0007F800
03FFFFFE0007F000
07FFFFFF0007F000
0FFE7FFF0007E000
1FFC3FFF8007E000
1FFC1FFFC007C000
3FF81FFFE007C000
3FF80FFFF00FC000
7FF807FFF80F8000
7FF003FFF81F8000
FFF001FFFC1F8000
FFF000FFFE3F0000
FFF000FFFF3F0000
FFF0007FFFFE0000
FFF0003FFFFE0000
FFF0001FFFFC0000
FFF0000FFFFC0000
FFF00007FFF80000
FFF80007FFF80000
FFF80003FFFC0000
FFF80001FFFE0000
FFFC0000FFFF0000
7FFC00007FFF8000
7FFE00007FFFC000
7FFF0000FFFFE000
3FFF8001FFFFF800
3FFFC007FFFFFF00
1FFFF81FFFFFFFE0
0FFFFFFFFBFFFFE0
07FFFFFFF1FFFFE0
03FFFFFFC1FFFFE0
01FFFFFF80FFFFE0
007FFFFE007FFFC0
001FFFF8003FF000
0001FF8000100000
ENDCHAR
STARTCHAR 0027
ENCODING 39
SWIDTH 225 0
DWIDTH 20 0
BBX 10 25 5 39
BITMAP
0100
0780
7FC0
FFC0
7FC0
7FC0
7F80
7F80
7F80
7F80
7F80
3F80
3F80
3F80
3F80
3F00
3F00
3F00
3F00
3F00
3F00
3F00
3F00
1F00
0300
ENDCHAR
STARTCHAR 0028
ENCODING 40
SWIDTH 315 0
DWIDTH 28 0
BBX 22 90 3 -24
BITMAP
000060
0000F8
0001F8
0003F0
0003F0
0007E0
000FE0
000FC0
001FC0
003F80
003F80
007F00
007F00
00FE00
00FE00
01FE00
03FC00
03FC00
03FC00
07F800
07F800
0FF800
0FF800
0FF000
1FF000
1FF000
1FF000
3FF000
3FF000
3FE000
3FE000
7FE000
7FE000
7FE000
7FE000
7FE000
7FE000
FFE000
FFE000
FFE000
FFE000
FFE000
FFE000
FFE000
FFE000
FFE000
FFE000
FFE000
FFE000
FFE000
FFE000
FFE000
7FE000
7FE000
7FE000
7FE000
7FE000
7FE000
3FF000
3FF000
3FF000
3FF000
1FF000
1FF000
1FF800
0FF800
0FF800
0FF800
07F800
07FC00
07FC00
03FC00
03FE00
01FE00
01FE00
00FF00
00FF00
007F00
007F80
003F80
001FC0
001FC0
000FC0
000FE0
0007E0
0003F0
0001F0
0001F8
0000FC
00007C
ENDCHAR
STARTCHAR 0029
ENCODING 41
SWIDTH 315 0
DWIDTH 28 0
BBX 22 90 4 -24
BITMAP
380000
FC0000
7C0000
7E0000
3F0000
3F8000
1F8000
0FC000
0FE000
07E000
07F000
07F000
03F800
03FC00
01FC00
01FE00
01FE00
00FF00
00FF00
00FF80
00FF80
007FC0
007FC0
007FC0
007FE0
003FE0
003FE0
003FF0
003FF0
003FF0
003FF0
003FF8
003FF8
001FF8
001FF8
001FF8
001FF8
001FF8
001FF8
001FF8
001FFC
001FFC
001FFC
001FFC
001FFC
001FFC
001FFC
001FF8
001FF8
001FF8
001FF8
001FF8
001FF8
001FF8
001FF8
001FF8
003FF0
003FF0
003FF0
003FF0
003FE0
003FE0
003FE0
003FE0
007FC0
007FC0
007FC0
007F80
007F80
00FF80
00FF00
00FF00
01FE00
01FE00
01FC00
03FC00
03F800
03F800
07F000
07F000
0FE000
0FE000
1FC000
1F8000
3F8000
3F0000
7E0000
7C0000
FC0000
F80000
ENDCHAR
STARTCHAR 002A
ENCODING 42
SWIDTH 472 0
DWIDTH 42 0
BBX 32 32 5 36
BITMAP
0001F000
0001FE00
0001FE00
0001FE00
0801FC00
1C01FC00
1E01F800
3F01F800
3FC1F000
7FE1F000
7FF1E00E
FFF9E07E
3FFFE3FF
03FFFFFF
007FFFFF
001FFFFF
000FFFFF
003FFFFF
00FFE00F
01FFF000
07FDF800
1FF8F800
7FF0FC00
3FE0FE00
3FE0FF00
1FC0FF80
0F807F80
07807FC0
03007FC0
00007F00
00007E00
00007000
ENDCHAR
STARTCHAR 002B
ENCODING 43
SWIDTH 540 0
DWIDTH 48 0
BBX 41 45 4 0
BITMAP
00000F000000
00007F000000
00007F000000
00007F000000
00007F000000
00007F000000
00007F000000
00007F000000
00007F000000
00007F000000
00007F000000
00007F000000
00007F000000
00007F000000
00007F000000
00007F000000
00007F000000
00007F000000
00007F000000
7FFFFFFFFF80
FFFFFFFFFF80
FFFFFFFFFF80
FFFFFFFFFF80
FFFFFFFFFF80
FFFFFFFFFF00
00007F000000
00007F000000
00007F000000
00007F000000
00007F000000
00007F000000
00007F000000
00007F000000
00007F000000
00007F000000
00007F000000
00007F000000
00007F000000
00007F000000
00007F000000
00007F000000
00007F000000
00007F000000
00007F000000
000078000000
ENDCHAR
STARTCHAR 002C
ENCODING 44
SWIDTH 281 0
DWIDTH 25 0
BBX 14 29 6 -17
BITMAP
0020
00F0
07F8
7FFC
7FFC
7FFC
FFFC
FFFC
FFFC
FFFC
FFFC
3FFC
0FFC
07FC
07F8
07F8
07F8
07F0
07F0
0FE0
0FE0
1FC0
1FC0
3F80
7F00
FE00
FE00
7C00
0800
ENDCHAR
STARTCHAR 002D
ENCODING 45
SWIDTH 416 0
DWIDTH 37 0
BBX 27 8 5 19
BITMAP
3FFFFFE0
7FFFFFE0
7FFFFFE0
7FFFFFE0
7FFFFFE0
FFFFFFC0
FFFFFFC0
FFFFFFC0
ENDCHAR
STARTCHAR 002E
ENCODING 46
SWIDTH 281 0
DWIDTH 25 0
BBX 15 15 5 -1
BITMAP
0FE0
1FF8
3FFC
7FFC
FFFE
FFFE
FFFE
FFFE
FFFE
FFFE
FFFE
7FFC
3FF8
1FF0
07C0
ENDCHAR
STARTCHAR 002F
ENCODING 47
SWIDTH 382 0
DWIDTH 34 0
BBX 29 65 3 -1
BITMAP
00000100
000001E0
000003F8
000003F0
000003F0
000007F0
000007E0
00000FE0
00000FC0
00000FC0
00001FC0
00001F80
00001F80
00003F80
00003F00
00007F00
00007E00
00007E00
0000FE00
0000FC00
0000FC00
0001FC00
0001F800
0003F800
0003F800
0003F000
0007F000
0007E000
0007E000
000FE000
000FC000
001FC000
001FC000
001F8000
003F8000
003F0000
003F0000
007F0000
007E0000
00FE0000
00FE0000
00FC0000
01FC0000
01FC0000
01F80000
03F80000
03F00000
07F00000
07F00000
07E00000
0FE00000
0FE00000
0FC00000
1FC00000
1F800000
1F800000
3F800000
3F000000
7F000000
7F000000
7E000000
FE000000
FC000000
7C000000
0C000000
ENDCHAR
STARTCHAR 0030
ENCODING 48
SWIDTH 607 0
DWIDTH 54 0
BBX 49 46 3 -1
BITMAP
00001FFC000000
0001FFFFC00000
0007FFFFF80000
001FFFFFFC0000
007FFFFFFF0000
00FFFFFFFF8000
01FFE03FFFC000
03FFC00FFFE000
07FF0007FFF000
0FFF0003FFF800
1FFE0001FFFC00
1FFC0000FFFC00
3FFC00007FFE00
3FFC00007FFE00
7FF800003FFE00
7FF800003FFF00
7FF800003FFF00
7FF800001FFF00
FFF800001FFF00
FFF800001FFF00
FFF800001FFF80
FFF800000FFF80
FFF800000FFF80
FFF800000FFF80
FFF800000FFF80
FFF800000FFF00
FFF800000FFF00
7FFC00000FFF00
7FFC00000FFF00
7FFC00001FFF00
7FFE00001FFE00
3FFE00001FFE00
3FFF00001FFE00
1FFF00003FFC00
1FFF80003FFC00
0FFFC0007FF800
0FFFE0007FF000
07FFF000FFF000
03FFFC03FFE000
01FFFFDFFFC000
00FFFFFFFF8000
003FFFFFFE0000
001FFFFFFC0000
0007FFFFF00000
0000FFFF800000
000007F0000000
ENDCHAR
STARTCHAR 0031
ENCODING 49
SWIDTH 393 0
DWIDTH 35 0
BBX 26 45 5 0
BITMAP
FFC0FFC0
FFFFFFC0
FFFFFFC0
FFFFFFC0
FFFFFFC0
FFFFFF80
0FFFFC00
07FFF000
03FFF000
03FFF000
03FFE000
03FFE000
03FFE000
01FFE000
01FFE000
01FFE000
01FFE000
01FFE000
01FFE000
01FFE000
01FFE000
01FFE000
01FFE000
01FFE000
01FFE000
01FFE000
01FFE000
01FFE000
01FFE000
01FFE000
01FFE000
01FFE000
01FFE000
03FFE000
03FFE000
03FFE000
03FFF000
07FFF000
07FFF800
3FFFFE00
FFFFFF80
FFFFFFC0
FFFFFFC0
FFFFFFC0
FFFFFFC0
ENDCHAR
STARTCHAR 0032
ENCODING 50
SWIDTH 517 0
DWIDTH 46 0
BBX 38 45 4 0
BITMAP
0007FFC000
00FFFFF800
03FFFFFE00
1FFFFFFF80
3FFFFFFFC0
3FFFFFFFC0
3FF80FFFE0
3FF007FFE0
3FE003FFF0
1FE003FFF0
1FC001FFF0
1FC001FFF0
1FC001FFF0
3FC001FFF0
3FC001FFE0
3F8001FFE0
0F8003FFE0
000003FFC0
000007FF80
000007FF00
00000FFE00
00001FFC00
00003FF800
00007FF000
0000FFE000
0001FFC000
0003FF0000
0007FE0000
000FF80000
003FF001F8
007FE001F8
00FFC001F8
01FF8003F8
03FE000FF8
07FFFFFFF8
0FFFFFFFF8
1FFFFFFFFC
3FFFFFFFFC
7FFFFFFFFC
FFFFFFFFFC
FFFFFFFFFC
FFFFFFFFFC
7FFFFFFFFC
7FFFFFFFFC
7FFFFFFFF8
ENDCHAR
STARTCHAR 0033
ENCODING 51
SWIDTH 506 0
DWIDTH 45 0
BBX 39 60 3 -15
BITMAP
1FFF01FFF0
1FFFFFFFF0
1FFFFFFFF8
1FFFFFFFF8
1FFFFFFFF8
1FFFFFFFF8
1FFFFFFFF8
1FFFFFFFF0
1FFFFFFFE0
1FFFFFFFC0
3FFFFFFF80
3FFE00FF80
3FE000FF00
3F8001FE00
3F8003FC00
3F0007F800
3F0007F800
0F000FF000
00001FE000
00003FC000
00003FC000
00007F8000
0000FF0000
0001FE0000
0003FE0000
0003FFF000
0007FFFE00
000FFFFF00
001FFFFFC0
001FFFFFE0
001FFFFFF0
000FFFFFF0
000FFFFFF8
00000FFFFC
000003FFFC
000001FFFC
000000FFFC
0000007FFE
0000007FFE
0000007FFE
0000007FFE
0000003FFE
0000003FFE
0000003FFE
0000007FFE
0000007FFC
0000007FFC
0000007FFC
000000FFF8
000001FFF8
000003FFF0
200007FFE0
30000FFFE0
7E007FFFC0
7FFFFFFF80
FFFFFFFE00
7FFFFFFC00
3FFFFFF000
0FFFFFC000
00FFFC0000
ENDCHAR
STARTCHAR 0034
ENCODING 52
SWIDTH 596 0
DWIDTH 53 0
BBX 48 60 3 -15
BITMAP
00000007F800
0000000FFC00
0000000FFC00
0000001FFC00
0000003FFC00
0000007FFC00
000000FFFC00
000000FFFC00
000001FFFC00
000003FFFC00
000007FFFC00
00000FFFFC00
00000FFFFC00
00001FFFFC00
00003FFFFC00
00007F7FFC00
0000FE7FFC00
0000FE7FFC00
0001FC7FFC00
0003F87FFC00
0007F07FFC00
000FF07FFC00
000FE07FFC00
001FC07FFC00
003FC07FFC00
007F807FFC00
00FF007FFC00
00FE007FFC00
01FE007FFC00
03FC007FFC00
07F8007FFC00
07F8007FFC00
0FF0007FFC00
1FE0007FFC00
3FFFFFFFFFFC
7FFFFFFFFFFF
7FFFFFFFFFFF
FFFFFFFFFFFE
FFFFFFFFFFFE
FFFFFFFFFFFE
FFFFFFFFFFFE
FFFFFFFFFFFC
FFFFFFFFFFFC
7FFFFFFFFFFC
7FFFFFFFFFFC
3800007FFC00
0000007FFC00
0000007FFC00
0000007FFC00
0000007FFC00
0000007FFC00
0000007FFC00
0000007FFC00
0000007FFC00
0000007FFC00
0000007FFC00
0000007FFC00
0000007FFC00
0000003F8000
000000380000
ENDCHAR
STARTCHAR 0035
ENCODING 53
SWIDTH 472 0
DWIDTH 42 0
BBX 35 65 4 -15
BITMAP
00000001C0
0000000FC0
0000000F80
0000001F80
0000003F80
03FFF0FF80
03FFFFFF80
03FFFFFF80
03FFFFFF80
07FFFFFF80
07FFFFFF80
07FFFFFF80
07FFFFFF80
07FFFFFF80
0FFFFFFF80
0FFFFFFF00
0FFFFFFC00
0F80000000
1F80000000
1F80000000
1F80000000
1F80000000
1F00000000
3F00000000
3FF0000000
3FFF000000
3FFFE00000
7FFFFC0000
7FFFFF0000
7FFFFFC000
7FFFFFF000
7FFFFFF800
3FFFFFFC00
3FFFFFFE00
07FFFFFF00
007FFFFF80
000FFFFF80
0001FFFFC0
0000FFFFC0
00003FFFC0
00001FFFE0
00000FFFE0
00000FFFE0
000007FFE0
000007FFE0
000003FFE0
000003FFE0
000003FFE0
000003FFE0
000003FFE0
000003FFC0
000007FFC0
000007FFC0
00000FFF80
00000FFF80
00001FFF00
00003FFE00
0000FFFC00
6003FFF800
7FFFFFF000
FFFFFFE000
FFFFFF8000
FFFFFF0000
7FFFF80000
0FFFC00000
ENDCHAR
STARTCHAR 0036
ENCODING 54
SWIDTH 540 0
DWIDTH 48 0
BBX 43 58 3 -1
BITMAP
000000007000
0000001FF000
000001FFF000
000007FFF000
00001FFFF000
00007FFFC000
0001FFFE0000
0003FFF00000
000FFFC00000
001FFF000000
003FFE000000
007FFC000000
00FFF8000000
01FFF0000000
03FFE0000000
03FFC0000000
07FF80000000
0FFF80000000
0FFF00000000
1FFF00000000
1FFE00000000
1FFE00000000
3FFE0FFE0000
3FFC7FFFC000
3FFDFFFFF000
7FFFFFFFF800
7FFFFFFFFC00
7FFFFFFFFE00
7FFF83FFFF00
FFFC007FFF80
FFF8003FFF80
FFF8001FFFC0
FFF8000FFFC0
FFF8000FFFC0
FFF80007FFC0
FFF80007FFE0
FFF80003FFE0
FFF80003FFE0
FFF80003FFE0
FFF80003FFE0
FFF80003FFE0
7FFC0003FFC0
7FFC0003FFC0
7FFC0003FFC0
7FFC0003FFC0
3FFE0007FF80
3FFE0007FF80
3FFF0007FF80
1FFF000FFF00
1FFF800FFE00
0FFFC03FFE00
07FFF07FFC00
03FFFFFFF800
01FFFFFFF000
00FFFFFFC000
003FFFFF0000
000FFFFC0000
00007FC00000
ENDCHAR
STARTCHAR 0037
ENCODING 55
SWIDTH 472 0
DWIDTH 42 0
BBX 37 61 3 -16
BITMAP
3FF000FFE0
3FFFFFFFF0
7FFFFFFFF0
7FFFFFFFF0
7FFFFFFFF8
7FFFFFFFF8
7FFFFFFFF0
7FFFFFFFF0
7FFFFFFFE0
7FFFFFFFC0
7FFFFFFFC0
7FFFFFFF80
7FE0003F00
7F80007F00
FF0000FE00
FF0000FE00
FE0001FC00
7E0001F800
000003F800
000007F000
000007F000
00000FE000
00000FE000
00001FC000
00003FC000
00003F8000
00007F8000
00007F0000
0000FF0000
0001FF0000
0001FE0000
0003FE0000
0003FE0000
0007FC0000
0007FC0000
000FFC0000
000FFC0000
001FF80000
001FF80000
001FF80000
003FF80000
003FF80000
007FF80000
007FF80000
007FF80000
00FFF80000
00FFF80000
00FFF00000
00FFF00000
00FFF00000
01FFF00000
01FFF00000
01FFF00000
01FFF00000
01FFF00000
01FFE00000
01FF800000
01FE000000
00F8000000
00E0000000
0040000000
ENDCHAR
STARTCHAR 0038
ENCODING 56
SWIDTH 540 0
DWIDTH 48 0
BBX 40 58 4 -1
BITMAP
00003E0000
000FFFF800
003FFFFF00
00FFFFFF80
03FFFFFFE0
07FFE3FFF0
07FF00FFF8
0FFE007FF8
1FFE003FFC
1FFE003FFC
1FFC003FFC
3FFC003FFC
3FFC001FFC
3FFE001FFC
3FFE001FFC
3FFE001FFC
3FFF003FFC
3FFF803FF8
1FFFC03FF8
1FFFE07FF0
0FFFF8FFE0
0FFFFEFFC0
07FFFFFF80
03FFFFFF00
01FFFFFC00
00FFFFF800
007FFFFE00
001FFFFF00
003FFFFF80
00FFFFFFE0
01FFFFFFF0
03FF7FFFF0
07FE1FFFF8
0FFC0FFFFC
1FFC03FFFC
3FF801FFFE
3FF800FFFE
7FF8007FFF
7FF8003FFF
7FF0003FFF
FFF0001FFF
FFF0001FFF
FFF0001FFF
FFF0000FFF
FFF8000FFF
FFF8000FFF
FFF8000FFF
7FF8000FFE
7FFC001FFE
7FFE001FFE
3FFF003FFC
1FFF807FF8
0FFFFFFFF0
07FFFFFFE0
03FFFFFFC0
00FFFFFF00
001FFFFC00
0001FF8000
ENDCHAR
STARTCHAR 0039
ENCODING 57
SWIDTH 551 0
DWIDTH 49 0
BBX 43 60 3 -15
BITMAP
0000FFF00000
0007FFFE0000
003FFFFFC000
00FFFFFFE000
01FFFFFFF800
03FFFFFFFC00
07FFC0FFFE00
0FFF003FFE00
1FFE001FFF00
1FFE001FFF80
3FFC000FFF80
3FFC0007FF80
7FF80007FFC0
7FF80007FFC0
7FF80007FFC0
FFF80003FFE0
FFF80003FFE0
FFF80003FFE0
FFF80003FFE0
FFF80003FFE0
FFF80003FFE0
FFF80003FFE0
FFFC0003FFE0
FFFC0003FFE0
7FFC0003FFE0
7FFE0003FFE0
7FFF0003FFE0
3FFF8003FFE0
3FFFC003FFE0
1FFFF00FFFE0
0FFFFFFFFFC0
07FFFFFFFFC0
03FFFFFFFFC0
01FFFFFFFFC0
00FFFFF7FF80
001FFFC7FF80
0003FC0FFF80
0000000FFF00
0000001FFF00
0000001FFE00
0000003FFC00
0000003FFC00
0000007FF800
000000FFF000
000001FFF000
000003FFE000
000007FFC000
00000FFF8000
00001FFF0000
00007FFE0000
0000FFFC0000
0003FFF00000
000FFFE00000
007FFF800000
03FFFF000000
0FFFFC000000
0FFFF0000000
07FF80000000
07FC00000000
07C000000000
ENDCHAR
STARTCHAR 003A
ENCODING 58
SWIDTH 281 0
DWIDTH 25 0
BBX 15 39 5 1
BITMAP
0180
0FF0
3FF8
3FFC
7FFC
7FFE
FFFE
FFFE
FFFE
7FFE
7FFC
7FFC
3FF8
1FE0
0000
0000
0000
0000
0000
0000
0000
0000
0000
0000
0000
03C0
0FF0
3FF8
7FFC
7FFC
7FFE
FFFE
FFFE
FFFE
7FFC
7FFC
7FF8
3FF8
0FE0
ENDCHAR
STARTCHAR 003B
ENCODING 59
SWIDTH 292 0
DWIDTH 26 0
BBX 15 56 6 -17
BITMAP
0180
0FF0
3FF8
7FFC
7FFC
7FFE
FFFE
FFFE
FFFE
7FFE
7FFC
7FFC
3FF8
0FE0
0000
0000
0000
0000
0000
0000
0000
0000
0000
0000
0000
0000
0000
0000
0000
0078
03FC
7FFC
7FFC
7FFE
7FFE
7FFE
FFFE
FFFE
FFFE
3FFC
0FFC
07FC
03FC
03F8
03F8
07F8
07F0
07F0
0FE0
0FE0
1FC0
3F80
3F80
7F00
FE00
7C00
ENDCHAR
STARTCHAR 003C
ENCODING 60
SWIDTH 540 0
DWIDTH 48 0
BBX 38 44 5 0
BITMAP
0000000080
00000003E0
00000007F8
0000001FFC
0000007FFC
000001FFF0
000003FFC0
00000FFF00
00003FFE00
00007FF800
0001FFE000
0007FF8000
000FFF0000
003FFC0000
00FFF00000
01FFE00000
07FF800000
1FFE000000
3FF8000000
7FF0000000
7FC0000000
FF00000000
FF80000000
FFE0000000
FFF0000000
7FFC000000
1FFF000000
07FFC00000
01FFF00000
007FFC0000
001FFF0000
000FFFC000
0003FFF000
0000FFFC00
00003FFE00
00000FFF80
000007FFE0
000001FFF0
0000007FF8
0000001FF8
0000000FF0
00000003F0
00000000F0
0000000070
ENDCHAR
STARTCHAR 003D
ENCODING 61
SWIDTH 540 0
DWIDTH 48 0
BBX 39 22 5 12
BITMAP
7FFFFFFFFE
FFFFFFFFFE
FFFFFFFFFE
FFFFFFFFFE
FFFFFFFFFE
FFFFFFFFFE
FF800000BC
0000000000
0000000000
0000000000
0000000000
0000000000
0000000000
0000000000
0000000000
0000000000
FFFFFFFFFE
FFFFFFFFFE
FFFFFFFFFE
FFFFFFFFFE
FFFFFFFFFE
FFFFFFFFFE
ENDCHAR
STARTCHAR 003E
ENCODING 62
SWIDTH 540 0
DWIDTH 48 0
BBX 36 44 7 1
BITMAP
1C00000000
3F00000000
7F80000000
FFE0000000
FFF0000000
3FFC000000
1FFE000000
07FF800000
01FFE00000
00FFF00000
003FFC0000
000FFE0000
0007FF8000
0001FFE000
00007FF000
00003FFC00
00000FFE00
000003FF80
000001FFC0
0000007FF0
0000001FF0
0000000FF0
0000000FF0
0000001FF0
0000007FF0
000001FFE0
000007FFC0
00001FFF00
00003FFC00
0000FFF000
0003FFC000
000FFF0000
003FFE0000
007FF80000
01FFE00000
07FF800000
1FFF000000
7FFC000000
7FF0000000
7FE0000000
7F80000000
7F00000000
3C00000000
3000000000
ENDCHAR
STARTCHAR 003F
ENCODING 63
SWIDTH 528 0
DWIDTH 47 0
BBX 32 65 10 -1
BITMAP
0003E000
01FFFF00
0FFFFFC0
3FFFFFF0
FFFFFFF8
FFFFFFFC
FFE0FFFE
FFC07FFE
FF803FFE
FF801FFF
FF801FFF
FF001FFF
FF001FFF
FF001FFF
FF001FFE
FE001FFE
7E003FFE
00003FFC
00007FFC
00007FF8
0000FFF8
0001FFF0
0003FFE0
0007FFC0
000FFF80
001FFF00
001FFE00
003FFC00
003FF800
007FF800
007FF000
007FE000
007FE000
007FE000
007FC000
007FC000
007FC000
007FC000
007FC000
003FC000
003FC000
003FC000
001FE000
000FE000
000FE000
00000000
00000000
00000000
00000000
00000000
0007E000
001FF800
003FFC00
007FFE00
00FFFE00
00FFFE00
00FFFF00
00FFFE00
00FFFE00
00FFFE00
007FFE00
007FFC00
003FF800
001FF000
0007C000
ENDCHAR
STARTCHAR 0040
ENCODING 64
SWIDTH 990 0
DWIDTH 88 0
BBX 71 77 9 -18
BITMAP
000000001FE0000000
0000000FFFFF800000
0000007FFFFFF80000
000003FFFFFFFE0000
00000FFFFFFFFF8000
00003FFFFFFFFFE000
0000FFF80001FFF800
0001FFC000003FFC00
0007FE0000000FFE00
000FF800000003FF00
001FF000000000FF80
003FC0000000007FC0
007F80000000003FC0
00FF00000000001FE0
00FE00000000000FF0
01FC00000000000FF0
03F8000000000007F8
03F8000000000003F8
07F0000FFFFFF803F8
0FE0003FFFFFF801FC
0FE0007FFFFFFC01FC
0FC000FFFFFFFC01FC
1FC003FFFFFFFC00FC
1FC003FF81FFFC00FC
3F8007FE007FFC00FE
3F800FFE003FFC00FE
3F800FFC003FFC00FE
7F001FFC003FFC007E
7F001FF8003FFC007E
7F003FF8003FFC007E
7F003FF8003FFC007E
7F007FF8003FFC007E
FE007FF8003FFC007E
FE007FF8003FFC007E
FE007FF8003FFC00FC
FE00FFF8007FFC00FC
FE00FFF8007FFC00FC
FE00FFF8007FFC00FC
FE00FFF8007FFC00FC
FE00FFF8007FFC00F8
FE00FFF800FFFC00F8
FE00FFF800FFFC01F8
FE00FFF800FFFC01F8
FE00FFF801FFFC01F0
FF00FFF801FFFC03F0
FF00FFF801FFFC03E0
7F00FFF803FFFC03E0
7F00FFFC03FFFC07C0
7F007FFC07FFFC0FC0
7F807FFC0FBFFE0F80
7F807FFE1FBFFE1F80
3F807FFFFF3FFFFF00
3FC03FFFFF3FFFFE00
3FC03FFFFE3FFFFC00
1FC01FFFFC3FFFF800
1FE01FFFF83FFFF000
1FE00FFFF01FFFE000
0FF007FFE00FFF8000
0FF001FFC007FE0000
07F8007E0001F00000
07FC00000000000000
03FE00000000000000
03FF00000000000180
01FF800000000003C0
00FFC00000000007E0
00FFE0000000001FE0
007FF0000000003FC0
003FFC00000000FF80
001FFF00000003FF00
0007FFC000001FFE00
0003FFFC0000FFF800
0001FFFFFFFFFFF000
00007FFFFFFFFFC000
00001FFFFFFFFF0000
000003FFFFFFF80000
0000007FFFFFC00000
00000003FFF8000000
ENDCHAR
STARTCHAR 0041
ENCODING 65
SWIDTH 708 0
DWIDTH 63 0
BBX 60 61 2 0
BITMAP
0000000200000000
0000003F00000000
0000007F00000000
0000007F80000000
0000007F80000000
000000FFC0000000
000000FFC0000000
000001FFC0000000
000001FFE0000000
000003FFE0000000
000003FFF0000000
000003FFF0000000
000007FFF8000000
000007FFF8000000
00000FFFFC000000
00000FFFFC000000
00000FFFFC000000
00001F7FFE000000
00001F7FFE000000
00003F3FFF000000
00003E3FFF000000
00003E3FFF800000
00007E1FFF800000
00007C1FFFC00000
0000FC0FFFC00000
0000FC0FFFC00000
0000F80FFFE00000
0001F807FFE00000
0001F007FFF00000
0003F003FFF00000
0003F003FFF80000
0003E001FFF80000
0007E001FFFC0000
0007E000FFFC0000
000FC000FFFC0000
000FC000FFFE0000
000F80007FFE0000
001F80007FFF0000
001F80003FFF0000
003FFFFFFFFF8000
003FFFFFFFFF8000
007FFFFFFFFFC000
007FFFFFFFFFC000
007FFFFFFFFFC000
00FF00000FFFE000
00FC000007FFE000
01F8000007FFF000
01F8000003FFF000
01F8000003FFF800
03F0000003FFF800
03F0000001FFFC00
07F0000001FFFC00
07F0000001FFFE00
0FF0000001FFFE00
1FF8000001FFFF00
3FFE000007FFFFC0
FFFF00001FFFFFE0
FFFF80001FFFFFE0
FFFF80001FFFFFF0
FFFF80001FFFFFF0
FFFF80001FFFFFF0
ENDCHAR
STARTCHAR 0042
ENCODING 66
SWIDTH 663 0
DWIDTH 59 0
BBX 52 60 4 0
BITMAP
FFFFFFFFF00000
FFFFFFFFFF0000
FFFFFFFFFFC000
FFFFFFFFFFF000
FFFFFFFFFFF800
1FFFF83FFFFC00
07FFF007FFFC00
07FFF001FFFE00
03FFF000FFFE00
03FFF0007FFF00
03FFF0007FFF00
03FFF0003FFF00
03FFF0003FFF00
03FFF0003FFF00
03FFF0003FFF00
03FFF0003FFF00
03FFF0003FFF00
03FFF0003FFE00
03FFF0003FFE00
03FFF0003FFE00
03FFF0003FFC00
03FFF0007FF800
03FFF000FFF000
03FFF001FFE000
03FFF003FFC000
03FFF00FFF0000
03FFFFFFFC0000
03FFFFFFF80000
03FFFFFFFFC000
03FFFFFFFFF000
03FFFFFFFFFC00
03FFFFFFFFFE00
03FFF007FFFF00
03FFF000FFFF80
03FFF0007FFFC0
03FFF0003FFFC0
03FFF0001FFFE0
03FFF0000FFFE0
03FFF0000FFFE0
03FFF0000FFFF0
03FFF00007FFF0
03FFF00007FFF0
03FFF00007FFF0
03FFF00007FFF0
03FFF00007FFF0
03FFF00007FFF0
03FFF00007FFE0
03FFF00007FFE0
03FFF0000FFFE0
03FFF0000FFFC0
03FFF0001FFFC0
03FFF0001FFF80
07FFF8003FFF80
07FFFC00FFFF00
3FFFFF07FFFE00
FFFFFFFFFFFC00
FFFFFFFFFFF000
FFFFFFFFFFC000
FFFFFFFFFE0000
FFFFFFFFC00000
ENDCHAR
STARTCHAR 0043
ENCODING 67
SWIDTH 641 0
DWIDTH 57 0
BBX 51 62 3 -1
BITMAP
0000007FF00000
000007FFFF8000
00003FFFFFF000
0001FFFFFFFE00
0003FFFFFFFF80
000FFFFCFFFFC0
001FFF800FFFC0
003FFE0003FF80
007FF80001FF80
00FFF00000FF80
01FFE00000FF80
03FFC000007F80
07FFC000007F80
07FF8000007F80
0FFF8000003F80
1FFF0000003F80
1FFF0000003F80
1FFF0000003F80
3FFE0000003F80
3FFE0000002800
7FFE0000000000
7FFE0000000000
7FFC0000000000
7FFC0000000000
7FFC0000000000
FFFC0000000000
FFFC0000000000
FFFC0000000000
FFFC0000000000
FFFC0000000000
FFFC0000000000
FFFC0000000000
FFFC0000000000
FFFC0000000000
FFFC0000000000
FFFE0000000000
7FFE0000000000
7FFE0000000000
7FFE0000000000
7FFF0000000000
7FFF0000000000
3FFF0000000000
3FFF8000000000
3FFF8000000000
1FFF8000000000
1FFFC000000000
0FFFE000000000
0FFFE000000000
07FFF000000000
07FFF800000000
03FFFC00000000
01FFFE000001C0
00FFFF800007E0
007FFFE0003FE0
003FFFFC03FFE0
001FFFFFFFFFC0
000FFFFFFFFF00
0003FFFFFFFC00
0001FFFFFFF800
00003FFFFFC000
00000FFFFF0000
0000007FC00000
ENDCHAR
STARTCHAR 0044
ENCODING 68
SWIDTH 731 0
DWIDTH 65 0
BBX 58 60 4 0
BITMAP
FFFFFFFFF0000000
FFFFFFFFFF000000
FFFFFFFFFFE00000
FFFFFFFFFFFC0000
FFFFFFFFFFFE0000
1FFFF003FFFF8000
07FFF0007FFFC000
07FFF0001FFFE000
03FFF0000FFFF000
03FFF00003FFF800
03FFF00001FFFC00
03FFF00001FFFC00
03FFF00000FFFE00
03FFF000007FFE00
03FFF000007FFF00
03FFF000003FFF00
03FFF000003FFF80
03FFF000001FFF80
03FFF000001FFF80
03FFF000001FFF80
03FFF000001FFFC0
03FFF000000FFFC0
03FFF000000FFFC0
03FFF000000FFFC0
03FFF000000FFFC0
03FFF000000FFFC0
03FFF000000FFFC0
03FFF000000FFFC0
03FFF000000FFFC0
03FFF000000FFFC0
03FFF000000FFFC0
03FFF000000FFFC0
03FFF000000FFFC0
03FFF000000FFFC0
03FFF000000FFFC0
03FFF000000FFFC0
03FFF000000FFF80
03FFF000000FFF80
03FFF000000FFF80
03FFF000000FFF80
03FFF000001FFF80
03FFF000001FFF00
03FFF000001FFF00
03FFF000001FFE00
03FFF000003FFE00
03FFF000003FFC00
03FFF000007FFC00
03FFF000007FF800
03FFF00000FFF800
03FFF00001FFF000
03FFF00003FFE000
03FFF80007FFC000
07FFF8000FFF8000
07FFFC003FFF0000
3FFFFFEFFFFC0000
FFFFFFFFFFF00000
FFFFFFFFFFC00000
FFFFFFFFFF000000
FFFFFFFFF8000000
FFFFFFFF00000000
ENDCHAR
STARTCHAR 0045
ENCODING 69
SWIDTH 618 0
DWIDTH 55 0
BBX 49 60 4 0
BITMAP
FFFFFFFFFFF000
FFFFFFFFFFF000
FFFFFFFFFFF000
FFFFFFFFFFF000
FFFFFFFFFFF000
1FFFF001FFF000
07FFF0003FF800
07FFF0001FF800
03FFF0000FF800
03FFF00007F800
03FFF00003F800
03FFF00003F800
03FFF00003F800
03FFF00001FC00
03FFF00001FC00
03FFF00001F000
03FFF000000000
03FFF000000000
03FFF000000000
03FFF000000000
03FFF001F80000
03FFF001F80000
03FFF001F80000
03FFF003F80000
03FFF003F80000
03FFF007F80000
03FFF00FF80000
03FFFFFFF80000
03FFFFFFF80000
03FFFFFFF80000
03FFFFFFF80000
03FFFFFFF80000
03FFFFFFF80000
03FFF00FF80000
03FFF007F80000
03FFF003F80000
03FFF003F80000
03FFF001F80000
03FFF001F80000
03FFF001F80000
03FFF000000000
03FFF000000000
03FFF000000000
03FFF000003800
03FFF000003F00
03FFF000003F80
03FFF000007F80
03FFF000007F00
03FFF00000FF00
03FFF00000FF00
03FFF00001FF00
03FFF80003FF00
07FFF80007FE00
07FFFC001FFE00
3FFFFFE7FFFE00
FFFFFFFFFFFE00
FFFFFFFFFFFE00
FFFFFFFFFFFE00
FFFFFFFFFFFE00
FFFFFFFFFFFC00
ENDCHAR
STARTCHAR 0046
ENCODING 70
SWIDTH 585 0
DWIDTH 52 0
BBX 46 60 4 0
BITMAP
FFFFFFFFFFF0
FFFFFFFFFFF0
FFFFFFFFFFF0
FFFFFFFFFFF0
FFFFFFFFFFF8
1FFFF001FFF8
07FFF0003FF8
07FFF0001FF8
03FFF00007F8
03FFF00007F8
03FFF00003F8
03FFF00003F8
03FFF00001FC
03FFF00001FC
03FFF00001FC
03FFF00001F0
03FFF0000000
03FFF0000000
03FFF0000000
03FFF0000000
03FFF0000000
03FFF0000000
03FFF0003E00
03FFF000FC00
03FFF000FC00
03FFF000FC00
03FFF000FC00
03FFF001FC00
03FFF003FC00
03FFF01FFC00
03FFFFFFFC00
03FFFFFFFC00
03FFFFFFFC00
03FFFFFFFC00
03FFFFFFFC00
03FFF00FFC00
03FFF001FC00
03FFF001FC00
03FFF000FC00
03FFF000FC00
03FFF000FC00
03FFF0007E00
03FFF0001E00
03FFF0000000
03FFF0000000
03FFF0000000
03FFF0000000
03FFF0000000
03FFF0000000
03FFF0000000
03FFF0000000
03FFF8000000
07FFFC000000
07FFFE000000
3FFFFFC00000
FFFFFFF80000
FFFFFFF80000
FFFFFFF80000
FFFFFFF80000
FFFFFFF80000
ENDCHAR
STARTCHAR 0047
ENCODING 71
SWIDTH 708 0
DWIDTH 63 0
BBX 57 62 3 -1
BITMAP
0000003FFC000000
000007FFFFF00000
00003FFFFFFE0000
0000FFFFFFFFC000
0003FFFFFFFFF000
000FFFFE7FFFF000
001FFFC003FFF000
003FFE0000FFF000
00FFFC00007FF000
01FFF800003FF000
01FFF000003FF000
03FFE000001FF000
07FFC000001FF000
0FFFC000000FF000
0FFF8000000FF000
1FFF8000000FF000
1FFF0000000FF000
3FFF00000007F000
3FFE00000007E000
3FFE000000000000
7FFE000000000000
7FFE000000000000
7FFE000000000000
7FFC000000000000
7FFC000000000000
FFFC000000000000
FFFC000000000000
FFFC000000000000
FFFC000000000000
FFFC000000000000
FFFC000000000000
FFFC000000000000
FFFC00007FFFFF80
FFFC00007FFFFF00
FFFC00007FFFFF00
FFFE00007FFFFF00
FFFE00003FFFFF00
7FFE000007FFFC00
7FFE000001FFF800
7FFE000000FFF800
7FFF000000FFF000
3FFF0000007FF000
3FFF0000007FF000
3FFF0000007FF000
1FFF8000007FF000
1FFF8000007FF000
0FFFC000007FF000
0FFFC000007FF000
07FFE000007FF000
07FFF000007FF000
03FFF000007FF000
01FFF800007FF800
00FFFC0000FFF800
00FFFF0000FFF800
003FFF8001FFF800
001FFFF007FFF800
000FFFFFFFFFE000
0003FFFFFFFFC000
0001FFFFFFFE0000
00003FFFFFF80000
00000FFFFF800000
0000003FF0000000
ENDCHAR
STARTCHAR 0048
ENCODING 72
SWIDTH 776 0
DWIDTH 69 0
BBX 61 60 4 0
BITMAP
FFFFFFC01FFFFFF8
FFFFFFC01FFFFFF8
FFFFFFC01FFFFFF8
FFFFFFC01FFFFFF8
FFFFFFC01FFFFFF8
1FFFFE0003FFFFC0
07FFF80000FFFF80
07FFF800007FFF00
03FFF000007FFE00
03FFF000007FFE00
03FFF000007FFE00
03FFF000003FFE00
03FFF000003FFE00
03FFF000003FFE00
03FFF000003FFE00
03FFF000003FFE00
03FFF000003FFE00
03FFF000003FFE00
03FFF000003FFE00
03FFF000003FFE00
03FFF000003FFE00
03FFF000003FFE00
03FFF000003FFE00
03FFF000003FFE00
03FFF000003FFE00
03FFF000003FFE00
03FFFFFFFFFFFE00
03FFFFFFFFFFFE00
03FFFFFFFFFFFE00
03FFFFFFFFFFFE00
03FFFFFFFFFFFE00
03FFFFFFFFFFFE00
03FFF000003FFE00
03FFF000003FFE00
03FFF000003FFE00
03FFF000003FFE00
03FFF000003FFE00
03FFF000003FFE00
03FFF000003FFE00
03FFF000003FFE00
03FFF000003FFE00
03FFF000003FFE00
03FFF000003FFE00
03FFF000003FFE00
03FFF000003FFE00
03FFF000003FFE00
03FFF000003FFE00
03FFF000003FFE00
03FFF000003FFE00
03FFF000007FFE00
03FFF000007FFE00
03FFF000007FFE00
07FFF800007FFF00
07FFF80000FFFF80
1FFFFE0003FFFFE0
FFFFFFC01FFFFFF8
FFFFFFC01FFFFFF8
FFFFFFC01FFFFFF8
FFFFFFC01FFFFFF8
FFFFFFC01FFFFFF8
ENDCHAR
STARTCHAR 0049
ENCODING 73
SWIDTH 371 0
DWIDTH 33 0
BBX 26 60 4 0
BITMAP
FFFFFFC0
FFFFFFC0
FFFFFFC0
FFFFFFC0
FFFFFFC0
1FFFFE00
07FFF800
07FFF800
03FFF000
03FFF000
03FFF000
03FFF000
03FFF000
03FFF000
03FFF000
03FFF000
03FFF000
03FFF000
03FFF000
03FFF000
03FFF000
03FFF000
03FFF000
03FFF000
03FFF000
03FFF000
03FFF000
03FFF000
03FFF000
03FFF000
03FFF000
03FFF000
03FFF000
03FFF000
03FFF000
03FFF000
03FFF000
03FFF000
03FFF000
03FFF000
03FFF000
03FFF000
03FFF000
03FFF000
03FFF000
03FFF000
03FFF000
03FFF000
03FFF000
03FFF000
03FFF000
03FFF000
07FFF800
07FFF800
1FFFFE00
FFFFFFC0
FFFFFFC0
FFFFFFC0
FFFFFFC0
FFFFFFC0
ENDCHAR
STARTCHAR 004A
ENCODING 74
SWIDTH 360 0
DWIDTH 32 0
BBX 29 82 0 -22
BITMAP
1FFFFFF8
1FFFFFF8
1FFFFFF8
1FFFFFF8
1FFFFFF8
03FFFFC0
00FFFF00
00FFFE00
007FFE00
007FFE00
007FFE00
007FFE00
007FFC00
007FFC00
007FFC00
007FFC00
007FFC00
007FFC00
007FFC00
007FFC00
007FFC00
007FFC00
007FFC00
007FFC00
007FFC00
007FFC00
007FFC00
007FFC00
007FFC00
007FFC00
007FFC00
007FFC00
007FFC00
007FFC00
007FFC00
007FFC00
007FFC00
007FFC00
007FFC00
007FFC00
007FFC00
007FFC00
007FFC00
007FFC00
007FFC00
007FFC00
007FFC00
007FFC00
007FFC00
007FFC00
007FFC00
007FFC00
007FFC00
007FFC00
007FFC00
007FFC00
007FFC00
007FFC00
007FFC00
007FFC00
007FFC00
007FF800
007FF800
007FF800
00FFF800
00FFF000
00FFF000
00FFE000
01FFE000
01FFC000
03FFC000
03FF8000
07FF0000
0FFE0000
1FFC0000
3FF80000
7FF00000
FFC00000
FF800000
FE000000
F8000000
60000000
ENDCHAR
STARTCHAR 004B
ENCODING 75
SWIDTH 720 0
DWIDTH 64 0
BBX 59 61 4 -1
BITMAP
FFFFFFC03FFFFF00
FFFFFFC03FFFFE00
FFFFFFC01FFFFE00
FFFFFFC01FFFFE00
FFFFFFC01FFFFE00
1FFFFE0007FFF000
07FFF80003FF8000
07FFF80003FF0000
03FFF00003FC0000
03FFF00007F80000
03FFF0000FF00000
03FFF0001FE00000
03FFF0003FC00000
03FFF0007F800000
03FFF000FF000000
03FFF001FE000000
03FFF003FC000000
03FFF007F8000000
03FFF00FF0000000
03FFF01FE0000000
03FFF03FC0000000
03FFF07F80000000
03FFF07F80000000
03FFF0FF00000000
03FFF1FE00000000
03FFF3FE00000000
03FFF7FF00000000
03FFFFFF80000000
03FFFFFF80000000
03FFFFFFC0000000
03FFFFFFE0000000
03FFFFFFF0000000
03FFFFFFF8000000
03FFF7FFFC000000
03FFF3FFFC000000
03FFF1FFFE000000
03FFF1FFFF000000
03FFF0FFFF800000
03FFF07FFF800000
03FFF03FFFC00000
03FFF01FFFE00000
03FFF01FFFE00000
03FFF00FFFF00000
03FFF007FFF80000
03FFF003FFFC0000
03FFF003FFFC0000
03FFF001FFFE0000
03FFF000FFFF0000
03FFF000FFFF0000
03FFF0007FFF8000
03FFF0003FFFC000
03FFF0003FFFE000
07FFF8001FFFF800
07FFF8000FFFFC00
1FFFFE000FFFFFC0
FFFFFFC007FFFFE0
FFFFFFC007FFFFE0
FFFFFFC003FFFFE0
FFFFFFC001FFFFE0
FFFFFFC001FFFFC0
0000000000C00000
ENDCHAR
STARTCHAR 004C
ENCODING 76
SWIDTH 596 0
DWIDTH 53 0
BBX 48 60 4 0
BITMAP
FFFFFFC00000
FFFFFFC00000
FFFFFFC00000
FFFFFFC00000
FFFFFFC00000
1FFFFE000000
07FFF8000000
07FFF8000000
03FFF0000000
03FFF0000000
03FFF0000000
03FFF0000000
03FFF0000000
03FFF0000000
03FFF0000000
03FFF0000000
03FFF0000000
03FFF0000000
03FFF0000000
03FFF0000000
03FFF0000000
03FFF0000000
03FFF0000000
03FFF0000000
03FFF0000000
03FFF0000000
03FFF0000000
03FFF0000000
03FFF0000000
03FFF0000000
03FFF0000000
03FFF0000000
03FFF0000000
03FFF0000000
03FFF0000000
03FFF0000000
03FFF0000000
03FFF0000000
03FFF0000000
03FFF0000000
03FFF0000000
03FFF0000000
03FFF0000000
03FFF0000070
03FFF000007E
03FFF000007F
03FFF00000FF
03FFF00000FF
03FFF00001FE
03FFF00001FE
03FFF00003FE
03FFF80007FE
07FFF8000FFE
07FFFC003FFC
3FFFFFE3FFFC
FFFFFFFFFFFC
FFFFFFFFFFFC
FFFFFFFFFFFC
FFFFFFFFFFFC
FFFFFFFFFFFC
ENDCHAR
STARTCHAR 004D
ENCODING 77
SWIDTH 956 0
DWIDTH 85 0
BBX 82 61 2 -1
BITMAP
0FFFFF000000003FFFFC00
0FFFFF000000003FFFFC00
0FFFFF800000003FFFFC00
0FFFFF800000007FFFFC00
0FFFFF800000007FFFFC00
00FFFFC00000007FFFE000
007FFFC0000000FFFF8000
003FFFE0000000FFFF0000
003FFFE0000001FFFF0000
003FFFF0000001FFFF0000
003FFFF0000001FFFF0000
001FFFF8000003FFFF0000
003FFFF8000003FFFF0000
003FFFF8000003FFFF0000
003FFFFC000007FFFF0000
003FFFFC000007FFFF0000
003FFFFE00000FFFFF0000
003FFFFE00000FDFFF0000
003F7FFF00000FDFFF0000
003F7FFF00001F9FFF0000
003F3FFF00001F9FFF0000
003F3FFF80001F9FFF8000
003F1FFF80003F1FFF8000
003E1FFFC0003F1FFF8000
007E1FFFC0007E1FFF8000
007E0FFFE0007E1FFF8000
007E0FFFE0007E1FFF8000
007E07FFF000FC0FFF8000
007E07FFF000FC0FFF8000
007E03FFF000F80FFF8000
007E03FFF801F80FFF8000
007E01FFF801F80FFFC000
007E01FFFC03F00FFFC000
007C00FFFC03F00FFFC000
007C00FFFE03E00FFFC000
00FC00FFFE07E00FFFC000
00FC007FFE07E007FFC000
00FC007FFF07C007FFC000
00FC003FFF0FC007FFC000
00FC003FFF8F8007FFC000
00FC001FFF9F8007FFC000
00FC001FFFDF0007FFE000
00F8000FFFDF0007FFE000
00F8000FFFFF0007FFE000
00F8000FFFFE0007FFE000
01F80007FFFE0007FFE000
01F80007FFFC0003FFE000
01F80003FFFC0003FFE000
01F80003FFFC0003FFE000
01F80001FFF80003FFF000
03FC0001FFF80003FFF000
03FC0000FFF00003FFF000
07FC0000FFF00007FFF800
0FFE0000FFF0000FFFFC00
3FFFC0007FE0003FFFFF00
FFFFE0007FE000FFFFFFC0
FFFFE0003FC000FFFFFFC0
FFFFF0003FC000FFFFFFC0
FFFFF0001FC001FFFFFFC0
FFFFF0001F8001FFFFFFC0
000000000F000000000000
ENDCHAR
STARTCHAR 004E
ENCODING 78
SWIDTH 720 0
DWIDTH 64 0
BBX 58 61 3 -1
BITMAP
FFFFC00001FFFFC0
FFFFE00001FFFFC0
FFFFF00001FFFFC0
FFFFF00000FFFFC0
FFFFF80000FFFFC0
1FFFFC00001FFF00
07FFFE00000FFC00
03FFFE000007FC00
01FFFF000003F800
01FFFF800003F800
01FFFFC00003F800
01FFFFC00003F800
01FFFFE00001F800
01FFFFF00001F000
01FFFFF80001F000
01FFFFF80001F000
01FFFFFC0001F000
01FBFFFE0001F000
01F9FFFE0001F000
01F9FFFF0001F000
01F8FFFF8001F000
01F87FFFC001F000
01F83FFFC001F000
01F83FFFE001F000
01F81FFFF001F000
01F80FFFF801F000
01F807FFF801F000
01F807FFFC01F000
01F803FFFE01F000
01F801FFFF01F000
01F800FFFF01F000
01F800FFFF81F000
01F8007FFFC1F000
01F8003FFFE1F000
01F8001FFFE1F000
01F8001FFFF1F000
01F8000FFFF9F000
01F80007FFFDF000
01F80003FFFDF000
01F80003FFFFF000
01F80001FFFFF000
01F80000FFFFF000
01F800007FFFF000
01F800007FFFF000
01F800003FFFF000
01F800001FFFF000
01F800000FFFF000
01F800000FFFF000
01F8000007FFF000
01F8000003FFF000
01FC000001FFF000
03FC000001FFF000
03FE000000FFF000
07FE0000007FF000
1FFF8000003FF000
FFFFF000003FF000
FFFFF000001FF000
FFFFF000000FF000
FFFFF0000007F000
FFFFF0000007F000
000000000003E000
ENDCHAR
STARTCHAR 004F
ENCODING 79
SWIDTH 742 0
DWIDTH 66 0
BBX 60 62 3 -1
BITMAP
0000007FE0000000
00000FFFFF000000
00003FFFFFE00000
0001FFFFFFF80000
0003FFFFFFFE0000
000FFFFFFFFF0000
001FFF007FFFC000
003FFC001FFFE000
007FF80007FFF000
00FFF00003FFF800
01FFE00001FFFC00
03FFC00000FFFE00
07FFC000007FFE00
07FF8000007FFF00
0FFF8000003FFF80
0FFF0000001FFF80
1FFF0000001FFFC0
1FFE0000000FFFC0
3FFE0000000FFFC0
3FFE0000000FFFE0
7FFE00000007FFE0
7FFC00000007FFE0
7FFC00000007FFE0
7FFC00000007FFF0
7FFC00000003FFF0
FFFC00000003FFF0
FFFC00000003FFF0
FFFC00000003FFF0
FFFC00000003FFF0
FFFC00000003FFF0
FFFC00000003FFF0
FFFC00000003FFF0
FFFC00000003FFF0
FFFC00000003FFF0
FFFC00000003FFF0
FFFC00000003FFF0
FFFE00000003FFF0
7FFE00000003FFF0
7FFE00000003FFE0
7FFE00000003FFE0
7FFE00000003FFE0
3FFF00000007FFE0
3FFF00000007FFC0
3FFF00000007FFC0
1FFF80000007FF80
1FFF8000000FFF80
0FFFC000000FFF00
0FFFC000001FFF00
07FFE000001FFE00
07FFE000003FFE00
03FFF000003FFC00
01FFF800007FF800
00FFFC0000FFF000
007FFE0001FFE000
003FFF8007FFC000
001FFFE01FFF8000
000FFFFFFFFF0000
0003FFFFFFFC0000
0000FFFFFFF80000
00003FFFFFC00000
000007FFFF000000
0000003FE0000000
ENDCHAR
STARTCHAR 0050
ENCODING 80
SWIDTH 630 0
DWIDTH 56 0
BBX 50 60 4 0
BITMAP
FFFFFFFFF00000
FFFFFFFFFE0000
FFFFFFFFFF8000
FFFFFFFFFFE000
FFFFFFFFFFF000
1FFFF83FFFFC00
07FFF007FFFC00
07FFF001FFFE00
03FFF000FFFF00
03FFF0007FFF00
03FFF0003FFF80
03FFF0003FFF80
03FFF0001FFF80
03FFF0001FFF80
03FFF0001FFF80
03FFF0001FFFC0
03FFF0000FFFC0
03FFF0000FFFC0
03FFF0000FFFC0
03FFF0000FFFC0
03FFF0000FFFC0
03FFF0000FFF80
03FFF0000FFF80
03FFF0000FFF80
03FFF0000FFF80
03FFF0001FFF00
03FFF0001FFF00
03FFF0001FFF00
03FFF0003FFE00
03FFF0003FFE00
03FFF0007FFC00
03FFF000FFF800
03FFF001FFF800
03FFF19FFFF000
03FFF3FFFFE000
03FFF3FFFF8000
03FFF3FFFF0000
03FFF3FFFC0000
03FFF1FFE00000
03FFF000000000
03FFF000000000
03FFF000000000
03FFF000000000
03FFF000000000
03FFF000000000
03FFF000000000
03FFF000000000
03FFF000000000
03FFF000000000
03FFF000000000
03FFF000000000
03FFF800000000
07FFFC00000000
07FFFE00000000
3FFFFFC0000000
FFFFFFF8000000
FFFFFFF8000000
FFFFFFF8000000
FFFFFFF8000000
FFFFFFF8000000
ENDCHAR
STARTCHAR 0051
ENCODING 81
SWIDTH 742 0
DWIDTH 66 0
BBX 66 79 3 -18
BITMAP
0000007FE000000000
00000FFFFF00000000
00003FFFFFE0000000
0001FFFFFFF8000000
0003FFFFFFFE000000
000FFFFFFFFF000000
001FFF007FFFC00000
003FFC001FFFE00000
007FF80007FFF00000
00FFF00003FFF80000
01FFE00001FFFC0000
03FFC00000FFFE0000
07FFC000007FFE0000
07FF8000007FFF0000
0FFF8000003FFF8000
0FFF0000001FFF8000
1FFF0000001FFFC000
1FFE0000000FFFC000
3FFE0000000FFFC000
3FFE0000000FFFE000
7FFE00000007FFE000
7FFC00000007FFE000
7FFC00000007FFE000
7FFC00000007FFF000
7FFC00000003FFF000
FFFC00000003FFF000
FFFC00000003FFF000
FFFC00000003FFF000
FFFC00000003FFF000
FFFC00000003FFF000
FFFC00000003FFF000
FFFC00000003FFF000
FFFC00000003FFF000
FFFC00000003FFF000
FFFC00000003FFF000
FFFC00000003FFF000
FFFE00000003FFF000
7FFE00000003FFF000
7FFE00000003FFE000
7FFE00000003FFE000
7FFE00000003FFE000
3FFF00000007FFE000
3FFF00000007FFC000
3FFF00000007FFC000
1FFF80000007FF8000
1FFF8000000FFF8000
0FFFC000000FFF0000
0FFFC000001FFF0000
07FFE000001FFE0000
07FFE000003FFE0000
03FFF000003FFC0000
01FFF800007FF80000
00FFFC0000FFF00000
007FFE0001FFE00000
003FFF8007FFC00000
001FFFE01FFF800000
000FFFFFFFFF000000
0003FFFFFFFC000000
0000FFFFFFF8000000
00003FFFFFC0000000
000007FFFFF0000000
0000003FFFFC000000
000000007FFF000000
000000001FFFC00000
0000000007FFE00000
0000000003FFF80000
0000000001FFFC0000
0000000000FFFF0000
00000000007FFFE000
00000000007FFFFFC0
00000000003FFFFFC0
00000000001FFFFFC0
00000000001FFFFFC0
00000000000FFFFFC0
000000000007FFFF80
000000000003FFFC00
000000000001FFC000
000000000000FE0000
000000000000300000
ENDCHAR
STARTCHAR 0052
ENCODING 82
SWIDTH 697 0
DWIDTH 62 0
BBX 57 61 4 -1
BITMAP
FFFFFFFFFC000000
FFFFFFFFFF800000
FFFFFFFFFFE00000
FFFFFFFFFFF00000
FFFFFFFFFFFC0000
1FFFF807FFFE0000
07FFF001FFFF0000
07FFF0007FFF0000
03FFF0003FFF8000
03FFF0001FFF8000
03FFF0001FFFC000
03FFF0000FFFC000
03FFF0000FFFC000
03FFF0000FFFC000
03FFF0000FFFC000
03FFF0000FFFC000
03FFF00007FFC000
03FFF00007FFC000
03FFF0000FFFC000
03FFF0000FFFC000
03FFF0000FFFC000
03FFF0000FFF8000
03FFF0001FFF8000
03FFF0001FFF8000
03FFF0003FFF0000
03FFF0007FFF0000
03FFF000FFFE0000
03FFF001FFFC0000
03FFF007FFF80000
03FFFFFFFFF00000
03FFFFFFFFC00000
03FFFFFFFF000000
03FFFFFFFC000000
03FFFFFFFC000000
03FFFFFFFE000000
03FFF07FFF000000
03FFF03FFF800000
03FFF01FFFC00000
03FFF00FFFC00000
03FFF00FFFE00000
03FFF007FFF00000
03FFF003FFF00000
03FFF003FFF80000
03FFF001FFF80000
03FFF001FFFC0000
03FFF000FFFC0000
03FFF000FFFE0000
03FFF0007FFF0000
03FFF0007FFF0000
03FFF0003FFF8000
03FFF0003FFF8000
03FFF0001FFFC000
07FFF0001FFFE000
07FFF8001FFFF000
1FFFFE000FFFFF00
FFFFFF800FFFFF80
FFFFFF8007FFFF80
FFFFFF8007FFFF80
FFFFFF8003FFFF00
FFFFFF8003FFFF00
0000000001C00000
ENDCHAR
STARTCHAR 0053
ENCODING 83
SWIDTH 551 0
DWIDTH 49 0
BBX 42 62 4 -1
BITMAP
0000FFE00000
000FFFFF0000
003FFFFFE000
00FFFFFFF800
01FFFFFFFC00
03FFFFFFFC00
07FF00FFFC00
0FFC003FFC00
1FF8001FFC00
1FF8000FFC00
1FF80007FC00
3FF00007FC00
3FF00007FC00
3FF00003FC00
3FF00003FC00
7FF80003FC00
7FF80003FC00
7FFC0001F000
7FFE00000000
7FFF00000000
3FFFC0000000
3FFFE0000000
3FFFF8000000
3FFFFE000000
1FFFFF800000
1FFFFFE00000
0FFFFFF80000
0FFFFFFE0000
07FFFFFF8000
03FFFFFFC000
01FFFFFFF000
00FFFFFFF800
007FFFFFFC00
001FFFFFFE00
000FFFFFFF00
0003FFFFFF00
00007FFFFF80
00001FFFFF80
000007FFFFC0
000001FFFFC0
0000007FFFC0
0000003FFFC0
3F80000FFFC0
7F80000FFFC0
7F800007FFC0
7FC00003FFC0
7FC00003FFC0
7FC00003FFC0
7FC00003FFC0
7FC00003FFC0
7FE00003FF80
7FE00003FF80
7FF00007FF00
7FF8000FFF00
7FFC001FFE00
FFFF80FFFC00
FFFFFFFFF800
3FFFFFFFF000
0FFFFFFFC000
01FFFFFF8000
003FFFFC0000
0000FF800000
ENDCHAR
STARTCHAR 0054
ENCODING 84
SWIDTH 652 0
DWIDTH 58 0
BBX 54 60 2 0
BITMAP
3FFFFFFFFFFFF8
3FFFFFFFFFFFF8
3FFFFFFFFFFFF8
3FFFFFFFFFFFF8
3FFFFFFFFFFFF8
3FFE0FFFC1FFF8
3FF80FFFC03FF8
3FE00FFFC00FF8
7FC00FFFC00FF8
7F800FFFC007F8
7F800FFFC003F8
7F000FFFC003F8
7F000FFFC003F8
7F000FFFC001FC
FE000FFFC001FC
7E000FFFC001FC
00000FFFC00000
00000FFFC00000
00000FFFC00000
00000FFFC00000
00000FFFC00000
00000FFFC00000
00000FFFC00000
00000FFFC00000
00000FFFC00000
00000FFFC00000
00000FFFC00000
00000FFFC00000
00000FFFC00000
00000FFFC00000
00000FFFC00000
00000FFFC00000
00000FFFC00000
00000FFFC00000
00000FFFC00000
00000FFFC00000
00000FFFC00000
00000FFFC00000
00000FFFC00000
00000FFFC00000
00000FFFC00000
00000FFFC00000
00000FFFC00000
00000FFFC00000
00000FFFC00000
00000FFFC00000
00000FFFC00000
00000FFFC00000
00000FFFC00000
00000FFFC00000
00000FFFC00000
00000FFFC00000
00001FFFE00000
00003FFFF00000
0001FFFFFE0000
000FFFFFFFC000
000FFFFFFFC000
000FFFFFFFC000
001FFFFFFFC000
001FFFFFFFC000
ENDCHAR
STARTCHAR 0055
ENCODING 85
SWIDTH 675 0
DWIDTH 60 0
BBX 55 61 3 -1
BITMAP
FFFFFFC007FFFE
FFFFFF8007FFFE
FFFFFF8007FFFE
FFFFFF8007FFFE
FFFFFF8007FFFC
3FFFFE0001FFF0
0FFFF800007FE0
07FFF000003FC0
07FFF000003FC0
03FFE000001F80
03FFE000001F80
03FFE000001F80
03FFE000001F80
03FFE000001F80
03FFE000001F80
03FFE000001F80
03FFE000001F80
03FFE000001F80
03FFE000001F80
03FFE000001F80
03FFE000001F80
03FFE000001F80
03FFE000001F80
03FFE000001F80
03FFE000001F80
03FFE000001F80
03FFE000001F80
03FFE000001F80
03FFE000001F80
03FFE000001F80
03FFE000001F80
03FFE000001F80
03FFE000001F80
03FFE000001F80
03FFE000001F80
03FFE000001F80
03FFE000001F80
03FFE000001F80
03FFE000001F80
03FFE000001F80
03FFE000001F80
03FFE000001F80
03FFE000001F80
03FFF000001F80
03FFF000001F00
03FFF000003F00
03FFF000003F00
01FFF800003F00
01FFF800003F00
01FFF800007E00
00FFFC00007E00
00FFFE0000FE00
007FFF0001FC00
007FFFC007FC00
003FFFF83FF800
001FFFFFFFF000
000FFFFFFFE000
0007FFFFFFC000
0001FFFFFF0000
00003FFFFC0000
000001FFC00000
ENDCHAR
STARTCHAR 0056
ENCODING 86
SWIDTH 686 0
DWIDTH 61 0
BBX 58 61 2 -1
BITMAP
FFFFFF80007FFFC0
FFFFFF80007FFFC0
FFFFFF80007FFFC0
FFFFFF80007FFFC0
FFFFFF80007FFFC0
3FFFFC00001FFF00
1FFFF0000007FE00
0FFFF0000007FC00
0FFFF0000007F800
07FFF0000007F800
07FFF0000007F000
03FFF8000007F000
03FFF8000007E000
01FFFC000007E000
01FFFC00000FC000
00FFFC00000FC000
00FFFE00000FC000
007FFE00001F8000
007FFF00001F8000
003FFF00001F0000
003FFF00003F0000
003FFF80003F0000
001FFF80007E0000
001FFFC0007E0000
000FFFC0007C0000
000FFFC000FC0000
000FFFE000FC0000
0007FFE000F80000
0007FFF001F80000
0003FFF001F00000
0003FFF003F00000
0001FFF803F00000
0001FFF807E00000
0001FFF807E00000
0000FFFC07C00000
0000FFFC0FC00000
00007FFC0FC00000
00007FFE1F800000
00007FFE1F800000
00003FFE1F000000
00003FFF3F000000
00001FFF3F000000
00001FFF7E000000
00001FFFFE000000
00000FFFFC000000
00000FFFFC000000
00000FFFFC000000
000007FFF8000000
000007FFF8000000
000003FFF0000000
000003FFF0000000
000003FFE0000000
000001FFE0000000
000001FFE0000000
000000FFC0000000
000000FFC0000000
000000FF80000000
0000007F80000000
0000007F80000000
0000007F00000000
0000003C00000000
ENDCHAR
STARTCHAR 0057
ENCODING 87
SWIDTH 990 0
DWIDTH 88 0
BBX 85 62 2 -1
BITMAP
00000000000F8000000000
FFFFFF80003F80003FFFF8
FFFFFF80003F80003FFFF8
FFFFFF80003FC0003FFFF8
FFFFFF80007FC0003FFFF0
FFFFFF80007FE0001FFFF0
7FFFFC00007FE00007FFE0
1FFFF00000FFE00001FFC0
0FFFE00000FFF00000FF80
0FFFE00000FFF00000FF00
07FFE00001FFF00000FF00
07FFF00001FFF80000FE00
07FFF00001FFF80000FE00
03FFF00003FFFC0000FC00
03FFF00003FFFC0000FC00
03FFF80003FFFC0000FC00
01FFF80007FFFE0000F800
01FFF80007FFFE0001F800
01FFFC0007FFFE0001F800
00FFFC000FFFFF0001F000
00FFFC000FFFFF0001F000
00FFFE000FBFFF8003F000
007FFE001FBFFF8003F000
007FFE001F9FFF8003E000
007FFF003F1FFFC007E000
003FFF003F1FFFC007E000
003FFF003F0FFFC007C000
003FFF807E0FFFE00FC000
001FFF807E07FFE00FC000
001FFF807E07FFF00F8000
001FFFC0FC07FFF00F8000
000FFFC0FC03FFF01F8000
000FFFC0FC03FFF81F8000
000FFFC1F801FFF81F0000
0007FFE1F801FFF83F0000
0007FFE1F801FFFC3F0000
0007FFE3F000FFFC3E0000
0003FFF3F000FFFC7E0000
0003FFF3F000FFFE7E0000
0003FFF7E0007FFE7C0000
0001FFF7E0007FFFFC0000
0001FFFFC0003FFFFC0000
0001FFFFC0003FFFF80000
0001FFFFC0003FFFF80000
0000FFFF80001FFFF80000
0000FFFF80001FFFF80000
0000FFFF80001FFFF00000
00007FFF00000FFFF00000
00007FFF00000FFFF00000
00007FFF000007FFE00000
00003FFE000007FFE00000
00003FFE000007FFE00000
00003FFE000003FFC00000
00001FFC000003FFC00000
00001FFC000003FFC00000
00001FFC000001FF800000
00001FF8000001FF800000
00000FF8000001FF800000
00000FF8000000FF800000
00000FF0000000FF000000
000007F00000007F000000
000007800000007C000000
ENDCHAR
STARTCHAR 0058
ENCODING 88
SWIDTH 697 0
DWIDTH 62 0
BBX 57 60 3 0
BITMAP
7FFFFFF00FFFFE00
7FFFFFE00FFFFE00
7FFFFFE00FFFFE00
7FFFFFE00FFFFE00
7FFFFFE00FFFFE00
1FFFFF8003FFF800
07FFFF0000FFE000
03FFFE0000FFC000
01FFFF0000FF8000
01FFFF0000FF0000
00FFFF0001FE0000
007FFF8001FC0000
003FFF8003FC0000
003FFFC003F80000
001FFFE007F00000
000FFFE007F00000
000FFFF00FE00000
0007FFF81FC00000
0007FFF81FC00000
0003FFFC3F800000
0001FFFE7F000000
0001FFFE7F000000
0000FFFFFE000000
00007FFFFC000000
00007FFFFC000000
00003FFFF8000000
00001FFFF0000000
00001FFFF0000000
00000FFFF0000000
00000FFFF0000000
000007FFF8000000
000003FFFC000000
000007FFFC000000
00000FFFFE000000
00000FFFFE000000
00001FFFFF000000
00003FFFFF800000
00007F3FFF800000
00007F3FFFC00000
0000FE1FFFC00000
0001FC1FFFE00000
0001F80FFFF00000
0003F80FFFF00000
0007F007FFF80000
0007E003FFF80000
000FE003FFFC0000
001FC001FFFE0000
003FC001FFFE0000
007F8000FFFF0000
00FF8000FFFF8000
00FF00007FFF8000
03FF00007FFFC000
07FF00007FFFE000
1FFF00007FFFF000
7FFFC000FFFFFE00
FFFFF003FFFFFF00
FFFFF003FFFFFF00
FFFFF007FFFFFF00
FFFFF007FFFFFF80
FFFFF007FFFFFF80
ENDCHAR
STARTCHAR 0059
ENCODING 89
SWIDTH 630 0
DWIDTH 56 0
BBX 53 60 2 0
BITMAP
FFFFFF800FFFF8
FFFFFF800FFFF8
FFFFFF800FFFF0
FFFFFF800FFFF0
FFFFFF800FFFF0
3FFFFC0003FFE0
0FFFF80000FF80
07FFF80000FF00
07FFF80000FE00
03FFFC0000FE00
03FFFC0000FC00
01FFFC0001FC00
01FFFE0001F800
00FFFE0001F800
00FFFF0003F000
007FFF0003F000
007FFF8007E000
003FFF8007E000
003FFF800FC000
001FFFC00FC000
001FFFC01F8000
000FFFE01F8000
000FFFE03F0000
0007FFF03F0000
0007FFF03E0000
0003FFF87E0000
0003FFF87C0000
0001FFF8FC0000
0001FFFCF80000
0000FFFDF80000
0000FFFFF00000
00007FFFF00000
00007FFFF00000
00003FFFE00000
00003FFFE00000
00001FFFC00000
00001FFFC00000
00000FFF800000
00000FFF800000
00000FFF800000
00000FFF800000
00000FFF800000
00000FFF800000
00000FFF800000
00000FFF800000
00000FFF800000
00000FFF800000
00000FFF800000
00000FFF800000
00000FFF800000
00001FFFC00000
00001FFFC00000
00001FFFC00000
00003FFFF00000
0003FFFFFC0000
001FFFFFFF8000
001FFFFFFF8000
001FFFFFFFC000
001FFFFFFFC000
001FFFFFFFC000
ENDCHAR
STARTCHAR 005A
ENCODING 90
SWIDTH 607 0
DWIDTH 54 0
BBX 46 60 4 0
BITMAP
1FFFFFFFFFF0
1FFFFFFFFFF0
1FFFFFFFFFF0
1FFFFFFFFFF8
1FFFFFFFFFF8
1FFF000FFFF0
1FFC000FFFF0
1FF8001FFFE0
1FF0001FFFC0
1FE0003FFFC0
1FE0003FFF80
3FC0007FFF80
3FC0007FFF00
3FC000FFFF00
3FC000FFFE00
3F8001FFFE00
3F8001FFFC00
000003FFFC00
000007FFF800
000007FFF800
00000FFFF000
00000FFFE000
00001FFFE000
00001FFFC000
00003FFFC000
00007FFF8000
00007FFF8000
0000FFFF0000
0000FFFF0000
0001FFFE0000
0001FFFC0000
0003FFFC0000
0007FFF80000
0007FFF80000
000FFFF00000
000FFFF00000
001FFFE00000
001FFFC00000
003FFFC00000
007FFF800000
007FFF800000
00FFFF000000
00FFFF000000
01FFFE0001C0
03FFFC0003F8
03FFFC0003FC
07FFF80003FC
07FFF80007F8
0FFFF00007F8
1FFFE00007F8
1FFFE0000FF8
3FFFC0001FF8
3FFFC0003FF8
7FFF80007FF0
FFFF000FFFF0
FFFFFFFFFFF0
FFFFFFFFFFF0
FFFFFFFFFFF0
FFFFFFFFFFF0
7FFFFFFFFFF0
ENDCHAR
STARTCHAR 005B
ENCODING 91
SWIDTH 281 0
DWIDTH 25 0
BBX 19 90 3 -24
BITMAP
FFFFE0
FFFFE0
FFFFE0
FFFFE0
FFFFE0
FFFFE0
FFF800
FFE000
FFC000
FF8000
FF8000
FF8000
FF8000
FF8000
FF8000
FF8000
FF8000
FF8000
FF8000
FF8000
FF8000
FF8000
FF8000
FF8000
FF8000
FF8000
FF8000
FF8000
FF8000
FF8000
FF8000
FF8000
FF8000
FF8000
FF8000
FF8000
FF8000
FF8000
FF8000
FF8000
FF8000
FF8000
FF8000
FF8000
FF8000
FF8000
FF8000
FF8000
FF8000
FF8000
FF8000
FF8000
FF8000
FF8000
FF8000
FF8000
FF8000
FF8000
FF8000
FF8000
FF8000
FF8000
FF8000
FF8000
FF8000
FF8000
FF8000
FF8000
FF8000
FF8000
FF8000
FF8000
FF8000
FF8000
FF8000
FF8000
FF8000
FF8000
FF8000
FF8000
FF8000
FFC000
FFE000
FFF800
FFFFC0
FFFFE0
FFFFE0
FFFFE0
FFFFE0
FFFFE0
ENDCHAR
STARTCHAR 005C
ENCODING 92
SWIDTH 382 0
DWIDTH 34 0
BBX 29 65 3 -1
BITMAP
38000000
FC000000
FC000000
FE000000
7E000000
7F000000
7F000000
3F000000
3F800000
1F800000
1F800000
1FC00000
0FC00000
0FC00000
0FE00000
07E00000
07F00000
03F00000
03F00000
03F80000
01F80000
01F80000
01FC0000
00FC0000
00FE0000
007E0000
007E0000
007F0000
003F0000
003F0000
003F8000
001F8000
001FC000
001FC000
000FC000
000FE000
0007E000
0007E000
0007F000
0003F000
0003F000
0003F800
0001F800
0001FC00
0000FC00
0000FC00
0000FE00
00007E00
00007E00
00007F00
00003F00
00003F80
00001F80
00001F80
00001FC0
00000FC0
00000FC0
00000FE0
000007E0
000007F0
000003F0
000003F0
000003F8
000001F8
00000180
ENDCHAR
STARTCHAR 005D
ENCODING 93
SWIDTH 281 0
DWIDTH 25 0
BBX 19 90 4 -24
BITMAP
FFFFE0
FFFFE0
FFFFE0
FFFFE0
FFFFE0
FFFFE0
03FFE0
00FFE0
007FE0
003FE0
003FE0
003FE0
003FE0
003FE0
003FE0
003FE0
003FE0
003FE0
003FE0
003FE0
003FE0
003FE0
003FE0
003FE0
003FE0
003FE0
003FE0
003FE0
003FE0
003FE0
003FE0
003FE0
003FE0
003FE0
003FE0
003FE0
003FE0
003FE0
003FE0
003FE0
003FE0
003FE0
003FE0
003FE0
003FE0
003FE0
003FE0
003FE0
003FE0
003FE0
003FE0
003FE0
003FE0
003FE0
003FE0
003FE0
003FE0
003FE0
003FE0
003FE0
003FE0
003FE0
003FE0
003FE0
003FE0
003FE0
003FE0
003FE0
003FE0
003FE0
003FE0
003FE0
003FE0
003FE0
003FE0
003FE0
003FE0
003FE0
003FE0
003FE0
003FE0
007FE0
00FFE0
03FFE0
FFFFE0
FFFFE0
FFFFE0
FFFFE0
FFFFE0
FFFFE0
ENDCHAR
STARTCHAR 005E
ENCODING 94
SWIDTH 540 0
DWIDTH 48 0
BBX 42 28 3 33
BITMAP
00001F800000
00003F800000
00007FC00000
0000FFE00000
0001FFE00000
0001FFF00000
0003FBF80000
0007FBF80000
000FF1FC0000
001FE0FE0000
001FC0FE0000
003F807F0000
007F003F8000
00FF003FC000
01FE001FC000
01FC000FE000
03F80007F000
07F00007F000
0FF00003F800
1FE00001FC00
1FC00001FC00
3F800000FE00
7F0000007F00
FF0000003F80
7E0000003F80
7C0000001FC0
380000000FC0
180000000400
ENDCHAR
STARTCHAR 005F
ENCODING 95
SWIDTH 540 0
DWIDTH 48 0
BBX 45 6 2 -13
BITMAP
7FFFFFFFFFF8
7FFFFFFFFFF8
FFFFFFFFFFF8
FFFFFFFFFFF0
FFFFFFFFFFF0
FFFFFFFFFFF0
ENDCHAR
STARTCHAR 0060
ENCODING 96
SWIDTH 292 0
DWIDTH 26 0
BBX 17 17 5 47
BITMAP
006000
7FE000
FFF000
7FF000
3FF000
3FF800
1FF800
0FFC00
07FC00
03FC00
01FE00
01FE00
00FF00
007F00
007F80
003F80
001800
ENDCHAR
STARTCHAR 0061
ENCODING 97
SWIDTH 506 0
DWIDTH 45 0
BBX 43 43 2 -1
BITMAP
00000F000000
0000FFF80000
0003FFFE0000
000FFFFF0000
003FFFFF8000
00FFFFFFC000
01FFFFFFC000
03F81FFFE000
0FF807FFE000
1FF807FFF000
1FF803FFF000
3FF803FFF000
7FF801FFF000
7FF801FFF000
FFF801FFF000
FFF801FFF000
7FF801FFF000
000003FFF000
00000FFFF000
00003FFFF000
0001FFFFF000
0007FFFFF000
001FF9FFF000
007FE1FFF000
03FFC1FFF000
0FFF01FFF000
1FFC01FFF000
3FF801FFF000
3FF801FFF000
7FF801FFF000
7FF801FFF000
7FF801FFF000
7FF801FFF800
7FFC01FFFC00
7FFC01FFFF00
7FFE01FFFFE0
7FFF8FFFFFE0
3FFFFFFFFFC0
3FFFFFFFFFC0
1FFFFCFFFFC0
0FFFF07FFE00
03FFC03FF800
003C000F8000
ENDCHAR
STARTCHAR 0062
ENCODING 98
SWIDTH 596 0
DWIDTH 53 0
BBX 50 65 0 -1
BITMAP
00008000000000
0003E000000000
007FE000000000
7FFFE000000000
7FFFE000000000
FFFFE000000000
FFFFE000000000
FFFFE000000000
3FFFE000000000
07FFE000000000
03FFE000000000
03FFE000000000
01FFE000000000
01FFE000000000
01FFE000000000
01FFE000000000
01FFE000000000
01FFE000000000
01FFE000000000
01FFE000000000
01FFE000000000
01FFE000000000
01FFE000800000
01FFE01FFF0000
01FFE07FFFC000
01FFE0FFFFF000
01FFE1FFFFF800
01FFE7FFFFFC00
01FFEFFFFFFE00
01FFEFFFFFFE00
01FFFF00FFFF00
01FFF8007FFF00
01FFE0003FFF80
01FFE0001FFF80
01FFE0001FFF80
01FFE0000FFFC0
01FFE0000FFFC0
01FFE0000FFFC0
01FFE00007FFC0
01FFE00007FFC0
01FFE00007FFC0
01FFE00007FFC0
01FFE00007FFC0
01FFE00007FFC0
01FFE00007FFC0
01FFE00007FFC0
01FFE00007FFC0
01FFE00007FFC0
01FFE00007FF80
01FFE00007FF80
01FFE0000FFF80
01FFE0000FFF00
01FFE0000FFF00
01FFE0001FFE00
03FFE0001FFE00
03FFE0003FFC00
03FFF0007FF800
07FFF000FFF000
07FFFC01FFE000
03FFFF9FFFC000
01FFFFFFFF8000
007FFFFFFE0000
000FFFFFF80000
0001FFFFE00000
000007FE000000
ENDCHAR
STARTCHAR 0063
ENCODING 99
SWIDTH 461 0
DWIDTH 41 0
BBX 36 43 3 -1
BITMAP
0000080000
0003FFF800
001FFFFF00
007FFFFFC0
00FFFFFFE0
01FFFFFFE0
03FFC1FFE0
07FF807FE0
0FFF003FE0
0FFE003FE0
1FFC001FE0
3FFC001FE0
3FFC001FE0
3FF8001FE0
7FF8000FE0
7FF8000FC0
7FF8000000
FFF8000000
FFF8000000
FFF8000000
FFF8000000
FFF8000000
FFF8000000
FFF8000000
FFF8000000
FFF8000000
FFFC000000
7FFC000000
7FFC000000
7FFE000000
7FFE000000
3FFF000000
3FFF800000
1FFFC00060
1FFFE000F0
0FFFF807F0
07FFFFFFF0
03FFFFFFF0
01FFFFFFE0
007FFFFF80
003FFFFF00
0007FFF800
00007F8000
ENDCHAR
STARTCHAR 0064
ENCODING 100
SWIDTH 607 0
DWIDTH 54 0
BBX 49 65 3 -1
BITMAP
00000000008000
0000000003E000
000000007FE000
0000007FFFE000
0000007FFFE000
000000FFFFE000
000000FFFFE000
000000FFFFE000
0000003FFFE000
00000007FFE000
00000003FFE000
00000003FFE000
00000001FFE000
00000001FFE000
00000001FFE000
00000001FFE000
00000001FFE000
00000001FFE000
00000001FFE000
00000001FFE000
00000001FFE000
00000001FFE000
00000181FFE000
00007FFFFFE000
0003FFFFFFE000
000FFFFFFFE000
003FFFFFFFE000
007FFFFFFFE000
01FFF00FFFE000
03FFC007FFE000
07FF8001FFE000
07FF0001FFE000
0FFF0001FFE000
1FFE0001FFE000
1FFE0001FFE000
3FFC0001FFE000
3FFC0001FFE000
7FFC0001FFE000
7FFC0001FFE000
7FF80001FFE000
7FF80001FFE000
FFF80001FFE000
FFF80001FFE000
FFF80001FFE000
FFF80001FFE000
FFF80001FFE000
FFF80001FFE000
FFFC0001FFE000
FFFC0001FFE000
FFFC0001FFE000
FFFE0001FFE000
7FFE0001FFF000
7FFF0001FFF000
7FFF0001FFF000
7FFF8001FFF000
3FFFC001FFF800
3FFFE001FFFF80
1FFFF807FFFF80
1FFFFFFFFFFF80
0FFFFFFFFFFF80
07FFFFFDFFFF00
03FFFFF1FFFF00
00FFFFE1FF8000
003FFF81F00000
0007F801000000
ENDCHAR
STARTCHAR 0065
ENCODING 101
SWIDTH 506 0
DWIDTH 45 0
BBX 39 43 3 -1
BITMAP
0000080000
0003FFF000
001FFFFC00
007FFFFF00
00FFFFFF80
01FFFFFFC0
03FFC1FFE0
07FF80FFF0
0FFF007FF0
1FFE003FF8
1FFC003FF8
3FFC003FFC
3FFC001FFC
7FFC001FFC
7FF8001FFE
7FF8001FFE
7FF8001FFE
FFF8001FFE
FFFFFFFFFE
FFFFFFFFFE
FFFFFFFFFE
FFFFFFFFFE
FFFFFFFFFC
FFFFFFFFF8
FFF8000000
FFF8000000
FFFC000000
7FFC000000
7FFC000000
7FFE000000
7FFE000000
3FFF000000
3FFF800008
1FFFC0001C
1FFFE0007E
0FFFF803FE
07FFFFFFFE
03FFFFFFFC
01FFFFFFF0
00FFFFFFE0
003FFFFF80
0007FFFC00
00003F8000
ENDCHAR
STARTCHAR 0066
ENCODING 102
SWIDTH 382 0
DWIDTH 34 0
BBX 38 64 3 0
BITMAP
0000007800
00000FFFE0
00007FFFF8
0001FFFFFC
0003FFFFFC
0007FFFFFC
000FFE3FFC
001FF81FFC
003FF80FFC
003FF007FC
007FF007FC
00FFF007FC
00FFF003FC
00FFE003FC
01FFE003F8
01FFE00000
01FFE00000
01FFE00000
01FFE00000
01FFE00000
01FFE00000
01FFE00000
01FFE00000
01FFE00000
7FFFFFF800
FFFFFFF800
FFFFFFF800
FFFFFFF800
FFFFFFF800
FFFFFFF000
03FFFC0000
01FFE00000
01FFE00000
01FFE00000
01FFE00000
01FFE00000
01FFE00000
01FFE00000
01FFE00000
01FFE00000
01FFE00000
01FFE00000
01FFE00000
01FFE00000
01FFE00000
01FFE00000
01FFE00000
01FFE00000
01FFE00000
01FFE00000
01FFF00000
01FFE00000
01FFF00000
01FFF00000
03FFF00000
03FFF80000
03FFF80000
07FFFE0000
1FFFFFC000
FFFFFFF000
FFFFFFF800
FFFFFFF800
FFFFFFF800
FFFFFFF800
ENDCHAR
STARTCHAR 0067
ENCODING 103
SWIDTH 540 0
DWIDTH 48 0
BBX 43 64 3 -22
BITMAP
000020000000
001FFFFFFFE0
007FFFFFFFE0
01FFFFFFFFE0
03FFFFFFFFE0
0FFFC7FFFFE0
0FFF01FFFFE0
1FFE00FFF060
3FFE007FF800
3FFC007FF800
3FFC003FFC00
7FFC003FFC00
7FFC003FFC00
7FFC003FFE00
7FFC003FFE00
7FFC003FFE00
7FFC003FFE00
7FFC003FFE00
7FFC003FFE00
7FFC003FFC00
3FFE003FFC00
3FFE007FF800
1FFF007FF800
0FFF80FFF000
0FFFFFFFE000
07FFFFFFC000
01FFFFFF8000
01FFFFFE0000
03FFFFF00000
07F83A000000
0FF000000000
0FF000000000
1FF000000000
1FF000000000
3FFE00000000
3FFFFFFF8000
3FFFFFFFF800
3FFFFFFFFE00
3FFFFFFFFF00
1FFFFFFFFF80
1FFFFFFFFF80
1FFFFFFFFFC0
0FFFFFFFFFC0
07FFFFFFFFC0
07FFFFFFFFC0
1FFFFFFFFFE0
3FE003FFFFC0
7FE00007FFC0
7FC00001FFC0
FFC00001FFC0
FFC00001FFC0
FFC00001FF80
FFC00001FF80
FFC00001FF00
FFE00003FF00
FFE00007FE00
FFF0001FFC00
FFFC007FF800
7FFFFFFFF000
3FFFFFFFC000
1FFFFFFF8000
0FFFFFFE0000
03FFFFF00000
007FFF000000
ENDCHAR
STARTCHAR 0068
ENCODING 104
SWIDTH 641 0
DWIDTH 57 0
BBX 53 64 2 0
BITMAP
00004000000000
0003E000000000
007FE000000000
7FFFF000000000
7FFFF000000000
7FFFF000000000
FFFFF000000000
FFFFF000000000
3FFFF000000000
07FFF000000000
03FFF000000000
01FFF000000000
01FFF000000000
01FFF000000000
01FFF000000000
01FFF000000000
01FFF000000000
01FFF000000000
01FFF000000000
01FFF000000000
01FFF000000000
01FFF000000000
01FFF000000000
01FFF007FE0000
01FFF03FFF8000
01FFF07FFFE000
01FFF1FFFFF000
01FFF3FFFFF800
01FFF7FFFFFC00
01FFFFFFFFFC00
01FFFFFFFFFE00
01FFFF01FFFE00
01FFF0007FFE00
01FFF0003FFE00
01FFF0003FFF00
01FFF0001FFF00
01FFF0001FFF00
01FFF0001FFF00
01FFF0001FFF00
01FFF0001FFF00
01FFF0001FFF00
01FFF0001FFF00
01FFF0001FFF00
01FFF0001FFF00
01FFF0001FFF00
01FFF0001FFF00
01FFF0001FFF00
01FFF0001FFF00
01FFF0001FFF00
01FFF0001FFF00
01FFF0001FFF00
01FFF0001FFF00
01FFF0001FFF00
01FFF0001FFF00
01FFF0001FFF00
01FFF0001FFF00
03FFF0003FFF80
07FFF8007FFF80
0FFFFE00FFFFE0
7FFFFF83FFFFF8
7FFFFF83FFFFF8
7FFFFF83FFFFF8
FFFFFFC7FFFFF8
FFFFFFC7FFFFF8
ENDCHAR
STARTCHAR 0069
ENCODING 105
SWIDTH 348 0
DWIDTH 31 0
BBX 25 62 3 0
BITMAP
00080000
00FF8000
01FFC000
03FFE000
07FFE000
07FFF000
07FFF000
07FFF000
07FFF000
07FFE000
03FFE000
03FFC000
00FF0000
00000000
00000000
00000000
00000000
00000000
00000000
00000000
00000000
0003C000
003FE000
7FFFE000
7FFFE000
FFFFE000
FFFFE000
FFFFE000
FFFFE000
07FFE000
03FFE000
03FFE000
03FFE000
01FFE000
01FFE000
01FFE000
01FFE000
01FFE000
01FFE000
01FFE000
01FFE000
01FFE000
01FFE000
01FFE000
01FFE000
01FFE000
01FFE000
01FFE000
01FFE000
01FFE000
03FFE000
03FFE000
03FFF000
03FFF000
03FFF000
07FFF800
1FFFFE00
FFFFFF80
FFFFFF80
FFFFFF80
FFFFFF80
FFFFFF80
ENDCHAR
STARTCHAR 006A
ENCODING 106
SWIDTH 303 0
DWIDTH 27 0
BBX 21 84 1 -22
BITMAP
000400
003FC0
00FFF0
01FFF8
01FFF8
01FFF8
03FFF8
03FFF8
03FFF8
01FFF8
01FFF0
00FFE0
007FC0
000000
000000
000000
000000
000000
000000
000000
000020
0000F0
000FF8
1FFFF8
3FFFF8
3FFFF8
3FFFF8
3FFFF8
3FFFF8
03FFF8
01FFF8
00FFF8
00FFF8
00FFF8
00FFF8
00FFF8
00FFF8
00FFF8
00FFF8
00FFF8
00FFF8
00FFF8
00FFF8
00FFF8
00FFF8
00FFF8
00FFF8
00FFF8
00FFF8
00FFF8
00FFF8
00FFF8
00FFF8
00FFF8
00FFF8
00FFF8
00FFF8
00FFF8
00FFF8
00FFF8
00FFF8
00FFF8
00FFF0
00FFF0
00FFF0
00FFF0
00FFE0
00FFE0
01FFE0
01FFC0
01FF80
03FF80
03FF00
07FF00
0FFE00
0FFC00
1FF800
3FF000
7FE000
FFC000
FF8000
7F0000
7C0000
380000
ENDCHAR
STARTCHAR 006B
ENCODING 107
SWIDTH 618 0
DWIDTH 55 0
BBX 52 64 2 0
BITMAP
00004000000000
0003E000000000
007FE000000000
7FFFF000000000
7FFFF000000000
7FFFF000000000
FFFFF000000000
FFFFF000000000
1FFFF000000000
07FFF000000000
03FFF000000000
01FFF000000000
01FFF000000000
01FFF000000000
01FFF000000000
01FFF000000000
01FFF000000000
01FFF000000000
01FFF000000000
01FFF000000000
01FFF000000000
01FFF000000000
01FFF000000000
01FFF003FFFFC0
01FFF003FFFFC0
01FFF003FFFFC0
01FFF003FFFFC0
01FFF003FFFFC0
01FFF001FFFF80
01FFF0007FF800
01FFF0007FE000
01FFF000FF8000
01FFF001FF0000
01FFF003FC0000
01FFF007F80000
01FFF00FF00000
01FFF01FE00000
01FFF03FC00000
01FFF07F800000
01FFF0FF800000
01FFF1FF800000
01FFF3FFC00000
01FFF7FFE00000
01FFF7FFF00000
01FFF3FFF80000
01FFF1FFFC0000
01FFF1FFFC0000
01FFF0FFFE0000
01FFF07FFF0000
01FFF03FFF8000
01FFF01FFFC000
01FFF01FFFC000
01FFF00FFFE000
01FFF007FFF000
01FFF003FFF800
01FFF001FFFC00
03FFF001FFFE00
07FFF800FFFF00
1FFFFE007FFFE0
7FFFFF003FFFF0
7FFFFF801FFFF0
7FFFFF801FFFF0
7FFFFF800FFFF0
FFFFFF8007FFE0
ENDCHAR
STARTCHAR 006C
ENCODING 108
SWIDTH 337 0
DWIDTH 30 0
BBX 26 64 2 0
BITMAP
00004000
0003E000
007FE000
7FFFF000
7FFFF000
7FFFF000
FFFFF000
FFFFF000
3FFFF000
07FFF000
03FFF000
01FFF000
01FFF000
01FFF000
01FFF000
01FFF000
01FFF000
01FFF000
01FFF000
01FFF000
01FFF000
01FFF000
01FFF000
01FFF000
01FFF000
01FFF000
01FFF000
01FFF000
01FFF000
01FFF000
01FFF000
01FFF000
01FFF000
01FFF000
01FFF000
01FFF000
01FFF000
01FFF000
01FFF000
01FFF000
01FFF000
01FFF000
01FFF000
01FFF000
01FFF000
01FFF000
01FFF000
01FFF000
01FFF000
01FFF000
01FFF000
01FFF000
01FFF000
01FFF000
01FFF000
01FFF000
03FFF000
07FFF800
1FFFFE00
7FFFFF80
7FFFFFC0
7FFFFFC0
7FFFFFC0
FFFFFFC0
ENDCHAR
STARTCHAR 006D
ENCODING 109
SWIDTH 956 0
DWIDTH 85 0
BBX 80 41 3 1
BITMAP
0003C00FFC00003F8000
003FE03FFF8001FFF000
7FFFE0FFFFC007FFFC00
7FFFE1FFFFE00FFFFE00
FFFFE7FFFFF03FFFFF00
FFFFEFFFFFF87FFFFF80
FFFFFFFFFFF8FFFFFF80
FFFFFFFFFFFFFFFFFFC0
0FFFFC01FFFFF01FFFC0
03FFF000FFFF800FFFC0
03FFE0007FFE0007FFC0
03FFE0003FFE0007FFE0
03FFE0003FFE0003FFE0
01FFE0003FFE0003FFE0
01FFE0003FFE0003FFE0
01FFE0003FFE0003FFE0
01FFE0003FFE0003FFE0
01FFE0001FFE0003FFE0
01FFE0001FFE0003FFE0
01FFE0001FFE0003FFE0
01FFE0001FFE0003FFE0
01FFE0001FFE0003FFE0
01FFE0001FFE0003FFE0
01FFE0001FFE0003FFE0
01FFE0001FFE0003FFE0
01FFE0001FFE0003FFE0
01FFE0001FFE0003FFE0
01FFE0001FFE0003FFE0
01FFE0003FFE0003FFE0
01FFE0003FFE0003FFE0
01FFE0003FFE0003FFE0
03FFE0003FFE0003FFE0
03FFF0003FFE0003FFE0
03FFF0007FFF0007FFF0
07FFF8007FFF800FFFF0
1FFFFE01FFFFC01FFFFC
7FFFFF87FFFFF07FFFFF
FFFFFF87FFFFF87FFFFF
FFFFFF87FFFFF8FFFFFF
FFFFFF87FFFFF8FFFFFF
FFFFFF87FFFFF8FFFFFF
ENDCHAR
STARTCHAR 006E
ENCODING 110
SWIDTH 652 0
DWIDTH 58 0
BBX 53 41 3 1
BITMAP
0003C007FC0000
003FE03FFF8000
7FFFE0FFFFC000
7FFFE1FFFFF000
FFFFE7FFFFF000
FFFFEFFFFFF800
FFFFFFFFFFFC00
FFFFFFFFFFFC00
0FFFFE01FFFE00
03FFE0007FFE00
03FFE0007FFE00
03FFE0003FFE00
03FFE0003FFE00
01FFE0003FFE00
01FFE0001FFF00
01FFE0001FFF00
01FFE0001FFF00
01FFE0001FFF00
01FFE0001FFF00
01FFE0001FFF00
01FFE0001FFF00
01FFE0001FFF00
01FFE0001FFF00
01FFE0001FFE00
01FFE0001FFE00
01FFE0001FFE00
01FFE0001FFE00
01FFE0001FFE00
01FFE0001FFE00
01FFE0001FFE00
01FFE0001FFF00
03FFE0003FFF00
03FFF0003FFF00
03FFF0003FFF00
07FFF8007FFF80
1FFFFC00FFFFC0
7FFFFF87FFFFF0
FFFFFF87FFFFF0
FFFFFF87FFFFF8
FFFFFF87FFFFF8
FFFFFF87FFFFF8
ENDCHAR
STARTCHAR 006F
ENCODING 111
SWIDTH 562 0
DWIDTH 50 0
BBX 45 43 3 -1
BITMAP
000002000000
0001FFFC0000
000FFFFF8000
003FFFFFE000
007FFFFFF800
01FFFFFFFC00
03FFE0FFFE00
07FF803FFF00
0FFF001FFF80
0FFE000FFFC0
1FFE0007FFC0
3FFC0007FFE0
3FFC0003FFE0
3FFC0003FFF0
7FFC0001FFF0
7FF80001FFF0
7FF80001FFF0
FFF80001FFF0
FFF80001FFF8
FFF80001FFF8
FFF80000FFF8
FFF80000FFF8
FFF80000FFF8
FFF80000FFF8
FFF80000FFF8
FFFC0000FFF0
FFFC0001FFF0
7FFC0001FFF0
7FFC0001FFF0
7FFE0001FFE0
7FFE0001FFE0
3FFE0003FFE0
3FFF0003FFC0
1FFF8007FF80
0FFF8007FF80
0FFFC00FFF00
07FFF03FFE00
03FFFFFFFC00
01FFFFFFF800
007FFFFFE000
001FFFFF8000
0007FFFE0000
00003FC00000
ENDCHAR
STARTCHAR 0070
ENCODING 112
SWIDTH 630 0
DWIDTH 56 0
BBX 50 64 3 -22
BITMAP
00000000800000
0003C01FFE0000
003FE07FFFC000
7FFFE0FFFFE000
7FFFE3FFFFF800
FFFFE7FFFFFC00
FFFFEFFFFFFE00
FFFFFFFFFFFE00
FFFFFF00FFFF00
0FFFF8007FFF00
03FFE0003FFF80
03FFE0001FFF80
03FFE0001FFF80
03FFE0000FFFC0
01FFE0000FFFC0
01FFE0000FFFC0
01FFE00007FFC0
01FFE00007FFC0
01FFE00007FFC0
01FFE00007FFC0
01FFE00007FFC0
01FFE00007FFC0
01FFE00007FFC0
01FFE00007FFC0
01FFE00007FFC0
01FFE00007FF80
01FFE00007FF80
01FFE0000FFF80
01FFE0000FFF00
01FFE0000FFF00
01FFE0001FFE00
01FFE0001FFE00
01FFE0001FFC00
01FFE0003FFC00
01FFE0007FF800
01FFF000FFF000
01FFFC01FFE000
01FFFFBFFFC000
01FFFFFFFF8000
01FFFFFFFE0000
01FFFFFFF80000
01FFFFFFC00000
01FFE3F8000000
01FFE000000000
01FFE000000000
01FFE000000000
01FFE000000000
01FFE000000000
01FFE000000000
01FFE000000000
01FFE000000000
01FFE000000000
01FFF000000000
03FFF000000000
03FFF000000000
03FFF800000000
07FFFC00000000
0FFFFF00000000
7FFFFFF0000000
FFFFFFF0000000
FFFFFFF8000000
FFFFFFF8000000
FFFFFFF8000000
FFFFFFF8000000
ENDCHAR
STARTCHAR 0071
ENCODING 113
SWIDTH 596 0
DWIDTH 53 0
BBX 50 64 3 -22
BITMAP
00000180000000
0000FFFFC00000
0003FFFFF80000
001FFFFFFF0000
003FFFFFFFC000
00FFFFFFFFF000
01FFF80FFFF800
03FFE007FFF800
07FF8003FFF800
0FFF8001FFF000
0FFF0001FFF000
1FFE0001FFF000
1FFE0001FFF000
3FFC0001FFF000
3FFC0001FFF000
7FFC0001FFF000
7FFC0001FFE000
7FF80001FFE000
7FF80001FFE000
FFF80001FFE000
FFF80001FFE000
FFF80001FFE000
FFF80001FFE000
FFF80001FFE000
FFF80001FFE000
FFF80001FFE000
FFF80001FFE000
FFFC0001FFE000
7FFC0001FFE000
7FFC0001FFE000
7FFE0001FFE000
7FFE0001FFE000
3FFF0001FFE000
3FFF8001FFE000
1FFFC007FFE000
1FFFFFFFFFE000
0FFFFFFFFFE000
07FFFFFDFFE000
03FFFFF9FFE000
01FFFFE1FFE000
007FFF81FFE000
000FFC01FFE000
00000001FFE000
00000001FFE000
00000001FFE000
00000001FFE000
00000001FFE000
00000001FFE000
00000001FFE000
00000001FFE000
00000001FFE000
00000001FFE000
00000001FFF000
00000003FFF000
00000003FFF000
00000003FFF000
00000007FFF800
0000001FFFFC00
000003FFFFFF80
000003FFFFFF80
000003FFFFFFC0
000003FFFFFFC0
000003FFFFFFC0
000003FFFFFFC0
ENDCHAR
STARTCHAR 0072
ENCODING 114
SWIDTH 472 0
DWIDTH 42 0
BBX 38 41 3 1
BITMAP
0003C00FC0
003FE03FF0
7FFFE0FFFC
7FFFE1FFF8
FFFFE3FFF8
FFFFC7FFF8
FFFFC7FFF8
FFFFCFFFF8
0FFFDFFFF8
03FFDFFFF8
03FFBE0FF8
03FFF807F8
03FFF007F8
01FFE007F8
01FFE007F8
01FFE007F0
01FFE00000
01FFE00000
01FFE00000
01FFE00000
01FFE00000
01FFE00000
01FFE00000
01FFE00000
01FFE00000
01FFE00000
01FFE00000
01FFE00000
01FFE00000
01FFF00000
03FFF00000
03FFF00000
03FFF80000
03FFF80000
07FFFE0000
1FFFFF8000
FFFFFFF000
FFFFFFF800
FFFFFFF800
FFFFFFF800
FFFFFFF800
ENDCHAR
STARTCHAR 0073
ENCODING 115
SWIDTH 461 0
DWIDTH 41 0
BBX 35 43 3 -1
BITMAP
0000E00000
003FFFE000
01FFFFFC00
07FFFFFF00
0FFFFFFF00
1FFFFFFE00
3FFC0FFE00
3FF803FE00
7FF001FF00
7FF000FF00
7FF000FF00
7FF0007F00
7FF8007F00
7FFC007E00
7FFF000000
7FFFC00000
7FFFF00000
3FFFFE0000
3FFFFF8000
1FFFFFE000
0FFFFFF800
07FFFFFC00
01FFFFFF00
007FFFFF80
001FFFFF80
0007FFFFC0
0000FFFFC0
0E003FFFE0
7F000FFFE0
7F0007FFE0
7F0003FFE0
7F0003FFE0
7F8003FFE0
7F8003FFC0
7FC003FFC0
7FE007FFC0
7FF81FFF80
7FFFFFFF00
FFFFFFFE00
FFFFFFFC00
3FFFFFF000
07FFFFC000
001FF80000
ENDCHAR
STARTCHAR 0074
ENCODING 116
SWIDTH 371 0
DWIDTH 33 0
BBX 31 56 1 -1
BITMAP
0000C000
0001E000
0007E000
003FE000
01FFE000
01FFE000
01FFE000
01FFE000
01FFE000
01FFE000
01FFE000
01FFE000
01FFE000
01FFE000
01FFE000
7FFFFFFC
7FFFFFFC
FFFFFFFC
FFFFFFFC
FFFFFFFC
FFFFFFF8
03FFFC00
01FFE000
01FFE000
01FFE000
01FFE000
01FFE000
01FFE000
01FFE000
01FFE000
01FFE000
01FFE000
01FFE000
01FFE000
01FFE000
01FFE000
01FFE000
01FFE000
01FFE000
01FFE000
01FFE000
01FFE000
01FFE000
01FFE000
01FFF000
01FFF000
01FFF000
01FFF000
01FFF80C
00FFFFFC
00FFFFFC
007FFFFE
003FFFFE
001FFFF8
000FFFE0
0000FE00
ENDCHAR
STARTCHAR 0075
ENCODING 117
SWIDTH 607 0
DWIDTH 54 0
BBX 51 42 1 0
BITMAP
0003C00000F800
003FC0003FF800
7FFFE01FFFF800
7FFFE01FFFFC00
7FFFE01FFFFC00
FFFFE01FFFFC00
FFFFE01FFFFC00
FFFFE007FFFC00
0FFFE001FFFC00
07FFE000FFFC00
03FFE0007FFC00
03FFE0007FFC00
03FFE0007FFC00
03FFE0007FFC00
03FFE0007FFC00
03FFE0007FFC00
03FFE0007FFC00
03FFE0007FFC00
03FFE0007FFC00
03FFE0007FFC00
03FFE0007FFC00
03FFE0007FFC00
03FFE0007FFC00
03FFE0007FFC00
03FFE0007FFC00
03FFE0007FFC00
03FFE0007FFC00
03FFE0007FFC00
03FFE0007FFC00
03FFE0007FFC00
03FFF0007FFC00
03FFF0007FFC00
01FFF8007FFE00
01FFFC007FFFE0
01FFFF80FFFFE0
01FFFFFFFFFFE0
00FFFFFFFFFFE0
007FFFFF7FFFE0
007FFFFC7FFFC0
001FFFF07FF000
0007FF807C0000
00002000400000
ENDCHAR
STARTCHAR 0076
ENCODING 118
SWIDTH 551 0
DWIDTH 49 0
BBX 47 42 1 -1
BITMAP
FFFFFF83FFFE
FFFFFF83FFFE
FFFFFF83FFFE
FFFFFF03FFFE
7FFFFF01FFFE
7FFFFE01FFFC
1FFFF0003FF0
0FFFF0001FE0
07FFF0001FC0
03FFF0001FC0
03FFF0001F80
01FFF8003F80
01FFF8003F00
00FFFC003F00
00FFFC007E00
007FFE007E00
007FFE00FC00
003FFE00FC00
003FFF00F800
003FFF01F800
001FFF81F800
001FFF83F000
000FFF83F000
000FFFC3E000
0007FFC7E000
0007FFE7C000
0003FFEFC000
0003FFEFC000
0001FFFF8000
0001FFFF8000
0000FFFF0000
0000FFFF0000
0000FFFE0000
00007FFE0000
00007FFC0000
00003FFC0000
00003FFC0000
00001FF80000
00001FF80000
00001FF00000
00000FF00000
00000F800000
ENDCHAR
STARTCHAR 0077
ENCODING 119
SWIDTH 776 0
DWIDTH 69 0
BBX 68 42 1 -1
BITMAP
FFFFFF001F801FFFF0
FFFFFE001F801FFFF0
FFFFFE003FC01FFFF0
FFFFFE003FC01FFFE0
7FFFFE007FC00FFFE0
7FFFFE007FE00FFFE0
1FFFE0007FE001FF80
0FFFE000FFF000FF00
07FFE000FFF000FE00
03FFE001FFF800FE00
03FFF001FFF800FC00
03FFF001FFF800FC00
01FFF003FFFC00F800
01FFF803FFFC00F800
01FFF807FFFE01F800
00FFF807FFFE01F000
00FFFC07FFFE01F000
007FFC0FDFFF03F000
007FFC0FDFFF03E000
007FFE1FCFFF83E000
003FFE1F8FFF87E000
003FFE1F8FFF87C000
003FFE3F07FFC7C000
001FFF3F07FFC7C000
001FFF7E03FFCF8000
001FFF7E03FFEF8000
000FFF7E03FFEF8000
000FFFFC01FFFF0000
0007FFFC01FFFF0000
0007FFF800FFFF0000
0007FFF800FFFE0000
0003FFF000FFFE0000
0003FFF0007FFE0000
0003FFE0007FFC0000
0001FFE0003FFC0000
0001FFE0003FFC0000
0001FFC0001FF80000
0000FFC0001FF80000
0000FF80001FF80000
0000FF80000FF00000
00007F00000FF00000
00007E000007C00000
ENDCHAR
STARTCHAR 0078
ENCODING 120
SWIDTH 562 0
DWIDTH 50 0
BBX 46 41 2 0
BITMAP
7FFFFF87FFF8
7FFFFF87FFF8
7FFFFF87FFF8
7FFFFF87FFF8
7FFFFF87FFF0
3FFFFF03FFF0
07FFFC00FF80
03FFFC00FF00
01FFFC01FE00
00FFFE01FC00
007FFE03FC00
007FFF03F800
003FFF87F000
001FFFCFF000
001FFFCFE000
000FFFFFC000
0007FFFF8000
0003FFFF8000
0003FFFF0000
0001FFFE0000
0001FFFF0000
0001FFFF8000
0003FFFF8000
0007FFFFC000
0007FFFFE000
000FEFFFE000
001FE7FFF000
001FC7FFF800
003F83FFF800
007F81FFFC00
00FF01FFFE00
00FF00FFFE00
01FE00FFFF00
03FE007FFF80
07FE007FFFC0
1FFE00FFFFF0
7FFF83FFFFF8
7FFF83FFFFFC
7FFF83FFFFFC
FFFF87FFFFFC
FFFF87FFFFFC
ENDCHAR
STARTCHAR 0079
ENCODING 121
SWIDTH 551 0
DWIDTH 49 0
BBX 48 63 1 -22
BITMAP
FFFFFFC3FFFF
FFFFFFC3FFFF
FFFFFF83FFFF
FFFFFF83FFFE
FFFFFF81FFFE
7FFFFF81FFFE
1FFFF8003FF8
0FFFF0001FE0
07FFF0001FE0
03FFF0001FC0
03FFF8001FC0
01FFF8001F80
01FFF8001F80
00FFFC003F00
00FFFC003F00
007FFE007E00
007FFE007E00
003FFF007E00
003FFF00FC00
001FFF80FC00
001FFF81F800
000FFF81F800
000FFFC1F800
0007FFC3F000
0007FFE3F000
0003FFE7E000
0003FFE7E000
0001FFF7C000
0001FFFFC000
0001FFFFC000
0000FFFF8000
0000FFFF8000
00007FFF0000
00007FFF0000
00003FFE0000
00003FFE0000
00001FFE0000
00001FFC0000
00001FFC0000
00000FF80000
00000FF80000
000007F80000
000007F00000
000003F00000
000003E00000
000007E00000
000007C00000
00000FC00000
00001F800000
00001F800000
00003F800000
0000FF000000
1F87FF000000
1FFFFE000000
3FFFFC000000
3FFFFC000000
3FFFF8000000
3FFFF8000000
3FFFF0000000
3FFFE0000000
1FFFC0000000
07FF80000000
01FE00000000
ENDCHAR
STARTCHAR 007A
ENCODING 122
SWIDTH 506 0
DWIDTH 45 0
BBX 38 41 4 0
BITMAP
7FFFFFFFF0
7FFFFFFFF0
7FFFFFFFF8
7FFFFFFFF8
7FFFFFFFF8
7FFFFFFFF0
7FE007FFF0
7FC00FFFE0
7FC00FFFE0
7F801FFFC0
7F803FFF80
7F003FFF80
7F007FFF00
7F00FFFE00
0700FFFE00
0001FFFC00
0003FFF800
0007FFF000
0007FFF000
000FFFE000
001FFFC000
001FFFC000
003FFF8000
007FFF0000
00FFFF0000
00FFFE0000
01FFFC01FC
03FFF801FC
03FFF801FC
07FFF003FC
0FFFE003FC
1FFFE003FC
1FFFC003FC
3FFF8007FC
7FFF000FFC
FFFF00FFFC
FFFFFFFFFC
FFFFFFFFFC
FFFFFFFFFC
7FFFFFFFFC
7FFFFFFFF8
ENDCHAR
STARTCHAR 007B
ENCODING 123
SWIDTH 371 0
DWIDTH 33 0
BBX 27 91 3 -25
BITMAP
00000780
00001FC0
00007FC0
0001FFC0
0003FF80
0007FE00
000FFC00
001FF800
003FF000
003FE000
007FE000
007FE000
007FE000
007FE000
00FFE000
00FFE000
00FFE000
00FFE000
00FFE000
00FFE000
00FFE000
00FFE000
007FE000
007FF000
007FF000
007FF000
007FF000
007FF000
007FF000
007FF800
007FF800
007FF800
007FF800
007FF800
007FF000
00FFF000
00FFF000
01FFF000
01FFE000
03FFC000
0FFF8000
3FFF0000
FFFC0000
FFF00000
FFC00000
FFF80000
FFFE0000
1FFF8000
07FFC000
03FFE000
01FFE000
01FFF000
00FFF000
00FFF000
00FFF800
007FF800
007FF800
007FF800
007FF800
007FF800
007FF800
007FF000
007FF000
007FF000
007FF000
007FF000
007FF000
00FFF000
00FFE000
00FFE000
00FFE000
00FFE000
00FFE000
00FFE000
00FFE000
007FE000
007FE000
007FE000
007FE000
003FF000
003FF000
001FF800
001FF800
000FFC00
0007FF00
0003FFC0
0001FFE0
00007FE0
00001FE0
000003C0
00000040
ENDCHAR
STARTCHAR 007C
ENCODING 124
SWIDTH 180 0
DWIDTH 16 0
BBX 7 85 5 -22
BITMAP
7E
FE
FE
FE
FE
FE
FE
FE
FE
FE
FE
FE
FE
FC
FC
FC
FC
FC
FC
FC
FC
FC
FC
FC
FC
FC
FC
FC
FC
FC
FC
FC
FC
FC
FC
FC
FC
FC
FC
FC
FC
FC
FC
FC
FC
FC
FC
FC
FC
FC
FC
FC
FC
FC
FC
FC
FC
FC
FC
FC
FC
FC
FC
FC
FC
FC
FC
FC
FC
FC
FE
FE
FE
FE
FE
FE
FE
FE
FE
FE
FE
FE
FE
FE
F0
ENDCHAR
STARTCHAR 007D
ENCODING 125
SWIDTH 371 0
DWIDTH 33 0
BBX 26 90 4 -25
BITMAP
78000000
7F000000
FFC00000
FFE00000
3FF80000
0FFC0000
07FE0000
03FF0000
01FF0000
01FF8000
01FF8000
00FFC000
00FFC000
00FFC000
00FFC000
00FFC000
00FFC000
00FFC000
00FFC000
01FFC000
01FFC000
01FFC000
01FFC000
01FFC000
01FFC000
03FFC000
03FFC000
03FF8000
03FF8000
03FF8000
03FF8000
03FF8000
03FFC000
03FFC000
03FFC000
03FFC000
01FFE000
01FFE000
01FFF000
00FFF800
007FFC00
003FFF00
000FFFC0
0001FFC0
0000FFC0
0007FFC0
001FFFC0
003FFF00
007FFC00
00FFF800
01FFF000
01FFE000
03FFE000
03FFC000
03FFC000
03FFC000
03FFC000
03FFC000
03FFC000
03FFC000
03FFC000
03FFC000
03FFC000
03FFC000
03FFC000
01FFC000
01FFC000
01FFC000
01FFC000
01FFC000
01FFC000
01FFC000
01FFC000
00FFC000
00FFC000
00FFC000
01FFC000
01FF8000
01FF8000
01FF8000
01FF0000
03FF0000
07FE0000
0FFE0000
1FFC0000
FFF80000
FFE00000
FFC00000
FF000000
F8000000
ENDCHAR
STARTCHAR 007E
ENCODING 126
SWIDTH 540 0
DWIDTH 48 0
BBX 41 14 4 16
BITMAP
000E00000000
00FFC0000400
01FFF0000F00
07FFFC001F80
0FFFFF003F80
1FFFFFC07F00
1FFFFFFFFF00
3FFFFFFFFE00
7F80FFFFFC00
FE003FFFF800
FC000FFFF000
F80003FFE000
700000FFC000
2000001E0000
ENDCHAR
STARTCHAR 00A0
ENCODING 160
SWIDTH 191 0
DWIDTH 17 0
BBX 0 0 0 0
BITMAP
ENDCHAR
STARTCHAR 00A1
ENCODING 161
SWIDTH 405 0
DWIDTH 36 0
BBX 15 65 11 -23
BITMAP
0100
1FE0
3FF8
7FF8
FFFC
FFFC
FFFC
FFFC
FFFC
FFFC
FFFC
7FF8
3FF0
1FE0
0000
0000
0000
0000
0000
0000
0000
0000
07C0
0FE0
0FE0
0FE0
0FE0
1FE0
1FE0
1FE0
1FE0
1FE0
1FE0
1FE0
1FE0
1FF0
1FF0
1FF0
1FF0
3FF0
3FF0
3FF0
3FF0
3FF0
3FF0
3FF8
3FF8
3FF8
3FF8
3FF8
7FF8
7FF8
7FF8
7FFC
7FFC
7FFC
7FFC
7FFC
7FFC
FFFC
FFFE
FFFC
FFC0
7C00
2000
ENDCHAR
STARTCHAR 00A2
ENCODING 162
SWIDTH 461 0
DWIDTH 41 0
BBX 36 66 3 -12
BITMAP
00003E0000
00003F0000
00003F0000
00003F0000
00003F0000
00003F0000
00003F0000
00003F0000
00003F0000
00003F0000
00003F0000
00003F0000
00003F0000
0003FFFC00
001FFFFF00
007FFFFFC0
00FFFFFFE0
01FFFFFFE0
03FFFFFFE0
07FF3F7FE0
0FFF3F3FE0
0FFE3F3FE0
1FFC3F1FE0
3FFC3F1FE0
3FFC3F1FE0
3FF83F1FE0
7FF83F0FE0
7FF83F0FC0
7FF83F0000
FFF83F0000
FFF83F0000
FFF83F0000
FFF83F0000
FFF83F0000
FFF83F0000
FFF83F0000
FFF83F0000
FFF83F0000
FFFC3F0000
7FFC3F0000
7FFC3F0000
7FFE3F0000
7FFE3F0000
3FFF3F0000
3FFFBF0000
1FFFFF0060
1FFFFF00F0
0FFFFF07F0
07FFFFFFF0
03FFFFFFF0
01FFFFFFE0
007FFFFF80
001FFFFF00
0007FFFC00
00007FC000
00003F0000
00003F0000
00003F0000
00003F0000
00003F0000
00003F0000
00003F0000
00003F0000
00003F0000
00003F0000
00003F0000
ENDCHAR
STARTCHAR 00A3
ENCODING 163
SWIDTH 573 0
DWIDTH 51 0
BBX 45 62 4 -1
BITMAP
00001FFE0000
0001FFFFF000
000FFFFFFE00
001FFFFFFF00
007FFFFFFF00
00FFFFFFFF00
01FFF01FFF00
03FFE00FFF00
03FFC007FF00
07FF8003FF00
07FF8003FF00
0FFF8001FF00
0FFF8001FF00
0FFF8001FF00
0FFF8001FF00
0FFF8001FF00
0FFF8000F000
0FFF80000000
0FFFC0000000
0FFFC0000000
0FFFE0000000
0FFFE0000000
0FFFF0000000
0FFFF0000000
07FFF8000000
07FFFC000000
03FFFC000000
03FFFC000000
03FFFE000000
01FFFE000000
7FFFFFFF8000
7FFFFFFF8000
7FFFFFFF8000
7FFFFFFF0000
7FFFFFFF0000
007FFE000000
007FFC000000
007FFC000000
003FFC000000
003FF8000000
003FF8000000
003FF0000000
007FF0000000
007FE0000000
007FC0000000
007FC0E00000
007F87FE0180
00FF1FFF83E0
00FE7FFFFFF8
01FDFFFFFFF8
03FFFFFFFFF0
03FFFFFFFFE0
07FFFFFFFFC0
0FFFFFFFFFC0
1FFFFFFFFF80
3FFFFFFFFF00
7FFFFFFFFF00
FFC003FFFE00
FF0000FFFE00
7C00001FFC00
38000007FC00
100000003800
ENDCHAR
STARTCHAR 00A4
ENCODING 164
SWIDTH 551 0
DWIDTH 49 0
BBX 39 36 5 4
BITMAP
1800000070
7C001800F8
FE03FFC1FC
7F1FFFF3F8
3FBFFFFFF0
1FFFFFFFE0
0FFF03FFC0
07FC00FF80
03F8007F80
07F0003FC0
07E0001FC0
0FE0000FE0
0FC0000FE0
0FC00007E0
0FC00007E0
1FC00007E0
1FC00007F0
1FC00007F0
1FC00007E0
0FC00007E0
0FC00007E0
0FE00007E0
0FE00007E0
07F0000FC0
07F8000FC0
03FC001F80
01FE003F80
01FF80FF80
03FFFFFFC0
07FFFFFFE0
0FFFFFF7F0
1FCFFFE3F8
3F81FF01FC
7F000000FE
3E00000078
0400000000
ENDCHAR
STARTCHAR 00A5
ENCODING 165
SWIDTH 630 0
DWIDTH 56 0
BBX 53 60 2 0
BITMAP
FFFFFF800FFFF8
FFFFFF800FFFF8
FFFFFF800FFFF0
FFFFFF800FFFF0
FFFFFF800FFFF0
3FFFFC0003FFE0
0FFFF80000FF80
07FFF80000FF00
07FFF80000FE00
03FFFC0000FE00
03FFFC0000FC00
01FFFC0001FC00
01FFFE0001F800
00FFFE0001F800
00FFFF0003F000
007FFF0003F000
007FFF8007E000
003FFF8007E000
003FFF800FC000
001FFFC00FC000
001FFFC01F8000
000FFFE01F8000
000FFFE03F0000
0007FFF03F0000
0007FFF03E0000
0003FFF87E0000
01FFFFF87FFE00
01FFFFF8FFFE00
01FFFFFCFFFC00
01FFFFFDFFFC00
01FFFFFFFFFC00
00007FFFF00000
00007FFFF00000
00003FFFE00000
00003FFFE00000
00001FFFC00000
00001FFFC00000
00000FFF800000
01FFFFFFFFFC00
01FFFFFFFFFC00
01FFFFFFFFFC00
01FFFFFFFFFC00
01FFFFFFFFFC00
00000FFF800000
00000FFF800000
00000FFF800000
00000FFF800000
00000FFF800000
00000FFF800000
00000FFF800000
00001FFFC00000
00001FFFC00000
00001FFFC00000
00003FFFF00000
0003FFFFFC0000
001FFFFFFF8000
001FFFFFFF8000
001FFFFFFFC000
001FFFFFFFC000
001FFFFFFFC000
ENDCHAR
STARTCHAR 00A6
ENCODING 166
SWIDTH 180 0
DWIDTH 16 0
BBX 6 85 5 -21
BITMAP
7C
FC
FC
FC
FC
FC
FC
FC
FC
FC
FC
FC
FC
FC
FC
FC
FC
FC
FC
FC
FC
FC
FC
FC
FC
FC
FC
FC
FC
FC
FC
FC
FC
FC
F0
00
00
00
00
00
00
00
00
00
00
00
00
1C
FC
FC
FC
FC
FC
FC
FC
FC
FC
FC
FC
FC
FC
FC
FC
FC
FC
FC
FC
FC
FC
FC
FC
FC
FC
FC
FC
FC
FC
FC
FC
FC
FC
FC
FC
FC
F0
ENDCHAR
STARTCHAR 00A7
ENCODING 167
SWIDTH 562 0
DWIDTH 50 0
BBX 42 85 4 -22
BITMAP
0003FFF80000
000FFFFF0000
003FFFFFC000
007FFFFFC000
00FFFFFFC000
01FFC1FFC000
03FF00FFC000
03FE007FC000
07FC003FC000
07FC001FC000
07FC001FC000
07FC001FC000
07FC000FC000
07FC000FC000
07FE00080000
07FF00000000
07FF80000000
07FFC0000000
07FFF0000000
07FFF8000000
03FFFE000000
03FFFF800000
01FFFFF00000
01FFFFFC0000
00FFFFFE0000
007FFFFF8000
003FFFFFC000
001FFFFFF000
007FFFFFF800
01FFFFFFFC00
03FFFFFFFE00
07FFFFFFFE00
0FFC3FFFFF00
1FF00FFFFF00
3FE003FFFF80
3FE000FFFF80
7FC0007FFF80
7FC0001FFF80
FFC0000FFF80
FFC00007FFC0
FFC00003FFC0
FFE00001FFC0
FFE00001FF80
FFE00001FF80
FFF00001FF80
FFF80001FF80
FFFC0001FF80
FFFF0001FF00
7FFF8003FF00
7FFFE003FE00
3FFFF80FFC00
3FFFFE1FF800
1FFFFFFFF000
1FFFFFFFE000
0FFFFFFFC000
07FFFFFF0000
03FFFFFC0000
01FFFFFE0000
007FFFFF0000
003FFFFF8000
000FFFFFC000
0003FFFFE000
0000FFFFE000
00003FFFF000
00000FFFF000
000007FFF000
000001FFF000
000000FFF000
0010007FF800
03F0003FF800
03F8001FF800
03F8001FF800
03F8001FF000
01F8001FF000
01FC001FF000
01FC001FF000
01FE003FE000
01FF003FE000
01FFC0FFC000
03FFFFFF8000
03FFFFFF0000
01FFFFFE0000
007FFFFC0000
001FFFE00000
000020000000
ENDCHAR
STARTCHAR 00A8
ENCODING 168
SWIDTH 292 0
DWIDTH 26 0
BBX 34 13 -4 46
BITMAP
0300001000
1FE001FE00
3FF803FF80
7FF807FF80
7FFC07FFC0
7FFC0FFFC0
FFFC0FFFC0
FFFC07FFC0
7FFC07FFC0
7FF807FFC0
3FF803FF80
1FF001FF00
07C0007C00
ENDCHAR
STARTCHAR 00A9
ENCODING 169
SWIDTH 798 0
DWIDTH 71 0
BBX 61 61 5 -10
BITMAP
0000007FF0000000
000007FFFF800000
00001FFFFFE00000
0000FFFFFFF80000
0001FFFFFFFE0000
0007FF8007FF8000
000FFC0000FFC000
001FF000003FE000
003FC000000FF000
007F00000003F800
00FE00000001FC00
01FC003FFC00FE00
03F801FFFF807F00
07F007FFFFE03F00
07E00FFFFFF01F80
0FC01FFFFFF00FC0
0F803FF03FF007C0
1F807FE00FF007E0
1F00FFC007F003E0
3F01FF8007F003E0
3E01FF8003F001F0
3E03FF8003F001F0
7E03FF0003F001F0
7C03FF0001F000F8
7C07FF0001E000F8
7C07FF00000000F8
7C07FF00000000F8
F807FF00000000F8
F807FF00000000F8
F807FF0000000078
F807FF0000000078
F807FF0000000078
F807FF0000000078
F807FF00000000F8
7C07FF00000000F8
7C07FF00000000F8
7C07FF80000000F8
7C03FF80000000F8
7E03FF80000001F0
3E03FFC0000001F0
3E01FFC0000001F0
3F01FFE0002003E0
1F00FFF0007003E0
1F80FFF801F807E0
1F807FFF0FF807C0
0FC03FFFFFF00FC0
07E01FFFFFE01F80
07F00FFFFF803F00
03F003FFFF007F00
01FC00FFF800FE00
01FE00020001FC00
00FF00000003F800
007FC000000FF000
003FE000003FE000
000FFC0000FFC000
0007FF8007FF8000
0003FFFFFFFE0000
0000FFFFFFFC0000
00003FFFFFF00000
000007FFFF800000
0000007FF8000000
ENDCHAR
STARTCHAR 00AA
ENCODING 170
SWIDTH 427 0
DWIDTH 38 0
BBX 31 32 4 32
BITMAP
003FE000
03FFFC00
0FFFFF00
3FFFFF80
3FE3FF80
3FC0FFC0
3FC0FFC0
3F807FE0
3F807FE0
3F807FE0
3F007FE0
07007FE0
00007FE0
001FFFE0
00FFFFE0
03FFFFE0
0FFF7FE0
1FF87FE0
3FE07FE0
7FC07FE0
FFC07FE0
FFC07FE0
FFC0FFE0
FFC0FFF0
FFC1FFF0
FFE3FFFE
FFFFFFFE
FFFFBFFE
7FFFBFFE
7FFF3FFE
3FFC3F80
07F01C00
ENDCHAR
STARTCHAR 00AB
ENCODING 171
SWIDTH 506 0
DWIDTH 45 0
BBX 35 31 5 6
BITMAP
0007800000
000FE00780
001FC00FE0
003FC01FC0
007F803F80
00FF007F80
01FE00FF00
03FC01FE00
07FC03FE00
0FF807FC00
1FF00FFC00
3FE01FF800
7FE01FF000
7FC03FF000
7FE03FF000
FFE03FF000
FFF03FF800
7FF03FF800
3FF81FFC00
1FFC0FFC00
0FFC07FE00
07FE03FF00
03FE01FF00
01FF00FF80
00FF807F80
007F803FC0
003FC01FC0
001FC00FC0
000F800F80
0007000600
0002000000
ENDCHAR
STARTCHAR 00AC
ENCODING 172
SWIDTH 540 0
DWIDTH 48 0
BBX 40 22 4 10
BITMAP
7FFFFFFFFF
7FFFFFFFFF
7FFFFFFFFF
7FFFFFFFFF
7FFFFFFFFF
FFFFFFFFFF
000000001F
000000001F
000000001F
000000001F
000000001F
000000001F
000000001F
000000001F
000000001F
000000001F
000000001F
000000001F
000000001F
000000001F
000000001F
000000001E
ENDCHAR
STARTCHAR 00AD
ENCODING 173
SWIDTH 416 0
DWIDTH 37 0
BBX 27 8 5 19
BITMAP
3FFFFFE0
7FFFFFE0
7FFFFFE0
7FFFFFE0
7FFFFFE0
FFFFFFC0
FFFFFFC0
FFFFFFC0
ENDCHAR
STARTCHAR 00AE
ENCODING 174
SWIDTH 528 0
DWIDTH 47 0
BBX 37 36 5 34
BITMAP
0007FF8000
003FFFE000
007FFFF800
01FFFFFC00
03FC01FE00
07F0003F00
0FC0001F80
1F80000FC0
1F002007E0
3E07FF03E0
3E07FF81F0
7C07CFC1F0
7C0787C0F0
780783C0F8
780783C0F8
F80783C078
F80783C078
F807878078
F807FF8078
F807FE0078
F807FE0078
78079F0078
78078F80F8
7C078780F0
7C0787C1F0
3E0783E1F0
3E0783E3E0
1F000007E0
1F800007C0
0FC0001F80
07F0003F80
03FC01FF00
01FFFFFC00
007FFFF800
001FFFE000
0007FF8000
ENDCHAR
STARTCHAR 00AF
ENCODING 175
SWIDTH 292 0
DWIDTH 26 0
BBX 33 5 -3 51
BITMAP
FFFFFFFF80
FFFFFFFF80
FFFFFFFF80
FFFFFFFF00
FFFFFFC000
ENDCHAR
STARTCHAR 00B0
ENCODING 176
SWIDTH 405 0
DWIDTH 36 0
BBX 26 23 5 39
BITMAP
007FC000
03FFF000
07FFFC00
0FFFFE00
1FE3FF00
3FC0FF80
7F807F80
7F807FC0
7F803FC0
FF003FC0
FF003FC0
FF803FC0
FF803FC0
FF803FC0
7F803FC0
7FC03FC0
7FC07F80
3FE07F80
3FF0FF00
1FFFFE00
0FFFFC00
07FFF800
01FFE000
ENDCHAR
STARTCHAR 00B1
ENCODING 177
SWIDTH 540 0
DWIDTH 48 0
BBX 39 40 5 4
BITMAP
0000FE0000
0000FE0000
0000FE0000
0000FE0000
0000FE0000
0000FE0000
0000FE0000
0000FE0000
0000FE0000
0000FE0000
0000FE0000
0000FE0000
0000FE0000
0FFFFFFFF0
1FFFFFFFF0
1FFFFFFFF0
1FFFFFFFF0
1FFFFFFFF0
1FFFFFFFE0
0000FE0000
0000FE0000
0000FE0000
0000FE0000
0000FE0000
0000FE0000
0000FE0000
0000FE0000
0000FE0000
0000FE0000
0000FE0000
0000FE0000
0000E00000
0000000000
0000000000
0000000000
FFFFFFFFFE
FFFFFFFFFE
FFFFFFFFFE
FFFFFFFFFE
FFFFFFFFFC
ENDCHAR
STARTCHAR 00B2
ENCODING 178
SWIDTH 371 0
DWIDTH 33 0
BBX 28 32 3 36
BITMAP
01FFE000
1FFFFC00
3FFFFE00
3FFFFF00
3FFFFF80
3FC3FF80
3F83FF80
3F01FFC0
3F01FFC0
3F01FF80
3F01FF80
3F01FF80
1F01FF80
0003FF00
0003FE00
0007FE00
000FF800
001FF000
003FE000
007FC000
00FF03E0
01FE03E0
03FC07E0
07F81FE0
0FFFFFE0
1FFFFFE0
3FFFFFE0
7FFFFFE0
FFFFFFF0
FFFFFFF0
7FFFFFE0
7FFFFF80
ENDCHAR
STARTCHAR 00B3
ENCODING 179
SWIDTH 382 0
DWIDTH 34 0
BBX 28 41 3 26
BITMAP
3FFFFF80
3FFFFF80
3FFFFFC0
3FFFFF80
3FFFFF00
3FFFFF00
3FFFFE00
3F80FC00
3F01F800
3E03F000
3C07F000
0C07E000
000FC000
001F8000
003F8000
003F0000
007FF000
00FFFC00
00FFFF00
00FFFF80
007FFFC0
0007FFC0
0001FFE0
0000FFE0
00007FE0
00007FF0
00003FF0
00003FF0
00003FF0
00003FE0
00003FE0
00007FE0
00007FE0
0000FFC0
0001FF80
3007FF80
7FFFFF00
FFFFFE00
FFFFF800
7FFFE000
1FFF8000
ENDCHAR
STARTCHAR 00B4
ENCODING 180
SWIDTH 292 0
DWIDTH 26 0
BBX 18 17 4 47
BITMAP
00FFC0
03FF80
03FF00
07FF00
07FE00
07FC00
0FF800
0FF800
0FF000
1FE000
1FE000
3FC000
3F8000
7F8000
7F0000
FE0000
1E0000
ENDCHAR
STARTCHAR 00B5
ENCODING 181
SWIDTH 630 0
DWIDTH 56 0
BBX 51 63 3 -21
BITMAP
0007800000F000
007FC0003FF800
7FFFC01FFFF800
FFFFC03FFFF800
FFFFC03FFFF800
FFFFC03FFFF800
FFFFC03FFFF800
FFFFC007FFF800
0FFFC001FFF800
07FFC000FFF800
07FFC000FFF800
07FFC000FFF800
03FFC0007FF800
03FFC0007FF800
03FFC0007FF800
03FFC0007FF800
03FFC0007FF800
03FFC0007FF800
03FFC0007FF800
03FFC0007FF800
03FFC0007FF800
03FFC0007FF800
03FFC0007FF800
03FFC000FFF800
03FFC000FFF800
03FFC000FFF800
03FFC000FFF800
03FFE000FFF800
03FFE001FFF800
03FFE001FFF800
03FFE003FFFC00
03FFE003FFFC00
03FFF007FFFE00
03FFF80FFFFFE0
03FFFE7FBFFFE0
03FFFFFFBFFFE0
03FFFFFF3FFFE0
03FFFFFE3FFFE0
03FFFFFC3FFFC0
03FFFFF01FF000
03FFFFC01F0000
03FF10000C0000
03FF0000000000
03FF0000000000
03FF0000000000
03FF0000000000
03FF0000000000
03FF0000000000
03FF0000000000
03FF8000000000
03FF8000000000
03FF8000000000
03FF8000000000
03FF8000000000
03FF8000000000
07FF8000000000
07FFC000000000
07FF0000000000
07FC0000000000
07F00000000000
07E00000000000
03800000000000
01000000000000
ENDCHAR
STARTCHAR 00B6
ENCODING 182
SWIDTH 585 0
DWIDTH 52 0
BBX 47 82 3 -22
BITMAP
0001FFFFFFFE
001FFFFFFFFE
007FFFFFFFFE
01FFFFFFFFFE
03FFFFFFFFFE
07FFE0FC1FF0
0FFF80FC1FC0
1FFF00FC1F80
3FFE00FC1F80
3FFC00FC1F80
7FFC00FC1F80
7FFC00FC1F80
7FF800FC1F80
7FF800FC1F80
FFF800FC1F80
FFF800FC1F80
FFF800FC1F80
FFF800FC1F80
FFF800FC1F80
FFF800FC1F80
7FFC00FC1F80
7FFC00FC1F80
7FFC00FC1F80
7FFE00FC1F80
3FFF00FC1F80
3FFF80FC1F80
1FFFC0FC1F80
1FFFF0FC1F80
0FFFFFFC1F80
07FFFFFC1F80
01FFFFFC1F80
007FFFFC1F80
0007FFFC1F80
000000FC1F80
000000FC1F80
000000FC1F80
000000FC1F80
000000FC1F80
000000FC1F80
000000FC1F80
000000FC1F80
000000FC1F80
000000FC1F80
000000FC1F80
000000FC1F80
000000FC1F80
000000FC1F80
000000FC1F80
000000FC1F80
000000FC1F80
000000FC1F80
000000FC1F80
000000FC1F80
000000FC1F80
000000FC1F80
000000FC1F80
000000FC1F80
000000FC1F80
000000FC1F80
000000FC1F80
000000FC1F80
000000FC1F80
000000FC1F80
000000FC1F80
000000FC1F80
000000FC1F80
000000FC1F80
000000FC1F80
000000FC1F80
000000FC1F80
000000FC1F80
000000FC1F80
000000FC1F80
000000FC1F80
000000FC1F80
000000FC1F80
000000FC1F80
000000FC1F80
000000FC1F80
000000FC1F80
000000FC1F80
000000F81E00
ENDCHAR
STARTCHAR 00B7
ENCODING 183
SWIDTH 281 0
DWIDTH 25 0
BBX 15 14 5 16
BITMAP
07E0
1FF0
3FF8
7FFC
7FFE
FFFE
FFFE
FFFE
FFFE
7FFC
7FFC
3FF8
1FF0
07C0
ENDCHAR
STARTCHAR 00B8
ENCODING 184
SWIDTH 292 0
DWIDTH 26 0
BBX 15 22 6 -22
BITMAP
07C0
0F80
1F80
3F00
3E00
7F00
FFE0
FFF0
FFF8
7FFC
3FFC
03FC
01FC
01FE
01FC
01FC
03FC
07F8
1FF8
FFE0
FFC0
FF00
ENDCHAR
STARTCHAR 00B9
ENCODING 185
SWIDTH 326 0
DWIDTH 29 0
BBX 20 32 5 36
BITMAP
F801F0
FFFFF0
FFFFF0
FFFFF0
FFFFF0
FFFFE0
1FFF00
0FFF00
0FFE00
07FE00
07FE00
07FE00
07FE00
07FE00
07FE00
07FE00
07FE00
07FE00
07FE00
07FE00
07FE00
07FE00
07FE00
0FFE00
0FFE00
1FFF00
7FFFC0
FFFFF0
FFFFF0
FFFFF0
FFFFF0
FFFFF0
ENDCHAR
STARTCHAR 00BA
ENCODING 186
SWIDTH 427 0
DWIDTH 38 0
BBX 33 32 3 32
BITMAP
0007E00000
003FFF0000
00FFFFC000
03FFFFE000
07FFFFF000
0FF83FF800
1FF01FFC00
3FF00FFE00
3FF00FFE00
7FE007FF00
7FE007FF00
7FE007FF00
FFE003FF00
FFE003FF00
FFE003FF80
FFE003FF80
FFE003FF80
FFE003FF00
FFE003FF00
FFE003FF00
FFE003FF00
7FE003FF00
7FF007FF00
7FF007FE00
3FF807FE00
3FF80FFC00
1FFC0FF800
0FFF3FF800
07FFFFF000
03FFFFC000
01FFFF0000
003FFC0000
ENDCHAR
STARTCHAR 00BB
ENCODING 187
SWIDTH 506 0
DWIDTH 45 0
BBX 35 31 5 6
BITMAP
00001C0000
3E007E0000
FF007F0000
7F803F8000
7FC03FC000
3FE01FF000
1FE00FF800
1FF00FFC00
0FFC07FE00
0FFE03FF00
07FF03FF80
03FF81FFC0
03FF81FFE0
01FF80FFE0
01FF807FE0
00FF807FE0
01FF807FE0
01FF80FFC0
03FF01FF80
07FE01FF00
07FC03FE00
0FF807FC00
0FF007F800
1FE00FF000
3FC01FE000
7FC03FC000
7F803F8000
3F003F0000
1E003E0000
0C001C0000
0000040000
ENDCHAR
STARTCHAR 00BC
ENCODING 188
SWIDTH 866 0
DWIDTH 77 0
BBX 71 66 4 -1
BITMAP
0000C0000000000000
000FE0000000004000
00FFE0000000007800
FFFFE000000000FE00
FFFFE000000001FE00
FFFFE000000001FC00
FFFFE000000003F800
FFFFE000000007F800
07FFE00000000FF000
01FFE00000000FE000
00FFE00000001FC000
00FFE00000003FC000
00FFE00000007F8000
00FFE00000007F0000
00FFE0000000FE0000
00FFE0000001FE0000
00FFE0000003FC0000
00FFE0000003F80000
00FFE0000007F00000
00FFE000000FF00000
00FFE000000FE00000
00FFE000001FC00000
00FFE000003FC00000
00FFE000007F800000
00FFE000007F000000
00FFE00000FE007F00
00FFE00001FE00FF00
00FFE00003FC01FF00
00FFE00003F801FF00
00FFE00007F003FF00
00FFE0000FF007FF00
00FFE0001FE00FFF00
00FFE0001FC00FFF00
01FFF0003F801FFF00
03FFF8007F803FFF00
3FFFFF00FF007FFF00
7FFFFFC0FE007FFF00
7FFFFFC1FC00FBFF00
FFFFFFC3FC01F3FF00
FFFFFFC3F803F3FF00
00000007F007E3FF00
0000000FF007C3FF00
0000001FE00FC3FF00
0000001FC01F83FF00
0000003F803F03FF00
0000007F807E03FF00
000000FF00FE03FF00
000000FE00FFFFFFF8
000001FC01FFFFFFFE
000003FC03FFFFFFFE
000007F803FFFFFFFC
000007F001FFFFFFFC
00000FE001FFFFFFFC
00001FE001FFFFFFFC
00001FC000FFFFFFF8
00003F80000003FF00
00007F80000003FF00
0000FF00000003FF00
0000FE00000003FF80
0001FC00000007FFC0
0003FC000000FFFFF8
0007F8000000FFFFF8
0007F0000000FFFFF8
000FE0000000FFFFF8
0003E0000000FFFFF8
0000C0000000000000
ENDCHAR
STARTCHAR 00BD
ENCODING 189
SWIDTH 978 0
DWIDTH 87 0
BBX 82 66 4 -1
BITMAP
0000C00000000000000000
000FE00000000040000000
00FFE00000000078000000
FFFFE000000000FE000000
FFFFE000000001FE000000
FFFFE000000001FC000000
FFFFE000000003F8000000
FFFFE000000007F8000000
07FFE00000000FF0000000
01FFE00000000FE0000000
00FFE00000001FC0000000
00FFE00000003FC0000000
00FFE00000007F80000000
00FFE00000007F00000000
00FFE0000000FE00000000
00FFE0000001FE00000000
00FFE0000003FC00000000
00FFE0000003F800000000
00FFE0000007F000000000
00FFE000000FF000000000
00FFE000000FE000000000
00FFE000001FC000000000
00FFE000003FC000000000
00FFE000007F8000000000
00FFE000007F0000000000
00FFE00000FE001FFC0000
00FFE00001FE03FFFFC000
00FFE00003FC1FFFFFF000
00FFE00003F81FFFFFF800
00FFE00007F01FFFFFFC00
00FFE0000FF01FFFFFFE00
00FFE0001FE01FF07FFE00
00FFE0001FC01FE03FFE00
01FFF0003F801FE01FFE00
03FFF8007F801FE01FFE00
3FFFFF00FF001FC01FFE00
7FFFFFC0FE001FC01FFE00
7FFFFFC1FC001FC01FFE00
FFFFFFC3FC001FC01FFE00
FFFFFFC3F8000FC01FFC00
00000007F00000003FFC00
0000000FF00000003FF800
0000001FE00000007FF000
0000001FC0000000FFE000
0000003F80000000FFC000
0000007F80000001FF8000
000000FF00000003FF0000
000000FE00000007FE0000
000001FC0000000FF80000
000003FC0000001FF00000
000007F80000003FE01F80
000007F00000007FC03F80
00000FE0000000FF803F80
00001FE0000001FF007F80
00001FC0000003FE07FF80
00003F80000007FFFFFF80
00007F8000000FFFFFFF80
0000FF0000001FFFFFFF80
0000FE0000001FFFFFFF80
0001FC0000003FFFFFFF80
0003FC0000003FFFFFFF80
0007F80000003FFFFFFF80
0007F00000001FFFFFFFC0
000FE00000001FFFFFFF80
0003E00000001FFFFFFF00
0000C00000000000000000
ENDCHAR
STARTCHAR 00BE
ENCODING 190
SWIDTH 855 0
DWIDTH 76 0
BBX 71 66 2 -1
BITMAP
3F0007E00000000000
3FFFFFE00000002000
3FFFFFE00000003C00
3FFFFFF00000007F00
3FFFFFF0000000FE00
3FFFFFE0000001FE00
3FFFFFC0000001FC00
3FFFFF80000003F800
3FFFFF80000007F800
3FFFFF0000000FF000
7F80FE0000000FE000
7E01FC0000001FC000
7E03F80000003FC000
7C03F80000007F8000
0007F00000007F0000
000FE0000000FE0000
001FC0000001FE0000
003FE0000003FC0000
007FFE000003F80000
00FFFF800007F00000
00FFFFC0000FF00000
00FFFFE0000FE00000
00FFFFF0001FC00000
007FFFF0003FC00000
0001FFF8007F800000
0000FFF8007F007F00
00007FF800FE007F80
00003FF801FE00FF80
00003FF803FC01FF80
00003FF803F803FF80
00003FF807F003FF80
00007FF00FF007FF80
00007FF01FE00FFF80
0000FFF01FC01FFF80
7001FFE03F801FFF80
7E1FFFC07F803FFF80
7FFFFF807F007FFF80
FFFFFF00FE00FDFF80
7FFFFC01FE00F9FF80
0FFFF003FC01F1FF80
007C0003F803F1FF80
00000007F007E1FF80
0000000FF00FC1FF80
0000001FE00F81FF80
0000001FC01F81FF80
0000003F803F01FF80
0000007F807E01FF80
000000FF00FFFFFFF8
000000FE00FFFFFFFE
000001FC01FFFFFFFE
000003FC01FFFFFFFE
000007F801FFFFFFFE
000007F000FFFFFFFC
00000FE000FFFFFFFC
00001FE000FFFFFFFC
00001FC0000001FF80
00003F80000001FF80
00007F80000001FF80
0000FF00000003FF80
0000FE00000007FFC0
0001FC0000007FFFFC
0003FC0000007FFFFC
0007F80000007FFFFC
0007F00000007FFFFC
0003E00000007FFFFC
000060000000000000
ENDCHAR
STARTCHAR 00BF
ENCODING 191
SWIDTH 528 0
DWIDTH 47 0
BBX 32 65 6 -23
BITMAP
00008000
000FF000
001FFC00
003FFE00
007FFE00
007FFE00
00FFFF00
00FFFF00
00FFFF00
00FFFF00
007FFE00
007FFE00
003FFC00
001FF800
000FF000
00000000
00000000
00000000
00000000
00000000
0003E000
0007F000
0007F800
0007F800
0007FC00
0007FC00
0003FC00
0003FE00
0003FE00
0003FE00
0007FE00
0007FE00
0007FE00
000FFE00
000FFE00
001FFC00
001FFC00
003FFC00
007FF800
00FFF000
01FFF000
03FFE000
07FFC000
0FFF8000
1FFF0000
3FFE0000
3FFE0000
7FFC0000
7FF800F8
7FF800FF
FFF800FE
FFF800FF
FFF800FE
FFF801FE
FFF801FE
FFF801FE
FFF803FE
7FFC03FE
7FFE07FE
3FFFDFFE
3FFFFFFF
1FFFFFFE
07FFFFF0
01FFFFC0
003FF800
ENDCHAR
STARTCHAR 00C0
ENCODING 192
SWIDTH 708 0
DWIDTH 63 0
BBX 60 78 2 0
BITMAP
000007F000000000
00003FF000000000
00003FF800000000
00001FF800000000
00000FFC00000000
000007FC00000000
000003FE00000000
000003FE00000000
000001FF00000000
000000FF00000000
0000007F80000000
0000003F80000000
0000003C00000000
0000000000000000
0000000000000000
0000000000000000
0000000000000000
0000000200000000
0000003F00000000
0000007F00000000
0000007F80000000
0000007F80000000
000000FFC0000000
000000FFC0000000
000001FFC0000000
000001FFE0000000
000003FFE0000000
000003FFF0000000
000003FFF0000000
000007FFF8000000
000007FFF8000000
00000FFFFC000000
00000FFFFC000000
00000FFFFC000000
00001F7FFE000000
00001F7FFE000000
00003F3FFF000000
00003E3FFF000000
00003E3FFF800000
00007E1FFF800000
00007C1FFFC00000
0000FC0FFFC00000
0000FC0FFFC00000
0000F80FFFE00000
0001F807FFE00000
0001F007FFF00000
0003F003FFF00000
0003F003FFF80000
0003E001FFF80000
0007E001FFFC0000
0007E000FFFC0000
000FC000FFFC0000
000FC000FFFE0000
000F80007FFE0000
001F80007FFF0000
001F80003FFF0000
003FFFFFFFFF8000
003FFFFFFFFF8000
007FFFFFFFFFC000
007FFFFFFFFFC000
007FFFFFFFFFC000
00FF00000FFFE000
00FC000007FFE000
01F8000007FFF000
01F8000003FFF000
01F8000003FFF800
03F0000003FFF800
03F0000001FFFC00
07F0000001FFFC00
07F0000001FFFE00
0FF0000001FFFE00
1FF8000001FFFF00
3FFE000007FFFFC0
FFFF00001FFFFFE0
FFFF80001FFFFFE0
FFFF80001FFFFFF0
FFFF80001FFFFFF0
FFFF80001FFFFFF0
ENDCHAR
STARTCHAR 00C1
ENCODING 193
SWIDTH 708 0
DWIDTH 63 0
BBX 60 78 2 0
BITMAP
00000007FF800000
00000007FF000000
0000000FFE000000
0000000FFC000000
0000001FF8000000
0000001FF0000000
0000001FE0000000
0000003FC0000000
0000003FC0000000
0000007F80000000
0000007F00000000
000000FE00000000
0000001C00000000
0000000000000000
0000000000000000
0000000000000000
0000000000000000
0000000200000000
0000003F00000000
0000007F00000000
0000007F80000000
0000007F80000000
000000FFC0000000
000000FFC0000000
000001FFC0000000
000001FFE0000000
000003FFE0000000
000003FFF0000000
000003FFF0000000
000007FFF8000000
000007FFF8000000
00000FFFFC000000
00000FFFFC000000
00000FFFFC000000
00001F7FFE000000
00001F7FFE000000
00003F3FFF000000
00003E3FFF000000
00003E3FFF800000
00007E1FFF800000
00007C1FFFC00000
0000FC0FFFC00000
0000FC0FFFC00000
0000F80FFFE00000
0001F807FFE00000
0001F007FFF00000
0003F003FFF00000
0003F003FFF80000
0003E001FFF80000
0007E001FFFC0000
0007E000FFFC0000
000FC000FFFC0000
000FC000FFFE0000
000F80007FFE0000
001F80007FFF0000
001F80003FFF0000
003FFFFFFFFF8000
003FFFFFFFFF8000
007FFFFFFFFFC000
007FFFFFFFFFC000
007FFFFFFFFFC000
00FF00000FFFE000
00FC000007FFE000
01F8000007FFF000
01F8000003FFF000
01F8000003FFF800
03F0000003FFF800
03F0000001FFFC00
07F0000001FFFC00
07F0000001FFFE00
0FF0000001FFFE00
1FF8000001FFFF00
3FFE000007FFFFC0
FFFF00001FFFFFE0
FFFF80001FFFFFE0
FFFF80001FFFFFF0
FFFF80001FFFFFF0
FFFF80001FFFFFF0
ENDCHAR
STARTCHAR 00C2
ENCODING 194
SWIDTH 708 0
DWIDTH 63 0
BBX 60 79 2 0
BITMAP
0000000F00000000
0000007F80000000
000000FFC0000000
000001FFE0000000
000003FFF0000000
00000FFFF8000000
00001FFFFE000000
00003FFFFF000000
0000FFFFFF800000
0001FFC7FFC00000
0007FF00FFF00000
0003FC007FE00000
0003F0001FC00000
0001C00007800000
0000000000000000
0000000000000000
0000000000000000
0000000000000000
0000000200000000
0000003F00000000
0000007F00000000
0000007F80000000
0000007F80000000
000000FFC0000000
000000FFC0000000
000001FFC0000000
000001FFE0000000
000003FFE0000000
000003FFF0000000
000003FFF0000000
000007FFF8000000
000007FFF8000000
00000FFFFC000000
00000FFFFC000000
00000FFFFC000000
00001F7FFE000000
00001F7FFE000000
00003F3FFF000000
00003E3FFF000000
00003E3FFF800000
00007E1FFF800000
00007C1FFFC00000
0000FC0FFFC00000
0000FC0FFFC00000
0000F80FFFE00000
0001F807FFE00000
0001F007FFF00000
0003F003FFF00000
0003F003FFF80000
0003E001FFF80000
0007E001FFFC0000
0007E000FFFC0000
000FC000FFFC0000
000FC000FFFE0000
000F80007FFE0000
001F80007FFF0000
001F80003FFF0000
003FFFFFFFFF8000
003FFFFFFFFF8000
007FFFFFFFFFC000
007FFFFFFFFFC000
007FFFFFFFFFC000
00FF00000FFFE000
00FC000007FFE000
01F8000007FFF000
01F8000003FFF000
01F8000003FFF800
03F0000003FFF800
03F0000001FFFC00
07F0000001FFFC00
07F0000001FFFE00
0FF0000001FFFE00
1FF8000001FFFF00
3FFE000007FFFFC0
FFFF00001FFFFFE0
FFFF80001FFFFFE0
FFFF80001FFFFFF0
FFFF80001FFFFFF0
FFFF80001FFFFFF0
ENDCHAR
STARTCHAR 00C3
ENCODING 195
SWIDTH 708 0
DWIDTH 63 0
BBX 60 77 2 0
BITMAP
00000FF000000000
00007FFC00F00000
0000FFFF01F80000
0003FFFFFFF80000
0007FFFFFFF00000
0007FFFFFFE00000
000FFFFFFFE00000
000FF1FFFFC00000
0007807FFF800000
0007001FFE000000
00020003F8000000
0000000000000000
0000000000000000
0000000000000000
0000000000000000
0000000000000000
0000000200000000
0000003F00000000
0000007F00000000
0000007F80000000
0000007F80000000
000000FFC0000000
000000FFC0000000
000001FFC0000000
000001FFE0000000
000003FFE0000000
000003FFF0000000
000003FFF0000000
000007FFF8000000
000007FFF8000000
00000FFFFC000000
00000FFFFC000000
00000FFFFC000000
00001F7FFE000000
00001F7FFE000000
00003F3FFF000000
00003E3FFF000000
00003E3FFF800000
00007E1FFF800000
00007C1FFFC00000
0000FC0FFFC00000
0000FC0FFFC00000
0000F80FFFE00000
0001F807FFE00000
0001F007FFF00000
0003F003FFF00000
0003F003FFF80000
0003E001FFF80000
0007E001FFFC0000
0007E000FFFC0000
000FC000FFFC0000
000FC000FFFE0000
000F80007FFE0000
001F80007FFF0000
001F80003FFF0000
003FFFFFFFFF8000
003FFFFFFFFF8000
007FFFFFFFFFC000
007FFFFFFFFFC000
007FFFFFFFFFC000
00FF00000FFFE000
00FC000007FFE000
01F8000007FFF000
01F8000003FFF000
01F8000003FFF800
03F0000003FFF800
03F0000001FFFC00
07F0000001FFFC00
07F0000001FFFE00
0FF0000001FFFE00
1FF8000001FFFF00
3FFE000007FFFFC0
FFFF00001FFFFFE0
FFFF80001FFFFFE0
FFFF80001FFFFFF0
FFFF80001FFFFFF0
FFFF80001FFFFFF0
ENDCHAR
STARTCHAR 00C4
ENCODING 196
SWIDTH 708 0
DWIDTH 63 0
BBX 60 77 2 0
BITMAP
0000F8000F800000
0003FE003FE00000
0007FF007FF00000
000FFF80FFF80000
000FFF80FFF80000
000FFF80FFFC0000
000FFF80FFFC0000
000FFF80FFF80000
000FFF80FFF80000
0007FF807FF80000
0007FF007FF00000
0001FE001FE00000
0000200003000000
0000000000000000
0000000000000000
0000000000000000
0000000200000000
0000003F00000000
0000007F00000000
0000007F80000000
0000007F80000000
000000FFC0000000
000000FFC0000000
000001FFC0000000
000001FFE0000000
000003FFE0000000
000003FFF0000000
000003FFF0000000
000007FFF8000000
000007FFF8000000
00000FFFFC000000
00000FFFFC000000
00000FFFFC000000
00001F7FFE000000
00001F7FFE000000
00003F3FFF000000
00003E3FFF000000
00003E3FFF800000
00007E1FFF800000
00007C1FFFC00000
0000FC0FFFC00000
0000FC0FFFC00000
0000F80FFFE00000
0001F807FFE00000
0001F007FFF00000
0003F003FFF00000
0003F003FFF80000
0003E001FFF80000
0007E001FFFC0000
0007E000FFFC0000
000FC000FFFC0000
000FC000FFFE0000
000F80007FFE0000
001F80007FFF0000
001F80003FFF0000
003FFFFFFFFF8000
003FFFFFFFFF8000
007FFFFFFFFFC000
007FFFFFFFFFC000
007FFFFFFFFFC000
00FF00000FFFE000
00FC000007FFE000
01F8000007FFF000
01F8000003FFF000
01F8000003FFF800
03F0000003FFF800
03F0000001FFFC00
07F0000001FFFC00
07F0000001FFFE00
0FF0000001FFFE00
1FF8000001FFFF00
3FFE000007FFFFC0
FFFF00001FFFFFE0
FFFF80001FFFFFE0
FFFF80001FFFFFF0
FFFF80001FFFFFF0
FFFF80001FFFFFF0
ENDCHAR
STARTCHAR 00C5
ENCODING 197
SWIDTH 708 0
DWIDTH 63 0
BBX 60 79 2 0
BITMAP
0000003F00000000
000001FFE0000000
000007FFF8000000
00000FE7FC000000
00001FC1FC000000
00001F80FE000000
00001F80FE000000
00001F80FE000000
00001F80FE000000
00001F80FC000000
00001FC1FC000000
00000FF3F8000000
00000FFFF0000000
000003FFE0000000
000000FF80000000
0000000000000000
0000000000000000
0000000000000000
0000000200000000
0000003F00000000
0000007F00000000
0000007F80000000
0000007F80000000
000000FFC0000000
000000FFC0000000
000001FFC0000000
000001FFE0000000
000003FFE0000000
000003FFF0000000
000003FFF0000000
000007FFF8000000
000007FFF8000000
00000FFFFC000000
00000FFFFC000000
00000FFFFC000000
00001F7FFE000000
00001F7FFE000000
00003F3FFF000000
00003E3FFF000000
00003E3FFF800000
00007E1FFF800000
00007C1FFFC00000
0000FC0FFFC00000
0000FC0FFFC00000
0000F80FFFE00000
0001F807FFE00000
0001F007FFF00000
0003F003FFF00000
0003F003FFF80000
0003E001FFF80000
0007E001FFFC0000
0007E000FFFC0000
000FC000FFFC0000
000FC000FFFE0000
000F80007FFE0000
001F80007FFF0000
001F80003FFF0000
003FFFFFFFFF8000
003FFFFFFFFF8000
007FFFFFFFFFC000
007FFFFFFFFFC000
007FFFFFFFFFC000
00FF00000FFFE000
00FC000007FFE000
01F8000007FFF000
01F8000003FFF000
01F8000003FFF800
03F0000003FFF800
03F0000001FFFC00
07F0000001FFFC00
07F0000001FFFE00
0FF0000001FFFE00
1FF8000001FFFF00
3FFE000007FFFFC0
FFFF00001FFFFFE0
FFFF80001FFFFFE0
FFFF80001FFFFFF0
FFFF80001FFFFFF0
FFFF80001FFFFFF0
ENDCHAR
STARTCHAR 00C6
ENCODING 198
SWIDTH 956 0
DWIDTH 85 0
BBX 81 60 2 0
BITMAP
0000007FFFFFFFFFFFF000
0000007FFFFFFFFFFFF000
0000007FFFFFFFFFFFF000
0000003FFFFFFFFFFFF000
0000003FFFFFFFFFFFF000
0000000FFFFFF003FFF000
00000003FFFFF0007FF000
00000001FDFFF0001FF000
00000001FDFFF0000FF000
00000003F9FFF00007F000
00000003F9FFF00007F800
00000003F1FFF00003F800
00000007F1FFF00003F800
00000007E1FFF00003F800
0000000FC1FFF00001F800
0000001FC1FFF00001E000
0000001F81FFF000000000
0000003F81FFF000000000
0000003F01FFF000000000
0000007F01FFF000000000
0000007E01FFF000000000
000000FC01FFF000380000
000001FC01FFF003F80000
000001F801FFF003F00000
000003F801FFF003F00000
000003F001FFF003F00000
000007F001FFF003F00000
00000FE001FFF007F00000
00000FC001FFF01FF00000
00001FFFFFFFFFFFF00000
00001FFFFFFFFFFFF00000
00003FFFFFFFFFFFF00000
00003FFFFFFFFFFFF00000
00007FFFFFFFFFFFF00000
0000FFFF01FFF01FF00000
0000FC0001FFF007F00000
0001FC0001FFF007F00000
0001F80001FFF003F00000
0003F80001FFF003F00000
0003F00001FFF003F00000
0007E00001FFF001F80000
000FE00001FFF001F80000
000FC00001FFF000000000
001FC00001FFF000003000
001F800001FFF000003E00
003F800001FFF000007F80
007F000001FFF000007F00
007F000001FFF00000FF00
00FE000001FFF00000FF00
00FE000001FFF00001FF00
01FE000001FFF80001FE00
03FE000003FFF80003FE00
07FE000003FFF80007FE00
0FFE000007FFFC001FFE00
3FFF80001FFFFFC3FFFE00
FFFFE0007FFFFFFFFFFC00
FFFFE0007FFFFFFFFFFC00
FFFFE000FFFFFFFFFFFC00
FFFFE000FFFFFFFFFFFC00
FFFFF000FFFFFFFFFFFC00
ENDCHAR
STARTCHAR 00C7
ENCODING 199
SWIDTH 641 0
DWIDTH 57 0
BBX 51 83 3 -22
BITMAP
0000007FF00000
000007FFFF8000
00003FFFFFF000
0001FFFFFFFE00
0003FFFFFFFF80
000FFFFCFFFFC0
001FFF800FFFC0
003FFE0003FF80
007FF80001FF80
00FFF00000FF80
01FFE00000FF80
03FFC000007F80
07FFC000007F80
07FF8000007F80
0FFF8000003F80
1FFF0000003F80
1FFF0000003F80
1FFF0000003F80
3FFE0000003F80
3FFE0000002800
7FFE0000000000
7FFE0000000000
7FFC0000000000
7FFC0000000000
7FFC0000000000
FFFC0000000000
FFFC0000000000
FFFC0000000000
FFFC0000000000
FFFC0000000000
FFFC0000000000
FFFC0000000000
FFFC0000000000
FFFC0000000000
FFFC0000000000
FFFE0000000000
7FFE0000000000
7FFE0000000000
7FFE0000000000
7FFF0000000000
7FFF0000000000
3FFF0000000000
3FFF8000000000
3FFF8000000000
1FFF8000000000
1FFFC000000000
0FFFE000000000
0FFFE000000000
07FFF000000000
07FFF800000000
03FFFC00000000
01FFFE000001C0
00FFFF800007E0
007FFFE0003FE0
003FFFFC03FFE0
001FFFFFFFFFC0
000FFFFFFFFF00
0003FFFFFFFC00
0001FFFFFFF800
00007FFFFFC000
00000FFFFE0000
0000007FC00000
0000003E000000
0000007C000000
000000FC000000
000001FE000000
000001FF800000
000001FFC00000
000001FFE00000
000001FFF00000
0000007FF00000
0000000FF80000
00000007F80000
00000007F80000
00000003F80000
00000007F80000
00000007F00000
0000000FF00000
0000007FE00000
000001FFC00000
000001FF000000
000001FC000000
00000100000000
ENDCHAR
STARTCHAR 00C8
ENCODING 200
SWIDTH 618 0
DWIDTH 55 0
BBX 49 78 4 0
BITMAP
0001FC00000000
000FFC00000000
000FFE00000000
0007FE00000000
0003FF00000000
0001FF00000000
0000FF80000000
00007F80000000
00007FC0000000
00003FC0000000
00001FE0000000
00000FE0000000
00000780000000
00000000000000
00000000000000
00000000000000
00000000000000
00000000000000
FFFFFFFFFFF000
FFFFFFFFFFF000
FFFFFFFFFFF000
FFFFFFFFFFF000
FFFFFFFFFFF000
1FFFF001FFF000
07FFF0003FF800
07FFF0001FF800
03FFF0000FF800
03FFF00007F800
03FFF00003F800
03FFF00003F800
03FFF00003F800
03FFF00001FC00
03FFF00001FC00
03FFF00001F000
03FFF000000000
03FFF000000000
03FFF000000000
03FFF000000000
03FFF001F80000
03FFF001F80000
03FFF001F80000
03FFF003F80000
03FFF003F80000
03FFF007F80000
03FFF00FF80000
03FFFFFFF80000
03FFFFFFF80000
03FFFFFFF80000
03FFFFFFF80000
03FFFFFFF80000
03FFFFFFF80000
03FFF00FF80000
03FFF007F80000
03FFF003F80000
03FFF003F80000
03FFF001F80000
03FFF001F80000
03FFF001F80000
03FFF000000000
03FFF000000000
03FFF000000000
03FFF000003800
03FFF000003F00
03FFF000003F80
03FFF000007F80
03FFF000007F00
03FFF00000FF00
03FFF00000FF00
03FFF00001FF00
03FFF80003FF00
07FFF80007FE00
07FFFC001FFE00
3FFFFFE7FFFE00
FFFFFFFFFFFE00
FFFFFFFFFFFE00
FFFFFFFFFFFE00
FFFFFFFFFFFE00
FFFFFFFFFFFC00
ENDCHAR
STARTCHAR 00C9
ENCODING 201
SWIDTH 618 0
DWIDTH 55 0
BBX 49 78 4 0
BITMAP
000001FFE00000
000001FFC00000
000003FF800000
000003FF000000
000003FE000000
000007FC000000
000007F8000000
00000FF8000000
00000FF0000000
00001FE0000000
00001FC0000000
00003F80000000
00000780000000
00000000000000
00000000000000
00000000000000
00000000000000
00000000000000
FFFFFFFFFFF000
FFFFFFFFFFF000
FFFFFFFFFFF000
FFFFFFFFFFF000
FFFFFFFFFFF000
1FFFF001FFF000
07FFF0003FF800
07FFF0001FF800
03FFF0000FF800
03FFF00007F800
03FFF00003F800
03FFF00003F800
03FFF00003F800
03FFF00001FC00
03FFF00001FC00
03FFF00001F000
03FFF000000000
03FFF000000000
03FFF000000000
03FFF000000000
03FFF001F80000
03FFF001F80000
03FFF001F80000
03FFF003F80000
03FFF003F80000
03FFF007F80000
03FFF00FF80000
03FFFFFFF80000
03FFFFFFF80000
03FFFFFFF80000
03FFFFFFF80000
03FFFFFFF80000
03FFFFFFF80000
03FFF00FF80000
03FFF007F80000
03FFF003F80000
03FFF003F80000
03FFF001F80000
03FFF001F80000
03FFF001F80000
03FFF000000000
03FFF000000000
03FFF000000000
03FFF000003800
03FFF000003F00
03FFF000003F80
03FFF000007F80
03FFF000007F00
03FFF00000FF00
03FFF00000FF00
03FFF00001FF00
03FFF80003FF00
07FFF80007FE00
07FFFC001FFE00
3FFFFFE7FFFE00
FFFFFFFFFFFE00
FFFFFFFFFFFE00
FFFFFFFFFFFE00
FFFFFFFFFFFE00
FFFFFFFFFFFC00
ENDCHAR
STARTCHAR 00CA
ENCODING 202
SWIDTH 618 0
DWIDTH 55 0
BBX 49 79 4 0
BITMAP
000003C0000000
00000FE0000000
00003FF0000000
00007FF8000000
0000FFFC000000
0001FFFF000000
0007FFFF800000
000FFFFFC00000
003FFFFFE00000
007FF0FFF80000
01FFC03FFC0000
00FF000FFC0000
00FC0007F00000
00780001E00000
00000000000000
00000000000000
00000000000000
00000000000000
00000000000000
FFFFFFFFFFF000
FFFFFFFFFFF000
FFFFFFFFFFF000
FFFFFFFFFFF000
FFFFFFFFFFF000
1FFFF001FFF000
07FFF0003FF800
07FFF0001FF800
03FFF0000FF800
03FFF00007F800
03FFF00003F800
03FFF00003F800
03FFF00003F800
03FFF00001FC00
03FFF00001FC00
03FFF00001F000
03FFF000000000
03FFF000000000
03FFF000000000
03FFF000000000
03FFF001F80000
03FFF001F80000
03FFF001F80000
03FFF003F80000
03FFF003F80000
03FFF007F80000
03FFF00FF80000
03FFFFFFF80000
03FFFFFFF80000
03FFFFFFF80000
03FFFFFFF80000
03FFFFFFF80000
03FFFFFFF80000
03FFF00FF80000
03FFF007F80000
03FFF003F80000
03FFF003F80000
03FFF001F80000
03FFF001F80000
03FFF001F80000
03FFF000000000
03FFF000000000
03FFF000000000
03FFF000003800
03FFF000003F00
03FFF000003F80
03FFF000007F80
03FFF000007F00
03FFF00000FF00
03FFF00000FF00
03FFF00001FF00
03FFF80003FF00
07FFF80007FE00
07FFFC001FFE00
3FFFFFE7FFFE00
FFFFFFFFFFFE00
FFFFFFFFFFFE00
FFFFFFFFFFFE00
FFFFFFFFFFFE00
FFFFFFFFFFFC00
ENDCHAR
STARTCHAR 00CB
ENCODING 203
SWIDTH 618 0
DWIDTH 55 0
BBX 49 77 4 0
BITMAP
003F0003F00000
00FF800FF80000
01FFC01FFE0000
01FFE03FFE0000
03FFE03FFF0000
03FFF03FFF0000
03FFF03FFF0000
03FFE03FFF0000
03FFE03FFE0000
01FFE01FFE0000
00FFC00FFC0000
007F8007F80000
00000000400000
00000000000000
00000000000000
00000000000000
00000000000000
FFFFFFFFFFF000
FFFFFFFFFFF000
FFFFFFFFFFF000
FFFFFFFFFFF000
FFFFFFFFFFF000
1FFFF001FFF000
07FFF0003FF800
07FFF0001FF800
03FFF0000FF800
03FFF00007F800
03FFF00003F800
03FFF00003F800
03FFF00003F800
03FFF00001FC00
03FFF00001FC00
03FFF00001F000
03FFF000000000
03FFF000000000
03FFF000000000
03FFF000000000
03FFF001F80000
03FFF001F80000
03FFF001F80000
03FFF003F80000
03FFF003F80000
03FFF007F80000
03FFF00FF80000
03FFFFFFF80000
03FFFFFFF80000
03FFFFFFF80000
03FFFFFFF80000
03FFFFFFF80000
03FFFFFFF80000
03FFF00FF80000
03FFF007F80000
03FFF003F80000
03FFF003F80000
03FFF001F80000
03FFF001F80000
03FFF001F80000
03FFF000000000
03FFF000000000
03FFF000000000
03FFF000003800
03FFF000003F00
03FFF000003F80
03FFF000007F80
03FFF000007F00
03FFF00000FF00
03FFF00000FF00
03FFF00001FF00
03FFF80003FF00
07FFF80007FE00
07FFFC001FFE00
3FFFFFE7FFFE00
FFFFFFFFFFFE00
FFFFFFFFFFFE00
FFFFFFFFFFFE00
FFFFFFFFFFFE00
FFFFFFFFFFFC00
ENDCHAR
STARTCHAR 00CC
ENCODING 204
SWIDTH 371 0
DWIDTH 33 0
BBX 26 78 4 0
BITMAP
03F00000
3FF80000
3FF80000
1FFC0000
0FFC0000
07FC0000
03FE0000
01FE0000
00FF0000
007F0000
007F8000
003FC000
001E0000
00000000
00000000
00000000
00000000
00000000
FFFFFFC0
FFFFFFC0
FFFFFFC0
FFFFFFC0
FFFFFFC0
1FFFFE00
07FFF800
07FFF800
03FFF000
03FFF000
03FFF000
03FFF000
03FFF000
03FFF000
03FFF000
03FFF000
03FFF000
03FFF000
03FFF000
03FFF000
03FFF000
03FFF000
03FFF000
03FFF000
03FFF000
03FFF000
03FFF000
03FFF000
03FFF000
03FFF000
03FFF000
03FFF000
03FFF000
03FFF000
03FFF000
03FFF000
03FFF000
03FFF000
03FFF000
03FFF000
03FFF000
03FFF000
03FFF000
03FFF000
03FFF000
03FFF000
03FFF000
03FFF000
03FFF000
03FFF000
03FFF000
03FFF000
07FFF800
07FFF800
1FFFFE00
FFFFFFC0
FFFFFFC0
FFFFFFC0
FFFFFFC0
FFFFFFC0
ENDCHAR
STARTCHAR 00CD
ENCODING 205
SWIDTH 371 0
DWIDTH 33 0
BBX 26 78 4 0
BITMAP
0007FF80
0007FF00
0007FE00
000FFC00
000FF800
001FF000
001FF000
003FE000
003FC000
007F8000
007F0000
00FF0000
001E0000
00000000
00000000
00000000
00000000
00000000
FFFFFFC0
FFFFFFC0
FFFFFFC0
FFFFFFC0
FFFFFFC0
1FFFFE00
07FFF800
07FFF800
03FFF000
03FFF000
03FFF000
03FFF000
03FFF000
03FFF000
03FFF000
03FFF000
03FFF000
03FFF000
03FFF000
03FFF000
03FFF000
03FFF000
03FFF000
03FFF000
03FFF000
03FFF000
03FFF000
03FFF000
03FFF000
03FFF000
03FFF000
03FFF000
03FFF000
03FFF000
03FFF000
03FFF000
03FFF000
03FFF000
03FFF000
03FFF000
03FFF000
03FFF000
03FFF000
03FFF000
03FFF000
03FFF000
03FFF000
03FFF000
03FFF000
03FFF000
03FFF000
03FFF000
07FFF800
07FFF800
1FFFFE00
FFFFFFC0
FFFFFFC0
FFFFFFC0
FFFFFFC0
FFFFFFC0
ENDCHAR
STARTCHAR 00CE
ENCODING 206
SWIDTH 371 0
DWIDTH 33 0
BBX 26 78 4 0
BITMAP
000F8000
003F8000
007FC000
00FFE000
01FFF000
07FFF800
0FFFFC00
1FFFFE00
3FFFFE00
7FE7FF00
FF83FF80
FF00FFC0
FE007FC0
78003F00
10000C00
00000000
00000000
00000000
FFFFFFC0
FFFFFFC0
FFFFFFC0
FFFFFFC0
FFFFFFC0
1FFFFE00
07FFF800
07FFF800
03FFF000
03FFF000
03FFF000
03FFF000
03FFF000
03FFF000
03FFF000
03FFF000
03FFF000
03FFF000
03FFF000
03FFF000
03FFF000
03FFF000
03FFF000
03FFF000
03FFF000
03FFF000
03FFF000
03FFF000
03FFF000
03FFF000
03FFF000
03FFF000
03FFF000
03FFF000
03FFF000
03FFF000
03FFF000
03FFF000
03FFF000
03FFF000
03FFF000
03FFF000
03FFF000
03FFF000
03FFF000
03FFF000
03FFF000
03FFF000
03FFF000
03FFF000
03FFF000
03FFF000
07FFF800
07FFF800
1FFFFE00
FFFFFFC0
FFFFFFC0
FFFFFFC0
FFFFFFC0
FFFFFFC0
ENDCHAR
STARTCHAR 00CF
ENCODING 207
SWIDTH 371 0
DWIDTH 33 0
BBX 30 76 2 0
BITMAP
1FC00FC0
3FE03FF0
7FF07FF8
FFF87FFC
FFF87FFC
FFF8FFFC
FFF87FFC
FFF87FFC
FFF87FF8
7FF03FF8
3FE01FF0
070003C0
00000000
00000000
00000000
00000000
3FFFFFF0
3FFFFFF0
3FFFFFF0
3FFFFFF0
3FFFFFF0
07FFFF80
01FFFE00
01FFFE00
00FFFC00
00FFFC00
00FFFC00
00FFFC00
00FFFC00
00FFFC00
00FFFC00
00FFFC00
00FFFC00
00FFFC00
00FFFC00
00FFFC00
00FFFC00
00FFFC00
00FFFC00
00FFFC00
00FFFC00
00FFFC00
00FFFC00
00FFFC00
00FFFC00
00FFFC00
00FFFC00
00FFFC00
00FFFC00
00FFFC00
00FFFC00
00FFFC00
00FFFC00
00FFFC00
00FFFC00
00FFFC00
00FFFC00
00FFFC00
00FFFC00
00FFFC00
00FFFC00
00FFFC00
00FFFC00
00FFFC00
00FFFC00
00FFFC00
00FFFC00
00FFFC00
01FFFE00
01FFFE00
07FFFF80
3FFFFFF0
3FFFFFF0
3FFFFFF0
3FFFFFF0
3FFFFFF0
ENDCHAR
STARTCHAR 00D0
ENCODING 208
SWIDTH 731 0
DWIDTH 65 0
BBX 60 60 2 0
BITMAP
3FFFFFFFFC000000
3FFFFFFFFFC00000
3FFFFFFFFFF80000
3FFFFFFFFFFF0000
3FFFFFFFFFFF8000
07FFFC00FFFFE000
01FFFC001FFFF000
01FFFC0007FFF800
00FFFC0003FFFC00
00FFFC0000FFFE00
00FFFC00007FFF00
00FFFC00007FFF00
00FFFC00003FFF80
00FFFC00001FFF80
00FFFC00001FFFC0
00FFFC00000FFFC0
00FFFC00000FFFE0
00FFFC000007FFE0
00FFFC000007FFE0
00FFFC000007FFE0
00FFFC000007FFF0
00FFFC000003FFF0
00FFFC000003FFF0
00FFFC000003FFF0
00FFFC000003FFF0
00FFFC000003FFF0
00FFFC000003FFF0
7FFFFFFFC003FFF0
7FFFFFFFC003FFF0
7FFFFFFF8003FFF0
7FFFFFFF8003FFF0
7FFFFFFF8003FFF0
FFFFFFFF8003FFF0
00FFFC000003FFF0
00FFFC000003FFF0
00FFFC000003FFF0
00FFFC000003FFE0
00FFFC000003FFE0
00FFFC000003FFE0
00FFFC000003FFE0
00FFFC000007FFE0
00FFFC000007FFC0
00FFFC000007FFC0
00FFFC000007FF80
00FFFC00000FFF80
00FFFC00000FFF00
00FFFC00001FFF00
00FFFC00001FFE00
00FFFC00003FFE00
00FFFC00007FFC00
00FFFC0000FFF800
00FFFE0001FFF000
01FFFE0003FFE000
01FFFF000FFFC000
0FFFFFFBFFFF0000
3FFFFFFFFFFC0000
3FFFFFFFFFF00000
3FFFFFFFFFC00000
3FFFFFFFFE000000
3FFFFFFFC0000000
ENDCHAR
STARTCHAR 00D1
ENCODING 209
SWIDTH 720 0
DWIDTH 64 0
BBX 58 78 3 -1
BITMAP
000007F800000000
00003FFE00780000
00007FFF80FC0000
0001FFFFFFFC0000
0003FFFFFFF80000
0003FFFFFFF00000
0007FFFFFFF00000
0007F8FFFFE00000
0003C03FFFC00000
0003800FFF000000
00010001FC000000
0000000000000000
0000000000000000
0000000000000000
0000000000000000
0000000000000000
0000000000000000
FFFFC00001FFFFC0
FFFFE00001FFFFC0
FFFFF00001FFFFC0
FFFFF00000FFFFC0
FFFFF80000FFFFC0
1FFFFC00001FFF00
07FFFE00000FFC00
03FFFE000007FC00
01FFFF000003F800
01FFFF800003F800
01FFFFC00003F800
01FFFFC00003F800
01FFFFE00001F800
01FFFFF00001F000
01FFFFF80001F000
01FFFFF80001F000
01FFFFFC0001F000
01FBFFFE0001F000
01F9FFFE0001F000
01F9FFFF0001F000
01F8FFFF8001F000
01F87FFFC001F000
01F83FFFC001F000
01F83FFFE001F000
01F81FFFF001F000
01F80FFFF801F000
01F807FFF801F000
01F807FFFC01F000
01F803FFFE01F000
01F801FFFF01F000
01F800FFFF01F000
01F800FFFF81F000
01F8007FFFC1F000
01F8003FFFE1F000
01F8001FFFE1F000
01F8001FFFF1F000
01F8000FFFF9F000
01F80007FFFDF000
01F80003FFFDF000
01F80003FFFFF000
01F80001FFFFF000
01F80000FFFFF000
01F800007FFFF000
01F800007FFFF000
01F800003FFFF000
01F800001FFFF000
01F800000FFFF000
01F800000FFFF000
01F8000007FFF000
01F8000003FFF000
01FC000001FFF000
03FC000001FFF000
03FE000000FFF000
07FE0000007FF000
1FFF8000003FF000
FFFFF000003FF000
FFFFF000001FF000
FFFFF000000FF000
FFFFF0000007F000
FFFFF0000007F000
000000000003E000
ENDCHAR
STARTCHAR 00D2
ENCODING 210
SWIDTH 742 0
DWIDTH 66 0
BBX 60 79 3 -1
BITMAP
000001F800000000
00001FFC00000000
00001FFC00000000
00000FFE00000000
000007FE00000000
000003FF00000000
000001FF00000000
000000FF80000000
0000007F80000000
0000003FC0000000
0000003FC0000000
0000001FE0000000
0000000F00000000
0000000000000000
0000000000000000
0000000000000000
0000000000000000
0000007FE0000000
00000FFFFF000000
00003FFFFFE00000
0001FFFFFFF80000
0003FFFFFFFE0000
000FFFFFFFFF0000
001FFF007FFFC000
003FFC001FFFE000
007FF80007FFF000
00FFF00003FFF800
01FFE00001FFFC00
03FFC00000FFFE00
07FFC000007FFE00
07FF8000007FFF00
0FFF8000003FFF80
0FFF0000001FFF80
1FFF0000001FFFC0
1FFE0000000FFFC0
3FFE0000000FFFC0
3FFE0000000FFFE0
7FFE00000007FFE0
7FFC00000007FFE0
7FFC00000007FFE0
7FFC00000007FFF0
7FFC00000003FFF0
FFFC00000003FFF0
FFFC00000003FFF0
FFFC00000003FFF0
FFFC00000003FFF0
FFFC00000003FFF0
FFFC00000003FFF0
FFFC00000003FFF0
FFFC00000003FFF0
FFFC00000003FFF0
FFFC00000003FFF0
FFFC00000003FFF0
FFFE00000003FFF0
7FFE00000003FFF0
7FFE00000003FFE0
7FFE00000003FFE0
7FFE00000003FFE0
3FFF00000007FFE0
3FFF00000007FFC0
3FFF00000007FFC0
1FFF80000007FF80
1FFF8000000FFF80
0FFFC000000FFF00
0FFFC000001FFF00
07FFE000001FFE00
07FFE000003FFE00
03FFF000003FFC00
01FFF800007FF800
00FFFC0000FFF000
007FFE0001FFE000
003FFF8007FFC000
001FFFE01FFF8000
000FFFFFFFFF0000
0003FFFFFFFC0000
0000FFFFFFF80000
00003FFFFFC00000
000007FFFF000000
0000003FE0000000
ENDCHAR
STARTCHAR 00D3
ENCODING 211
SWIDTH 742 0
DWIDTH 66 0
BBX 60 79 3 -1
BITMAP
00000001FFC00000
00000003FF800000
00000003FF000000
00000007FE000000
00000007FE000000
00000007FC000000
0000000FF8000000
0000000FF0000000
0000001FE0000000
0000001FC0000000
0000003FC0000000
0000003F80000000
0000000F00000000
0000000000000000
0000000000000000
0000000000000000
0000000000000000
0000007FE0000000
00000FFFFF000000
00003FFFFFE00000
0001FFFFFFF80000
0003FFFFFFFE0000
000FFFFFFFFF0000
001FFF007FFFC000
003FFC001FFFE000
007FF80007FFF000
00FFF00003FFF800
01FFE00001FFFC00
03FFC00000FFFE00
07FFC000007FFE00
07FF8000007FFF00
0FFF8000003FFF80
0FFF0000001FFF80
1FFF0000001FFFC0
1FFE0000000FFFC0
3FFE0000000FFFC0
3FFE0000000FFFE0
7FFE00000007FFE0
7FFC00000007FFE0
7FFC00000007FFE0
7FFC00000007FFF0
7FFC00000003FFF0
FFFC00000003FFF0
FFFC00000003FFF0
FFFC00000003FFF0
FFFC00000003FFF0
FFFC00000003FFF0
FFFC00000003FFF0
FFFC00000003FFF0
FFFC00000003FFF0
FFFC00000003FFF0
FFFC00000003FFF0
FFFC00000003FFF0
FFFE00000003FFF0
7FFE00000003FFF0
7FFE00000003FFE0
7FFE00000003FFE0
7FFE00000003FFE0
3FFF00000007FFE0
3FFF00000007FFC0
3FFF00000007FFC0
1FFF80000007FF80
1FFF8000000FFF80
0FFFC000000FFF00
0FFFC000001FFF00
07FFE000001FFE00
07FFE000003FFE00
03FFF000003FFC00
01FFF800007FF800
00FFFC0000FFF000
007FFE0001FFE000
003FFF8007FFC000
001FFFE01FFF8000
000FFFFFFFFF0000
0003FFFFFFFC0000
0000FFFFFFF80000
00003FFFFFC00000
000007FFFF000000
0000003FE0000000
ENDCHAR
STARTCHAR 00D4
ENCODING 212
SWIDTH 742 0
DWIDTH 66 0
BBX 60 80 3 -1
BITMAP
00000003C0000000
0000001FE0000000
0000003FF0000000
0000007FF8000000
000001FFFC000000
000003FFFE000000
000007FFFF000000
00001FFFFF800000
00003FFFFFE00000
0000FFF1FFF00000
0001FFC07FF80000
0001FF001FF80000
0000FC0007F00000
0000700003C00000
0000000000000000
0000000000000000
0000000000000000
0000000000000000
0000007FE0000000
00000FFFFF000000
00003FFFFFE00000
0001FFFFFFF80000
0003FFFFFFFE0000
000FFFFFFFFF0000
001FFF007FFFC000
003FFC001FFFE000
007FF80007FFF000
00FFF00003FFF800
01FFE00001FFFC00
03FFC00000FFFE00
07FFC000007FFE00
07FF8000007FFF00
0FFF8000003FFF80
0FFF0000001FFF80
1FFF0000001FFFC0
1FFE0000000FFFC0
3FFE0000000FFFC0
3FFE0000000FFFE0
7FFE00000007FFE0
7FFC00000007FFE0
7FFC00000007FFE0
7FFC00000007FFF0
7FFC00000003FFF0
FFFC00000003FFF0
FFFC00000003FFF0
FFFC00000003FFF0
FFFC00000003FFF0
FFFC00000003FFF0
FFFC00000003FFF0
FFFC00000003FFF0
FFFC00000003FFF0
FFFC00000003FFF0
FFFC00000003FFF0
FFFC00000003FFF0
FFFE00000003FFF0
7FFE00000003FFF0
7FFE00000003FFE0
7FFE00000003FFE0
7FFE00000003FFE0
3FFF00000007FFE0
3FFF00000007FFC0
3FFF00000007FFC0
1FFF80000007FF80
1FFF8000000FFF80
0FFFC000000FFF00
0FFFC000001FFF00
07FFE000001FFE00
07FFE000003FFE00
03FFF000003FFC00
01FFF800007FF800
00FFFC0000FFF000
007FFE0001FFE000
003FFF8007FFC000
001FFFE01FFF8000
000FFFFFFFFF0000
0003FFFFFFFC0000
0000FFFFFFF80000
00003FFFFFC00000
000007FFFF000000
0000003FE0000000
ENDCHAR
STARTCHAR 00D5
ENCODING 213
SWIDTH 742 0
DWIDTH 66 0
BBX 60 78 3 -1
BITMAP
000007F800000000
00001FFF00380000
00007FFFC0FE0000
0000FFFFFFFC0000
0001FFFFFFFC0000
0003FFFFFFF80000
0003FFFFFFF00000
0003F8FFFFE00000
0003E01FFFC00000
00018007FF800000
00000001FE000000
0000000000000000
0000000000000000
0000000000000000
0000000000000000
0000000000000000
0000007FE0000000
00000FFFFF000000
00003FFFFFE00000
0001FFFFFFF80000
0003FFFFFFFE0000
000FFFFFFFFF0000
001FFF007FFFC000
003FFC001FFFE000
007FF80007FFF000
00FFF00003FFF800
01FFE00001FFFC00
03FFC00000FFFE00
07FFC000007FFE00
07FF8000007FFF00
0FFF8000003FFF80
0FFF0000001FFF80
1FFF0000001FFFC0
1FFE0000000FFFC0
3FFE0000000FFFC0
3FFE0000000FFFE0
7FFE00000007FFE0
7FFC00000007FFE0
7FFC00000007FFE0
7FFC00000007FFF0
7FFC00000003FFF0
FFFC00000003FFF0
FFFC00000003FFF0
FFFC00000003FFF0
FFFC00000003FFF0
FFFC00000003FFF0
FFFC00000003FFF0
FFFC00000003FFF0
FFFC00000003FFF0
FFFC00000003FFF0
FFFC00000003FFF0
FFFC00000003FFF0
FFFE00000003FFF0
7FFE00000003FFF0
7FFE00000003FFE0
7FFE00000003FFE0
7FFE00000003FFE0
3FFF00000007FFE0
3FFF00000007FFC0
3FFF00000007FFC0
1FFF80000007FF80
1FFF8000000FFF80
0FFFC000000FFF00
0FFFC000001FFF00
07FFE000001FFE00
07FFE000003FFE00
03FFF000003FFC00
01FFF800007FF800
00FFFC0000FFF000
007FFE0001FFE000
003FFF8007FFC000
001FFFE01FFF8000
000FFFFFFFFF0000
0003FFFFFFFC0000
0000FFFFFFF80000
00003FFFFFC00000
000007FFFF000000
0000003FE0000000
ENDCHAR
STARTCHAR 00D6
ENCODING 214
SWIDTH 742 0
DWIDTH 66 0
BBX 60 78 3 -1
BITMAP
00007E0007E00000
0000FF801FF80000
0001FFC03FFC0000
0003FFC03FFE0000
0003FFE07FFE0000
0007FFE07FFE0000
0007FFE07FFE0000
0007FFE07FFE0000
0003FFE03FFE0000
0003FFC03FFC0000
0001FF801FFC0000
0000FF000FF80000
0000080001800000
0000000000000000
0000000000000000
0000000000000000
0000007FE0000000
00000FFFFF000000
00003FFFFFE00000
0001FFFFFFF80000
0003FFFFFFFE0000
000FFFFFFFFF0000
001FFF007FFFC000
003FFC001FFFE000
007FF80007FFF000
00FFF00003FFF800
01FFE00001FFFC00
03FFC00000FFFE00
07FFC000007FFE00
07FF8000007FFF00
0FFF8000003FFF80
0FFF0000001FFF80
1FFF0000001FFFC0
1FFE0000000FFFC0
3FFE0000000FFFC0
3FFE0000000FFFE0
7FFE00000007FFE0
7FFC00000007FFE0
7FFC00000007FFE0
7FFC00000007FFF0
7FFC00000003FFF0
FFFC00000003FFF0
FFFC00000003FFF0
FFFC00000003FFF0
FFFC00000003FFF0
FFFC00000003FFF0
FFFC00000003FFF0
FFFC00000003FFF0
FFFC00000003FFF0
FFFC00000003FFF0
FFFC00000003FFF0
FFFC00000003FFF0
FFFE00000003FFF0
7FFE00000003FFF0
7FFE00000003FFE0
7FFE00000003FFE0
7FFE00000003FFE0
3FFF00000007FFE0
3FFF00000007FFC0
3FFF00000007FFC0
1FFF80000007FF80
1FFF8000000FFF80
0FFFC000000FFF00
0FFFC000001FFF00
07FFE000001FFE00
07FFE000003FFE00
03FFF000003FFC00
01FFF800007FF800
00FFFC0000FFF000
007FFE0001FFE000
003FFF8007FFC000
001FFFE01FFF8000
000FFFFFFFFF0000
0003FFFFFFFC0000
0000FFFFFFF80000
00003FFFFFC00000
000007FFFF000000
0000003FE0000000
ENDCHAR
STARTCHAR 00D7
ENCODING 215
SWIDTH 540 0
DWIDTH 48 0
BBX 42 42 4 2
BITMAP
080000001C00
7C0000003F80
FE0000007F80
FF000000FF00
7F800001FE00
3FC00003FC00
1FE00007F800
1FF0000FF800
0FF8001FF000
07FC001FE000
03FE003FC000
01FF007F8000
00FF80FF0000
007F81FE0000
003FC3FC0000
001FE7F80000
000FFFF00000
0007FFE00000
0003FFC00000
0001FFC00000
0000FF800000
0000FF800000
0001FFC00000
0003FFE00000
0007FFF00000
000FFFF80000
001FE7F80000
003FC3FC0000
003FC1FE0000
007F80FF0000
00FF007F8000
01FE003FC000
03FC001FE000
07F8000FF000
0FF00007F800
1FE00007FC00
3FE00003FE00
7FC00001FF00
7F800000FF80
FF0000007FC0
FE0000003F00
7C0000001E00
ENDCHAR
STARTCHAR 00D8
ENCODING 216
SWIDTH 742 0
DWIDTH 66 0
BBX 60 64 3 -2
BITMAP
0000000000001F80
0000007FF0003FE0
00000FFFFF003FC0
00003FFFFFE07F80
0001FFFFFFF8FF00
0003FFFFFFFFFF00
000FFFFFFFFFFE00
001FFF003FFFFC00
003FFC000FFFF800
007FF80007FFF000
00FFF00003FFF800
01FFE00001FFFC00
03FFC00000FFFE00
07FFC000007FFE00
07FF800000FFFF00
0FFF800001FFFF80
0FFF000003FFFF80
1FFF000007FFFFC0
1FFE000007FFFFC0
3FFE00000FFFFFC0
3FFE00001FEFFFE0
7FFE00003FE7FFE0
7FFC00003FC7FFE0
7FFC00007F87FFF0
7FFC0000FF07FFF0
7FFC0001FF03FFF0
FFFC0001FE03FFF0
FFFC0003FC03FFF0
FFFC0007F803FFF0
FFFC000FF003FFF0
FFFC000FF003FFF0
FFFC001FE003FFF0
FFFC003FC003FFF0
FFFC007F8003FFF0
FFFC00FF8003FFF0
FFFC00FF0003FFF0
FFFC01FE0003FFF0
FFFE03FC0003FFF0
7FFE07FC0003FFF0
7FFE07F80003FFE0
7FFE0FF00003FFE0
7FFE1FE00003FFE0
3FFF3FC00007FFE0
3FFF3FC00007FFC0
3FFF7F800007FFC0
1FFFFF000007FF80
1FFFFE00000FFF80
0FFFFE00000FFF00
0FFFFC00001FFF00
07FFF800001FFE00
07FFF000003FFE00
03FFF000003FFC00
01FFF800007FF800
00FFFC0000FFF000
00FFFE0001FFE000
00FFFF8007FFC000
01FFFFE01FFF8000
03FFFFFFFFFF0000
07FBFFFFFFFC0000
0FF8FFFFFFF80000
1FF03FFFFFC00000
1FE00FFFFF000000
3FC0007FE0000000
0F80000000000000
ENDCHAR
STARTCHAR 00D9
ENCODING 217
SWIDTH 675 0
DWIDTH 60 0
BBX 55 79 3 -1
BITMAP
000000FC000000
00000FFE000000
00000FFE000000
000007FF000000
000003FF000000
000001FF800000
000000FF800000
0000007FC00000
0000003FC00000
0000001FE00000
0000001FE00000
0000000FF00000
00000007800000
00000000000000
00000000000000
00000000000000
00000000000000
00000000000000
FFFFFFC007FFFE
FFFFFF8007FFFE
FFFFFF8007FFFE
FFFFFF8007FFFE
FFFFFF8007FFFC
3FFFFE0001FFF0
0FFFF800007FE0
07FFF000003FC0
07FFF000003FC0
03FFE000001F80
03FFE000001F80
03FFE000001F80
03FFE000001F80
03FFE000001F80
03FFE000001F80
03FFE000001F80
03FFE000001F80
03FFE000001F80
03FFE000001F80
03FFE000001F80
03FFE000001F80
03FFE000001F80
03FFE000001F80
03FFE000001F80
03FFE000001F80
03FFE000001F80
03FFE000001F80
03FFE000001F80
03FFE000001F80
03FFE000001F80
03FFE000001F80
03FFE000001F80
03FFE000001F80
03FFE000001F80
03FFE000001F80
03FFE000001F80
03FFE000001F80
03FFE000001F80
03FFE000001F80
03FFE000001F80
03FFE000001F80
03FFE000001F80
03FFE000001F80
03FFF000001F80
03FFF000001F00
03FFF000003F00
03FFF000003F00
01FFF800003F00
01FFF800003F00
01FFF800007E00
00FFFC00007E00
00FFFE0000FE00
007FFF0001FC00
007FFFC007FC00
003FFFF83FF800
001FFFFFFFF000
000FFFFFFFE000
0007FFFFFFC000
0001FFFFFF0000
00003FFFFC0000
000001FFC00000
ENDCHAR
STARTCHAR 00DA
ENCODING 218
SWIDTH 675 0
DWIDTH 60 0
BBX 55 79 3 -1
BITMAP
00000000FFE000
00000001FFC000
00000001FF8000
00000003FF0000
00000003FE0000
00000007FE0000
00000007FC0000
00000007F80000
0000000FF00000
0000000FE00000
0000001FE00000
0000003FC00000
00000007800000
00000000000000
00000000000000
00000000000000
00000000000000
00000000000000
FFFFFFC007FFFE
FFFFFF8007FFFE
FFFFFF8007FFFE
FFFFFF8007FFFE
FFFFFF8007FFFC
3FFFFE0001FFF0
0FFFF800007FE0
07FFF000003FC0
07FFF000003FC0
03FFE000001F80
03FFE000001F80
03FFE000001F80
03FFE000001F80
03FFE000001F80
03FFE000001F80
03FFE000001F80
03FFE000001F80
03FFE000001F80
03FFE000001F80
03FFE000001F80
03FFE000001F80
03FFE000001F80
03FFE000001F80
03FFE000001F80
03FFE000001F80
03FFE000001F80
03FFE000001F80
03FFE000001F80
03FFE000001F80
03FFE000001F80
03FFE000001F80
03FFE000001F80
03FFE000001F80
03FFE000001F80
03FFE000001F80
03FFE000001F80
03FFE000001F80
03FFE000001F80
03FFE000001F80
03FFE000001F80
03FFE000001F80
03FFE000001F80
03FFE000001F80
03FFF000001F80
03FFF000001F00
03FFF000003F00
03FFF000003F00
01FFF800003F00
01FFF800003F00
01FFF800007E00
00FFFC00007E00
00FFFE0000FE00
007FFF0001FC00
007FFFC007FC00
003FFFF83FF800
001FFFFFFFF000
000FFFFFFFE000
0007FFFFFFC000
0001FFFFFF0000
00003FFFFC0000
000001FFC00000
ENDCHAR
STARTCHAR 00DB
ENCODING 219
SWIDTH 675 0
DWIDTH 60 0
BBX 55 80 3 -1
BITMAP
00000001C00000
0000000FE00000
0000001FF80000
0000003FFC0000
000000FFFE0000
000001FFFF0000
000003FFFF8000
00000FFFFFC000
00001FFFFFF000
00007FF8FFF800
0000FFE03FFC00
0000FF800FFC00
00007E0003F800
0000380001E000
00000000000000
00000000000000
00000000000000
00000000000000
00000000000000
FFFFFFC007FFFE
FFFFFF8007FFFE
FFFFFF8007FFFE
FFFFFF8007FFFE
FFFFFF8007FFFC
3FFFFE0001FFF0
0FFFF800007FE0
07FFF000003FC0
07FFF000003FC0
03FFE000001F80
03FFE000001F80
03FFE000001F80
03FFE000001F80
03FFE000001F80
03FFE000001F80
03FFE000001F80
03FFE000001F80
03FFE000001F80
03FFE000001F80
03FFE000001F80
03FFE000001F80
03FFE000001F80
03FFE000001F80
03FFE000001F80
03FFE000001F80
03FFE000001F80
03FFE000001F80
03FFE000001F80
03FFE000001F80
03FFE000001F80
03FFE000001F80
03FFE000001F80
03FFE000001F80
03FFE000001F80
03FFE000001F80
03FFE000001F80
03FFE000001F80
03FFE000001F80
03FFE000001F80
03FFE000001F80
03FFE000001F80
03FFE000001F80
03FFE000001F80
03FFF000001F80
03FFF000001F00
03FFF000003F00
03FFF000003F00
01FFF800003F00
01FFF800003F00
01FFF800007E00
00FFFC00007E00
00FFFE0000FE00
007FFF0001FC00
007FFFC007FC00
003FFFF83FF800
001FFFFFFFF000
000FFFFFFFE000
0007FFFFFFC000
0001FFFFFF0000
00003FFFFC0000
000001FFC00000
ENDCHAR
STARTCHAR 00DC
ENCODING 220
SWIDTH 675 0
DWIDTH 60 0
BBX 55 78 3 -1
BITMAP
00003F0003F000
0000FFC00FFC00
0001FFE01FFE00
0001FFE01FFE00
0001FFF03FFF00
0003FFF03FFF00
0003FFF03FFF00
0003FFF03FFF00
0001FFE01FFF00
0001FFE01FFE00
0000FFC00FFE00
00007F8007F800
00000000006000
00000000000000
00000000000000
00000000000000
00000000000000
FFFFFFC007FFFE
FFFFFF8007FFFE
FFFFFF8007FFFE
FFFFFF8007FFFE
FFFFFF8007FFFC
3FFFFE0001FFF0
0FFFF800007FE0
07FFF000003FC0
07FFF000003FC0
03FFE000001F80
03FFE000001F80
03FFE000001F80
03FFE000001F80
03FFE000001F80
03FFE000001F80
03FFE000001F80
03FFE000001F80
03FFE000001F80
03FFE000001F80
03FFE000001F80
03FFE000001F80
03FFE000001F80
03FFE000001F80
03FFE000001F80
03FFE000001F80
03FFE000001F80
03FFE000001F80
03FFE000001F80
03FFE000001F80
03FFE000001F80
03FFE000001F80
03FFE000001F80
03FFE000001F80
03FFE000001F80
03FFE000001F80
03FFE000001F80
03FFE000001F80
03FFE000001F80
03FFE000001F80
03FFE000001F80
03FFE000001F80
03FFE000001F80
03FFE000001F80
03FFF000001F80
03FFF000001F00
03FFF000003F00
03FFF000003F00
01FFF800003F00
01FFF800003F00
01FFF800007E00
00FFFC00007E00
00FFFE0000FE00
007FFF0001FC00
007FFFC007FC00
003FFFF83FF800
001FFFFFFFF000
000FFFFFFFE000
0007FFFFFFC000
0001FFFFFF0000
00003FFFFC0000
000001FFC00000
ENDCHAR
STARTCHAR 00DD
ENCODING 221
SWIDTH 630 0
DWIDTH 56 0
BBX 53 78 2 0
BITMAP
00000001FFC000
00000003FF8000
00000003FF0000
00000007FE0000
00000007FC0000
00000007FC0000
0000000FF80000
0000000FF00000
0000001FE00000
0000001FC00000
0000003FC00000
0000003F800000
0000000F000000
00000000000000
00000000000000
00000000000000
00000000000000
00000000000000
FFFFFF800FFFF8
FFFFFF800FFFF8
FFFFFF800FFFF0
FFFFFF800FFFF0
FFFFFF800FFFF0
3FFFFC0003FFE0
0FFFF80000FF80
07FFF80000FF00
07FFF80000FE00
03FFFC0000FE00
03FFFC0000FC00
01FFFC0001FC00
01FFFE0001F800
00FFFE0001F800
00FFFF0003F000
007FFF0003F000
007FFF8007E000
003FFF8007E000
003FFF800FC000
001FFFC00FC000
001FFFC01F8000
000FFFE01F8000
000FFFE03F0000
0007FFF03F0000
0007FFF03E0000
0003FFF87E0000
0003FFF87C0000
0001FFF8FC0000
0001FFFCF80000
0000FFFDF80000
0000FFFFF00000
00007FFFF00000
00007FFFF00000
00003FFFE00000
00003FFFE00000
00001FFFC00000
00001FFFC00000
00000FFF800000
00000FFF800000
00000FFF800000
00000FFF800000
00000FFF800000
00000FFF800000
00000FFF800000
00000FFF800000
00000FFF800000
00000FFF800000
00000FFF800000
00000FFF800000
00000FFF800000
00001FFFC00000
00001FFFC00000
00001FFFC00000
00003FFFF00000
0003FFFFFC0000
001FFFFFFF8000
001FFFFFFF8000
001FFFFFFFC000
001FFFFFFFC000
001FFFFFFFC000
ENDCHAR
STARTCHAR 00DE
ENCODING 222
SWIDTH 630 0
DWIDTH 56 0
BBX 50 60 4 0
BITMAP
FFFFFFC0000000
FFFFFFC0000000
FFFFFFC0000000
FFFFFFC0000000
FFFFFFC0000000
1FFFFE00000000
07FFF800000000
07FFF000000000
03FFF000000000
03FFF000000000
03FFF000000000
03FFF000000000
03FFFFFFF80000
03FFFFFFFF0000
03FFFFFFFFC000
03FFFFFFFFF000
03FFFFFFFFF800
03FFF00FFFFC00
03FFF001FFFE00
03FFF0007FFE00
03FFF0003FFF00
03FFF0003FFF00
03FFF0001FFF80
03FFF0000FFF80
03FFF0000FFF80
03FFF0000FFF80
03FFF0000FFFC0
03FFF00007FFC0
03FFF00007FFC0
03FFF00007FFC0
03FFF00007FF80
03FFF00007FF80
03FFF00007FF80
03FFF0000FFF80
03FFF0000FFF80
03FFF0000FFF00
03FFF0001FFF00
03FFF0001FFE00
03FFF0003FFC00
03FFF0007FFC00
03FFF001FFF800
03FFF1FFFFF000
03FFF1FFFFE000
03FFF1FFFF8000
03FFF1FFFE0000
03FFF1FFF80000
03FFF03E000000
03FFF000000000
03FFF000000000
03FFF000000000
03FFF000000000
03FFF800000000
07FFFC00000000
07FFFE00000000
1FFFFFC0000000
FFFFFFF8000000
FFFFFFF8000000
FFFFFFF8000000
FFFFFFF8000000
FFFFFFF8000000
ENDCHAR
STARTCHAR 00DF
ENCODING 223
SWIDTH 675 0
DWIDTH 60 0
BBX 55 65 3 -1
BITMAP
0000001E000000
00000FFFF80000
00003FFFFF0000
0000FFFFFFC000
0003FFFFFFE000
0007FFFFFFF000
000FFE03FFF800
001FFC00FFF800
003FF8007FFC00
003FF0003FFC00
007FF0001FFC00
007FF0001FFC00
00FFF0000FFC00
00FFF0000FFC00
00FFF0000FFC00
01FFE0000FFC00
01FFF0000FFC00
01FFE0000FF800
01FFE0001FF000
01FFE0001FF000
01FFE0003FE000
01FFE0007F8000
01FFE001FF0000
01FFE003FE0000
7FFFE00FFC0000
FFFFE01FF80000
FFFFE03FF00000
FFFFE03FF00000
FFFFE07FF00000
FFFFE07FF00000
03FFE0FFF80000
01FFE0FFFC0000
01FFE0FFFE0000
01FFE0FFFF8000
01FFE0FFFFE000
01FFE07FFFF800
01FFE07FFFFE00
01FFE07FFFFF00
01FFE03FFFFF80
01FFE01FFFFFE0
01FFE01FFFFFF0
01FFE007FFFFF0
01FFE003FFFFF8
01FFE000FFFFF8
01FFE0007FFFFC
01FFE0001FFFFC
01FFE00007FFFC
01FFE00003FFFE
01FFE00000FFFE
01FFE002007FFE
01FFE0FE007FFE
01FFE0FE003FFE
01FFE0FE003FFC
01FFE0FE003FFC
03FFE0FF003FFC
03FFE0FF003FF8
03FFE0FF003FF8
07FFE0FF807FF0
1FFFE0FFC0FFF0
7FFFE0FFFBFFE0
FFFFE0FFFFFF80
FFFFE0FFFFFF00
FFFFE07FFFFC00
FFFFE00FFFF000
00000000FF0000
ENDCHAR
STARTCHAR 00E0
ENCODING 224
SWIDTH 540 0
DWIDTH 48 0
BBX 42 65 6 -1
BITMAP
000600000000
03FF00000000
0FFF00000000
07FF00000000
03FF80000000
01FF80000000
00FF80000000
007FC0000000
007FC0000000
003FE0000000
001FE0000000
000FF0000000
000FF0000000
0007F0000000
0003F8000000
0003FC000000
000180000000
000000000000
000000000000
000000000000
000000000000
000000000000
00001C000000
0001FFF00000
0007FFFC0000
001FFFFE0000
007FFFFF0000
00FFFFFF8000
03FFFFFFC000
07F03FFFC000
0FF00FFFE000
1FF007FFE000
3FF007FFE000
7FF003FFE000
FFF003FFE000
FFF003FFE000
FFF003FFE000
FFF003FFE000
FFF003FFE000
000003FFE000
00001FFFE000
00007FFFE000
0001FFFFE000
000FFFFFE000
003FFBFFE000
00FFE3FFE000
07FF83FFE000
1FFE03FFE000
3FF803FFE000
7FF803FFE000
7FF803FFE000
FFF803FFE000
FFF803FFE000
FFF803FFE000
FFF803FFF000
FFF803FFF800
FFFC03FFFE00
FFFC03FFFFC0
7FFF1FFFFFC0
7FFFFFFFFFC0
3FFFFDFFFFC0
3FFFF9FFFF80
1FFFE0FFFE00
07FF807FF000
0078001F0000
ENDCHAR
STARTCHAR 00E1
ENCODING 225
SWIDTH 540 0
DWIDTH 48 0
BBX 42 65 6 -1
BITMAP
000007FE0000
00003FFC0000
00003FF80000
00003FF00000
00003FE00000
00007FE00000
00007FC00000
00007F800000
0000FF000000
0000FF000000
0001FE000000
0001FC000000
0003FC000000
0003F8000000
0007F0000000
0007F0000000
0001E0000000
000000000000
000000000000
000000000000
000000000000
000000000000
00001C000000
0001FFF00000
0007FFFC0000
001FFFFE0000
007FFFFF0000
00FFFFFF8000
03FFFFFFC000
07F03FFFC000
0FF00FFFE000
1FF007FFE000
3FF007FFE000
7FF003FFE000
FFF003FFE000
FFF003FFE000
FFF003FFE000
FFF003FFE000
FFF003FFE000
000003FFE000
00001FFFE000
00007FFFE000
0001FFFFE000
000FFFFFE000
003FFBFFE000
00FFE3FFE000
07FF83FFE000
1FFE03FFE000
3FF803FFE000
7FF803FFE000
7FF803FFE000
FFF803FFE000
FFF803FFE000
FFF803FFE000
FFF803FFF000
FFF803FFF800
FFFC03FFFE00
FFFC03FFFFC0
7FFF1FFFFFC0
7FFFFFFFFFC0
3FFFFDFFFFC0
3FFFF9FFFF80
1FFFE0FFFE00
07FF807FF000
0078001F0000
ENDCHAR
STARTCHAR 00E2
ENCODING 226
SWIDTH 540 0
DWIDTH 48 0
BBX 42 65 6 -1
BITMAP
000018000000
0001FC000000
0003FC000000
0007FE000000
000FFF000000
001FFF800000
003FFFC00000
007FFFE00000
00FFFFF00000
03FFFFF80000
07FF3FFC0000
0FFC1FFE0000
1FF007FF0000
7FE003FF8000
7F8000FFC000
7F00007FC000
3C00001F0000
1800000C0000
000000000000
000000000000
000000000000
000000000000
00001C000000
0001FFF00000
0007FFFC0000
001FFFFE0000
007FFFFF0000
00FFFFFF8000
03FFFFFFC000
07F03FFFC000
0FF00FFFE000
1FF007FFE000
3FF007FFE000
7FF003FFE000
FFF003FFE000
FFF003FFE000
FFF003FFE000
FFF003FFE000
FFF003FFE000
000003FFE000
00001FFFE000
00007FFFE000
0001FFFFE000
000FFFFFE000
003FFBFFE000
00FFE3FFE000
07FF83FFE000
1FFE03FFE000
3FF803FFE000
7FF803FFE000
7FF803FFE000
FFF803FFE000
FFF803FFE000
FFF803FFE000
FFF803FFF000
FFF803FFF800
FFFC03FFFE00
FFFC03FFFFC0
7FFF1FFFFFC0
7FFFFFFFFFC0
3FFFFDFFFFC0
3FFFF9FFFF80
1FFFE0FFFE00
07FF807FF000
0078001F0000
ENDCHAR
STARTCHAR 00E3
ENCODING 227
SWIDTH 540 0
DWIDTH 48 0
BBX 42 61 6 -1
BITMAP
01FE00000000
07FF80070000
0FFFE00FC000
1FFFFC3F8000
3FFFFFFF8000
7FFFFFFF0000
FFFFFFFE0000
FF1FFFFC0000
F803FFF80000
7000FFF00000
60003FE00000
000002000000
000000000000
000000000000
000000000000
000000000000
000000000000
000000000000
00001C000000
0001FFF00000
0007FFFC0000
001FFFFE0000
007FFFFF0000
00FFFFFF8000
03FFFFFFC000
07F03FFFC000
0FF00FFFE000
1FF007FFE000
3FF007FFE000
7FF003FFE000
FFF003FFE000
FFF003FFE000
FFF003FFE000
FFF003FFE000
FFF003FFE000
000003FFE000
00001FFFE000
00007FFFE000
0001FFFFE000
000FFFFFE000
003FFBFFE000
00FFE3FFE000
07FF83FFE000
1FFE03FFE000
3FF803FFE000
7FF803FFE000
7FF803FFE000
FFF803FFE000
FFF803FFE000
FFF803FFE000
FFF803FFF000
FFF803FFF800
FFFC03FFFE00
FFFC03FFFFC0
7FFF1FFFFFC0
7FFFFFFFFFC0
3FFFFDFFFFC0
3FFFF9FFFF80
1FFFE0FFFE00
07FF807FF000
0078001F0000
ENDCHAR
STARTCHAR 00E4
ENCODING 228
SWIDTH 540 0
DWIDTH 48 0
BBX 42 60 6 -1
BITMAP
030000200000
1FE001FE0000
3FF007FF0000
7FF807FF8000
FFF80FFF8000
FFF80FFFC000
FFFC0FFFC000
FFFC0FFFC000
FFF80FFF8000
7FF807FF8000
7FF007FF8000
3FE003FF0000
0FC000FC0000
000000000000
000000000000
000000000000
000000000000
00001C000000
0001FFF00000
0007FFFC0000
001FFFFE0000
007FFFFF0000
00FFFFFF8000
03FFFFFFC000
07F03FFFC000
0FF00FFFE000
1FF007FFE000
3FF007FFE000
7FF003FFE000
FFF003FFE000
FFF003FFE000
FFF003FFE000
FFF003FFE000
FFF003FFE000
000003FFE000
00001FFFE000
00007FFFE000
0001FFFFE000
000FFFFFE000
003FFBFFE000
00FFE3FFE000
07FF83FFE000
1FFE03FFE000
3FF803FFE000
7FF803FFE000
7FF803FFE000
FFF803FFE000
FFF803FFE000
FFF803FFE000
FFF803FFF000
FFF803FFF800
FFFC03FFFE00
FFFC03FFFFC0
7FFF1FFFFFC0
7FFFFFFFFFC0
3FFFFDFFFFC0
3FFFF9FFFF80
1FFFE0FFFE00
07FF807FF000
0078001F0000
ENDCHAR
STARTCHAR 00E5
ENCODING 229
SWIDTH 540 0
DWIDTH 48 0
BBX 42 65 6 -1
BITMAP
0003F0000000
001FFE000000
007FFF800000
00FFFFC00000
00FE3FE00000
01FC1FE00000
01FC0FE00000
03F80FE00000
03F80FF00000
03F80FE00000
03FC0FE00000
03FC0FE00000
01FE1FE00000
01FFFFC00000
00FFFF800000
007FFF000000
001FFC000000
0003E0000000
000000000000
000000000000
000000000000
000000000000
00001C000000
0001FFF00000
0007FFFC0000
001FFFFE0000
007FFFFF0000
00FFFFFF8000
03FFFFFFC000
07F03FFFC000
0FF00FFFE000
1FF007FFE000
3FF007FFE000
7FF003FFE000
FFF003FFE000
FFF003FFE000
FFF003FFE000
FFF003FFE000
FFF003FFE000
000003FFE000
00001FFFE000
00007FFFE000
0001FFFFE000
000FFFFFE000
003FFBFFE000
00FFE3FFE000
07FF83FFE000
1FFE03FFE000
3FF803FFE000
7FF803FFE000
7FF803FFE000
FFF803FFE000
FFF803FFE000
FFF803FFE000
FFF803FFF000
FFF803FFF800
FFFC03FFFE00
FFFC03FFFFC0
7FFF1FFFFFC0
7FFFFFFFFFC0
3FFFFDFFFFC0
3FFFF9FFFF80
1FFFE0FFFE00
07FF807FF000
0078001F0000
ENDCHAR
STARTCHAR 00E6
ENCODING 230
SWIDTH 720 0
DWIDTH 64 0
BBX 58 43 3 -1
BITMAP
0000200000200000
003FFF800FFF0000
01FFFFE03FFFC000
0FFFFFF8FFFFF000
1FFFFFF9FFFFF800
1FFFFFFFFFFFFC00
1FFE1FFFFE1FFE00
1FF807FFFC07FE00
1FF803FFF807FF00
1FF003FFF803FF00
1FF003FFF003FF80
1FE001FFF001FF80
1FE001FFF001FFC0
1FE001FFF001FFC0
1FE001FFE001FFC0
006001FFE001FFC0
000001FFE001FFC0
000001FFE01FFFC0
00003FFFFFFFFFC0
0007FFFFFFFFFFC0
003FFFFFFFFFFF80
00FFFFFFFFFFFF80
03FFFFFFFFFFF800
07FFE1FFE0000000
1FFF01FFE0000000
1FFC01FFF0000000
3FF801FFF0000000
7FF001FFF0000000
7FF003FFF0000000
7FF003FFF8000000
FFE003FFF8000000
FFF003FFFC000000
FFF007FFFC000100
FFF00FFFFE000380
FFF81FFFFF000FC0
7FFC3FDFFFC07FC0
7FFFFF8FFFFFFFC0
7FFFFF07FFFFFF80
3FFFFE03FFFFFF00
1FFFFC01FFFFFE00
0FFFF0007FFFF800
03FFC0001FFFC000
0010000000C00000
ENDCHAR
STARTCHAR 00E7
ENCODING 231
SWIDTH 461 0
DWIDTH 41 0
BBX 36 64 3 -22
BITMAP
0000080000
0003FFF800
001FFFFF00
007FFFFFC0
00FFFFFFE0
01FFFFFFE0
03FFC1FFE0
07FF807FE0
0FFF003FE0
0FFE003FE0
1FFC001FE0
3FFC001FE0
3FFC001FE0
3FF8001FE0
7FF8000FE0
7FF8000FC0
7FF8000000
FFF8000000
FFF8000000
FFF8000000
FFF8000000
FFF8000000
FFF8000000
FFF8000000
FFF8000000
FFF8000000
FFFC000000
7FFC000000
7FFC000000
7FFE000000
7FFE000000
3FFF000000
3FFF800000
1FFFC00060
1FFFE000F0
0FFFF807F0
07FFFFFFF0
03FFFFFFF0
01FFFFFFE0
007FFFFF80
001FFFFF00
0007FFFC00
00007FC000
00003E0000
00007C0000
0000FC0000
0001FE0000
0001FF8000
0001FFC000
0001FFE000
0000FFF000
00007FF800
00000FF800
000007F800
000003F800
000003F800
000003F800
000007F000
00000FF000
00007FE000
0001FFC000
0001FF8000
0001FC0000
0001000000
ENDCHAR
STARTCHAR 00E8
ENCODING 232
SWIDTH 506 0
DWIDTH 45 0
BBX 39 65 3 -1
BITMAP
0000600000
003FF00000
00FFF00000
007FF00000
003FF80000
001FF80000
001FF80000
000FFC0000
0007FC0000
0003FC0000
0001FE0000
0001FE0000
0000FF0000
00007F0000
00003F8000
00003F8000
0000180000
0000000000
0000000000
0000000000
0000000000
0000000000
0000080000
0003FFF000
001FFFFC00
007FFFFF00
00FFFFFF80
01FFFFFFC0
03FFC1FFE0
07FF80FFF0
0FFF007FF0
1FFE003FF8
1FFC003FF8
3FFC003FFC
3FFC001FFC
7FFC001FFC
7FF8001FFE
7FF8001FFE
7FF8001FFE
FFF8001FFE
FFFFFFFFFE
FFFFFFFFFE
FFFFFFFFFE
FFFFFFFFFE
FFFFFFFFFC
FFFFFFFFF8
FFF8000000
FFF8000000
FFFC000000
7FFC000000
7FFC000000
7FFE000000
7FFE000000
3FFF000000
3FFF800008
1FFFC0001C
1FFFE0007E
0FFFF803FE
07FFFFFFFE
03FFFFFFFC
01FFFFFFF0
00FFFFFFE0
003FFFFF80
0007FFFC00
00003F8000
ENDCHAR
STARTCHAR 00E9
ENCODING 233
SWIDTH 506 0
DWIDTH 45 0
BBX 39 65 3 -1
BITMAP
000000FFC0
000003FFC0
000003FF80
000003FF00
000007FE00
000007FC00
000007FC00
00000FF800
00000FF000
00000FF000
00001FE000
00001FC000
00003FC000
00003F8000
00007F0000
00007F0000
00001E0000
0000000000
0000000000
0000000000
0000000000
0000000000
0000080000
0003FFF000
001FFFFC00
007FFFFF00
00FFFFFF80
01FFFFFFC0
03FFC1FFE0
07FF80FFF0
0FFF007FF0
1FFE003FF8
1FFC003FF8
3FFC003FFC
3FFC001FFC
7FFC001FFC
7FF8001FFE
7FF8001FFE
7FF8001FFE
FFF8001FFE
FFFFFFFFFE
FFFFFFFFFE
FFFFFFFFFE
FFFFFFFFFE
FFFFFFFFFC
FFFFFFFFF8
FFF8000000
FFF8000000
FFFC000000
7FFC000000
7FFC000000
7FFE000000
7FFE000000
3FFF000000
3FFF800008
1FFFC0001C
1FFFE0007E
0FFFF803FE
07FFFFFFFE
03FFFFFFFC
01FFFFFFF0
00FFFFFFE0
003FFFFF80
0007FFFC00
00003F8000
ENDCHAR
STARTCHAR 00EA
ENCODING 234
SWIDTH 506 0
DWIDTH 45 0
BBX 39 65 3 -1
BITMAP
0000030000
00001F8000
00003FC000
00007FE000
0000FFF000
0001FFF800
0003FFFC00
0007FFFE00
001FFFFF00
003FFFFF80
007FF7FFC0
00FFC1FFE0
03FF007FF0
07FE003FF8
07F8000FFC
07F00007F8
03C00001F0
01800000C0
0000000000
0000000000
0000000000
0000000000
0000080000
0003FFF000
001FFFFC00
007FFFFF00
00FFFFFF80
01FFFFFFC0
03FFC1FFE0
07FF80FFF0
0FFF007FF0
1FFE003FF8
1FFC003FF8
3FFC003FFC
3FFC001FFC
7FFC001FFC
7FF8001FFE
7FF8001FFE
7FF8001FFE
FFF8001FFE
FFFFFFFFFE
FFFFFFFFFE
FFFFFFFFFE
FFFFFFFFFE
FFFFFFFFFC
FFFFFFFFF8
FFF8000000
FFF8000000
FFFC000000
7FFC000000
7FFC000000
7FFE000000
7FFE000000
3FFF000000
3FFF800008
1FFFC0001C
1FFFE0007E
0FFFF803FE
07FFFFFFFE
03FFFFFFFC
01FFFFFFF0
00FFFFFFE0
003FFFFF80
0007FFFC00
00003F8000
ENDCHAR
STARTCHAR 00EB
ENCODING 235
SWIDTH 506 0
DWIDTH 45 0
BBX 39 60 3 -1
BITMAP
0070000200
03FE003FE0
07FF007FF0
07FF80FFF8
0FFF80FFF8
0FFF80FFF8
0FFF80FFF8
0FFF80FFF8
0FFF80FFF8
0FFF80FFF8
07FF007FF0
03FE003FE0
00F8000FC0
0000000000
0000000000
0000000000
0000000000
0000080000
0003FFF000
001FFFFC00
007FFFFF00
00FFFFFF80
01FFFFFFC0
03FFC1FFE0
07FF80FFF0
0FFF007FF0
1FFE003FF8
1FFC003FF8
3FFC003FFC
3FFC001FFC
7FFC001FFC
7FF8001FFE
7FF8001FFE
7FF8001FFE
FFF8001FFE
FFFFFFFFFE
FFFFFFFFFE
FFFFFFFFFE
FFFFFFFFFE
FFFFFFFFFC
FFFFFFFFF8
FFF8000000
FFF8000000
FFFC000000
7FFC000000
7FFC000000
7FFE000000
7FFE000000
3FFF000000
3FFF800008
1FFFC0001C
1FFFE0007E
0FFFF803FE
07FFFFFFFE
03FFFFFFFC
01FFFFFFF0
00FFFFFFE0
003FFFFF80
0007FFFC00
00003F8000
ENDCHAR
STARTCHAR 00EC
ENCODING 236
SWIDTH 348 0
DWIDTH 31 0
BBX 26 64 2 0
BITMAP
00B00000
3FF00000
FFF80000
7FF80000
3FF80000
1FFC0000
0FFC0000
07FC0000
03FE0000
01FE0000
01FF0000
00FF0000
007F0000
007F8000
003F8000
001FC000
000C0000
00000000
00000000
00000000
00000000
00000000
00000000
0001E000
001FF000
3FFFF000
3FFFF000
7FFFF000
7FFFF000
7FFFF000
7FFFF000
03FFF000
01FFF000
01FFF000
01FFF000
00FFF000
00FFF000
00FFF000
00FFF000
00FFF000
00FFF000
00FFF000
00FFF000
00FFF000
00FFF000
00FFF000
00FFF000
00FFF000
00FFF000
00FFF000
00FFF000
00FFF000
01FFF000
01FFF000
01FFF800
01FFF800
01FFF800
03FFFC00
0FFFFF00
7FFFFFC0
7FFFFFC0
7FFFFFC0
7FFFFFC0
7FFFFFC0
ENDCHAR
STARTCHAR 00ED
ENCODING 237
SWIDTH 348 0
DWIDTH 31 0
BBX 26 64 3 0
BITMAP
0000FFC0
0003FF80
0003FF00
0007FF00
0007FE00
0007FC00
000FF800
000FF800
000FF000
001FE000
001FC000
003FC000
003F8000
007F0000
007F0000
00FE0000
001E0000
00000000
00000000
00000000
00000000
00000000
00000000
0003C000
003FE000
7FFFE000
7FFFE000
FFFFE000
FFFFE000
FFFFE000
FFFFE000
07FFE000
03FFE000
03FFE000
03FFE000
01FFE000
01FFE000
01FFE000
01FFE000
01FFE000
01FFE000
01FFE000
01FFE000
01FFE000
01FFE000
01FFE000
01FFE000
01FFE000
01FFE000
01FFE000
01FFE000
01FFE000
03FFE000
03FFE000
03FFF000
03FFF000
03FFF000
07FFF800
1FFFFE00
FFFFFF80
FFFFFF80
FFFFFF80
FFFFFF80
FFFFFF80
ENDCHAR
STARTCHAR 00EE
ENCODING 238
SWIDTH 348 0
DWIDTH 31 0
BBX 26 64 2 0
BITMAP
00010000
003F8000
003FC000
007FC000
00FFE000
01FFF000
03FFF800
07FFF800
07FFFC00
0FFFFE00
1FE7FE00
3FC3FF00
7F81FF80
FF00FFC0
FE007FC0
7C003FC0
78001F80
18000C00
00000000
00000000
00000000
00000000
00000000
0001E000
001FF000
3FFFF000
3FFFF000
7FFFF000
7FFFF000
7FFFF000
7FFFF000
03FFF000
01FFF000
01FFF000
01FFF000
00FFF000
00FFF000
00FFF000
00FFF000
00FFF000
00FFF000
00FFF000
00FFF000
00FFF000
00FFF000
00FFF000
00FFF000
00FFF000
00FFF000
00FFF000
00FFF000
00FFF000
01FFF000
01FFF000
01FFF800
01FFF800
01FFF800
03FFFC00
0FFFFF00
7FFFFFC0
7FFFFFC0
7FFFFFC0
7FFFFFC0
7FFFFFC0
ENDCHAR
STARTCHAR 00EF
ENCODING 239
SWIDTH 348 0
DWIDTH 31 0
BBX 31 59 0 0
BITMAP
03000300
1FE01FF0
7FF03FF8
7FF87FFC
FFF87FFC
FFF87FFE
FFFC7FFE
FFF87FFC
FFF87FFC
FFF87FFC
7FF03FF8
3FE01FF0
0FC003C0
00000000
00000000
00000000
00000000
00000000
00007800
0007FC00
0FFFFC00
0FFFFC00
1FFFFC00
1FFFFC00
1FFFFC00
1FFFFC00
00FFFC00
007FFC00
007FFC00
007FFC00
003FFC00
003FFC00
003FFC00
003FFC00
003FFC00
003FFC00
003FFC00
003FFC00
003FFC00
003FFC00
003FFC00
003FFC00
003FFC00
003FFC00
003FFC00
003FFC00
003FFC00
007FFC00
007FFC00
007FFE00
007FFE00
007FFE00
00FFFF00
03FFFFC0
1FFFFFF0
1FFFFFF0
1FFFFFF0
1FFFFFF0
1FFFFFF0
ENDCHAR
STARTCHAR 00F0
ENCODING 240
SWIDTH 562 0
DWIDTH 50 0
BBX 44 65 3 -1
BITMAP
000008000000
0000FE000000
007FFF800000
007FFFC00100
007FFFE00700
007FFFF81F80
007FFFFC7F80
007FFFFFFF80
000FFFFFFF80
0003FFFFFF80
0000FFFFFC00
00003FFFF000
00001FFFE000
00003FFFF000
0000FFFFF800
0003FFFFFC00
000FFFFFFC00
0007FEFFFE00
0007F87FFE00
0007E03FFF00
0007801FFF00
0002001FFF80
0000000FFF80
0001FFCFFF80
000FFFFFFFC0
003FFFFFFFC0
00FFFFFFFFC0
01FFFFFFFFE0
03FFF8FFFFE0
07FFC00FFFE0
0FFF8003FFE0
1FFF0003FFF0
1FFE0001FFF0
3FFE0001FFF0
3FFC0001FFF0
7FFC0001FFF0
7FFC0001FFF0
7FF80001FFF0
7FF80001FFF0
FFF80001FFF0
FFF80001FFF0
FFF80001FFF0
FFF80001FFF0
FFF80001FFF0
FFF80001FFF0
FFF80001FFF0
FFF80001FFF0
FFF80001FFE0
FFF80001FFE0
FFFC0001FFE0
7FFC0003FFE0
7FFC0003FFC0
7FFC0003FFC0
3FFE0007FF80
3FFE0007FF80
1FFF000FFF00
1FFF800FFF00
0FFFC01FFE00
07FFE07FFC00
03FFFFFFF800
01FFFFFFF000
00FFFFFFE000
003FFFFF8000
0007FFFC0000
00003F000000
ENDCHAR
STARTCHAR 00F1
ENCODING 241
SWIDTH 652 0
DWIDTH 58 0
BBX 53 60 3 0
BITMAP
00007F80000000
0001FFE001C000
0003FFF807F000
000FFFFE1FE000
001FFFFFFFC000
003FFFFFFFC000
003FFFFFFF8000
003FC7FFFF0000
003E00FFFE0000
003C003FFC0000
0018001FF00000
00000001800000
00000000000000
00000000000000
00000000000000
00000000000000
00000000000000
00000000000000
00000000000000
0003C007FC0000
003FE03FFF8000
7FFFE0FFFFC000
7FFFE1FFFFF000
FFFFE7FFFFF000
FFFFEFFFFFF800
FFFFFFFFFFFC00
FFFFFFFFFFFC00
0FFFFE01FFFE00
03FFE0007FFE00
03FFE0007FFE00
03FFE0003FFE00
03FFE0003FFE00
01FFE0003FFE00
01FFE0001FFF00
01FFE0001FFF00
01FFE0001FFF00
01FFE0001FFF00
01FFE0001FFF00
01FFE0001FFF00
01FFE0001FFF00
01FFE0001FFF00
01FFE0001FFF00
01FFE0001FFE00
01FFE0001FFE00
01FFE0001FFE00
01FFE0001FFE00
01FFE0001FFE00
01FFE0001FFE00
01FFE0001FFE00
01FFE0001FFF00
03FFE0003FFF00
03FFF0003FFF00
03FFF0003FFF00
07FFF8007FFF80
1FFFFC00FFFFC0
7FFFFF87FFFFF0
FFFFFF87FFFFF0
FFFFFF87FFFFF8
FFFFFF87FFFFF8
FFFFFF87FFFFF8
ENDCHAR
STARTCHAR 00F2
ENCODING 242
SWIDTH 562 0
DWIDTH 50 0
BBX 45 65 3 -1
BITMAP
000058000000
001FF8000000
007FF8000000
003FFC000000
001FFC000000
000FFC000000
0007FE000000
0003FE000000
0001FF000000
0001FF000000
0000FF000000
00007F800000
00003F800000
00003FC00000
00001FC00000
00000FE00000
00000C000000
000000000000
000000000000
000000000000
000000000000
000000000000
000002000000
0001FFFC0000
000FFFFF8000
003FFFFFE000
007FFFFFF800
01FFFFFFFC00
03FFE0FFFE00
07FF803FFF00
0FFF001FFF80
0FFE000FFFC0
1FFE0007FFC0
3FFC0007FFE0
3FFC0003FFE0
3FFC0003FFF0
7FFC0001FFF0
7FF80001FFF0
7FF80001FFF0
FFF80001FFF0
FFF80001FFF8
FFF80001FFF8
FFF80000FFF8
FFF80000FFF8
FFF80000FFF8
FFF80000FFF8
FFF80000FFF8
FFFC0000FFF0
FFFC0001FFF0
7FFC0001FFF0
7FFC0001FFF0
7FFE0001FFE0
7FFE0001FFE0
3FFE0003FFE0
3FFF0003FFC0
1FFF8007FF80
0FFF8007FF80
0FFFC00FFF00
07FFF03FFE00
03FFFFFFFC00
01FFFFFFF800
007FFFFFE000
001FFFFF8000
0007FFFE0000
00003FC00000
ENDCHAR
STARTCHAR 00F3
ENCODING 243
SWIDTH 562 0
DWIDTH 50 0
BBX 45 65 3 -1
BITMAP
0000003FF000
000000FFE000
000001FFC000
000001FF8000
000001FF8000
000001FF0000
000003FE0000
000003FC0000
000007FC0000
000007F80000
000007F00000
00000FF00000
00000FE00000
00001FC00000
00001FC00000
00003F800000
000007800000
000000000000
000000000000
000000000000
000000000000
000000000000
000002000000
0001FFFC0000
000FFFFF8000
003FFFFFE000
007FFFFFF800
01FFFFFFFC00
03FFE0FFFE00
07FF803FFF00
0FFF001FFF80
0FFE000FFFC0
1FFE0007FFC0
3FFC0007FFE0
3FFC0003FFE0
3FFC0003FFF0
7FFC0001FFF0
7FF80001FFF0
7FF80001FFF0
FFF80001FFF0
FFF80001FFF8
FFF80001FFF8
FFF80000FFF8
FFF80000FFF8
FFF80000FFF8
FFF80000FFF8
FFF80000FFF8
FFFC0000FFF0
FFFC0001FFF0
7FFC0001FFF0
7FFC0001FFF0
7FFE0001FFE0
7FFE0001FFE0
3FFE0003FFE0
3FFF0003FFC0
1FFF8007FF80
0FFF8007FF80
0FFFC00FFF00
07FFF03FFE00
03FFFFFFFC00
01FFFFFFF800
007FFFFFE000
001FFFFF8000
0007FFFE0000
00003FC00000
ENDCHAR
STARTCHAR 00F4
ENCODING 244
SWIDTH 562 0
DWIDTH 50 0
BBX 45 65 3 -1
BITMAP
000000C00000
00000FE00000
00001FF00000
00003FF80000
00007FF80000
0000FFFC0000
0001FFFE0000
0003FFFF0000
0007FFFF8000
000FFFFFC000
001FF9FFE000
007FE07FF000
00FFC03FF800
01FF000FFC00
03FE0007FE00
01F80001FE00
01F00000FC00
00C000002000
000000000000
000000000000
000000000000
000000000000
000002000000
0001FFFC0000
000FFFFF8000
003FFFFFE000
007FFFFFF800
01FFFFFFFC00
03FFE0FFFE00
07FF803FFF00
0FFF001FFF80
0FFE000FFFC0
1FFE0007FFC0
3FFC0007FFE0
3FFC0003FFE0
3FFC0003FFF0
7FFC0001FFF0
7FF80001FFF0
7FF80001FFF0
FFF80001FFF0
FFF80001FFF8
FFF80001FFF8
FFF80000FFF8
FFF80000FFF8
FFF80000FFF8
FFF80000FFF8
FFF80000FFF8
FFFC0000FFF0
FFFC0001FFF0
7FFC0001FFF0
7FFC0001FFF0
7FFE0001FFE0
7FFE0001FFE0
3FFE0003FFE0
3FFF0003FFC0
1FFF8007FF80
0FFF8007FF80
0FFFC00FFF00
07FFF03FFE00
03FFFFFFFC00
01FFFFFFF800
007FFFFFE000
001FFFFF8000
0007FFFE0000
00003FC00000
ENDCHAR
STARTCHAR 00F5
ENCODING 245
SWIDTH 562 0
DWIDTH 50 0
BBX 45 61 3 -1
BITMAP
0007F8000000
001FFE003C00
007FFF807E00
00FFFFE1FE00
01FFFFFFFC00
03FFFFFFF800
07FFFFFFF000
07F8FFFFF000
07E01FFFE000
038007FF8000
010001FF0000
000000300000
000000000000
000000000000
000000000000
000000000000
000000000000
000000000000
000002000000
0001FFFC0000
000FFFFF8000
003FFFFFE000
007FFFFFF800
01FFFFFFFC00
03FFE0FFFE00
07FF803FFF00
0FFF001FFF80
0FFE000FFFC0
1FFE0007FFC0
3FFC0007FFE0
3FFC0003FFE0
3FFC0003FFF0
7FFC0001FFF0
7FF80001FFF0
7FF80001FFF0
FFF80001FFF0
FFF80001FFF8
FFF80001FFF8
FFF80000FFF8
FFF80000FFF8
FFF80000FFF8
FFF80000FFF8
FFF80000FFF8
FFFC0000FFF0
FFFC0001FFF0
7FFC0001FFF0
7FFC0001FFF0
7FFE0001FFE0
7FFE0001FFE0
3FFE0003FFE0
3FFF0003FFC0
1FFF8007FF80
0FFF8007FF80
0FFFC00FFF00
07FFF03FFE00
03FFFFFFFC00
01FFFFFFF800
007FFFFFE000
001FFFFF8000
0007FFFE0000
00003FC00000
ENDCHAR
STARTCHAR 00F6
ENCODING 246
SWIDTH 562 0
DWIDTH 50 0
BBX 45 60 3 -1
BITMAP
001800010000
00FF000FF000
01FF801FF800
03FFC03FFC00
03FFC07FFE00
07FFE07FFE00
07FFE07FFE00
07FFE07FFE00
07FFE07FFE00
03FFC03FFC00
03FFC03FFC00
01FF801FF800
007E0007E000
000000000000
000000000000
000000000000
000000000000
000002000000
0001FFFC0000
000FFFFF8000
003FFFFFE000
007FFFFFF800
01FFFFFFFC00
03FFE0FFFE00
07FF803FFF00
0FFF001FFF80
0FFE000FFFC0
1FFE0007FFC0
3FFC0007FFE0
3FFC0003FFE0
3FFC0003FFF0
7FFC0001FFF0
7FF80001FFF0
7FF80001FFF0
FFF80001FFF0
FFF80001FFF8
FFF80001FFF8
FFF80000FFF8
FFF80000FFF8
FFF80000FFF8
FFF80000FFF8
FFF80000FFF8
FFFC0000FFF0
FFFC0001FFF0
7FFC0001FFF0
7FFC0001FFF0
7FFE0001FFE0
7FFE0001FFE0
3FFE0003FFE0
3FFF0003FFC0
1FFF8007FF80
0FFF8007FF80
0FFFC00FFF00
07FFF03FFE00
03FFFFFFFC00
01FFFFFFF800
007FFFFFE000
001FFFFF8000
0007FFFE0000
00003FC00000
ENDCHAR
STARTCHAR 00F7
ENCODING 247
SWIDTH 540 0
DWIDTH 48 0
BBX 42 42 3 2
BITMAP
00003F800000
00007FC00000
0000FFE00000
0000FFE00000
0001FFF00000
0001FFF00000
0001FFE00000
0000FFE00000
0000FFE00000
00007FC00000
00003F800000
000006000000
000000000000
000000000000
000000000000
000000000000
000000000000
000000000000
7FFFFFFFFFC0
7FFFFFFFFFC0
7FFFFFFFFFC0
FFFFFFFFFFC0
FFFFFFFFFFC0
FFFFF000FFC0
000000000000
000000000000
000000000000
000000000000
000000000000
000000000000
00003F800000
00007FC00000
0000FFE00000
0000FFE00000
0000FFE00000
0001FFE00000
0000FFE00000
0000FFE00000
0000FFE00000
00007FC00000
00003F800000
000004000000
ENDCHAR
STARTCHAR 00F8
ENCODING 248
SWIDTH 562 0
DWIDTH 50 0
BBX 46 46 2 -3
BITMAP
0000000001F8
0000010003FC
0000FFFE07FC
0007FFFFCFF8
001FFFFFFFF0
003FFFFFFFE0
00FFFFFFFFC0
01FFF07FFF80
03FFC01FFF80
07FF800FFFC0
07FF0007FFE0
0FFF0007FFE0
1FFE000FFFF0
1FFE001FFFF0
1FFE003FFFF8
3FFE007FFFF8
3FFC00FFFFF8
3FFC01FFFFF8
7FFC01FEFFF8
7FFC03FCFFFC
7FFC07F8FFFC
7FFC0FF07FFC
7FFC1FE07FFC
7FFC3FC07FFC
7FFC7FC07FFC
7FFC7F807FFC
7FFEFF007FF8
7FFFFE00FFF8
3FFFFC00FFF8
3FFFF800FFF8
3FFFF000FFF0
3FFFE000FFF0
1FFFE001FFF0
1FFFC001FFE0
0FFFC003FFC0
07FFC003FFC0
07FFE007FF80
03FFF81FFF00
07FFFFFFFE00
0FFFFFFFFC00
1FFFFFFFF000
3FCFFFFFC000
7F83FFFF0000
FF801FE00000
FF0000000000
3E0000000000
ENDCHAR
STARTCHAR 00F9
ENCODING 249
SWIDTH 607 0
DWIDTH 54 0
BBX 51 65 1 -1
BITMAP
00000300000000
0001FF00000000
0007FF80000000
0003FF80000000
0001FF80000000
0000FFC0000000
0000FFC0000000
00007FE0000000
00003FE0000000
00001FE0000000
00000FF0000000
00000FF0000000
000007F8000000
000003F8000000
000003FC000000
000001FC000000
000000C0000000
00000000000000
00000000000000
00000000000000
00000000000000
00000000000000
00000000000000
0003C00000F800
003FC0003FF800
7FFFE01FFFF800
7FFFE01FFFFC00
7FFFE01FFFFC00
FFFFE01FFFFC00
FFFFE01FFFFC00
FFFFE007FFFC00
0FFFE001FFFC00
07FFE000FFFC00
03FFE0007FFC00
03FFE0007FFC00
03FFE0007FFC00
03FFE0007FFC00
03FFE0007FFC00
03FFE0007FFC00
03FFE0007FFC00
03FFE0007FFC00
03FFE0007FFC00
03FFE0007FFC00
03FFE0007FFC00
03FFE0007FFC00
03FFE0007FFC00
03FFE0007FFC00
03FFE0007FFC00
03FFE0007FFC00
03FFE0007FFC00
03FFE0007FFC00
03FFE0007FFC00
03FFE0007FFC00
03FFF0007FFC00
03FFF0007FFC00
01FFF8007FFE00
01FFFC007FFFE0
01FFFF80FFFFE0
01FFFFFFFFFFE0
00FFFFFFFFFFE0
007FFFFF7FFFE0
007FFFFC7FFFC0
001FFFF07FF000
0007FF807C0000
00002000400000
ENDCHAR
STARTCHAR 00FA
ENCODING 250
SWIDTH 607 0
DWIDTH 54 0
BBX 51 65 1 -1
BITMAP
00000007FE0000
0000001FFC0000
0000001FFC0000
0000001FF80000
0000003FF00000
0000003FE00000
0000003FE00000
0000007FC00000
0000007F800000
000000FF000000
000000FF000000
000000FE000000
000001FC000000
000001FC000000
000003F8000000
000003F8000000
000000F0000000
00000000000000
00000000000000
00000000000000
00000000000000
00000000000000
00000000000000
0003C00000F800
003FC0003FF800
7FFFE01FFFF800
7FFFE01FFFFC00
7FFFE01FFFFC00
FFFFE01FFFFC00
FFFFE01FFFFC00
FFFFE007FFFC00
0FFFE001FFFC00
07FFE000FFFC00
03FFE0007FFC00
03FFE0007FFC00
03FFE0007FFC00
03FFE0007FFC00
03FFE0007FFC00
03FFE0007FFC00
03FFE0007FFC00
03FFE0007FFC00
03FFE0007FFC00
03FFE0007FFC00
03FFE0007FFC00
03FFE0007FFC00
03FFE0007FFC00
03FFE0007FFC00
03FFE0007FFC00
03FFE0007FFC00
03FFE0007FFC00
03FFE0007FFC00
03FFE0007FFC00
03FFE0007FFC00
03FFF0007FFC00
03FFF0007FFC00
01FFF8007FFE00
01FFFC007FFFE0
01FFFF80FFFFE0
01FFFFFFFFFFE0
00FFFFFFFFFFE0
007FFFFF7FFFE0
007FFFFC7FFFC0
001FFFF07FF000
0007FF807C0000
00002000400000
ENDCHAR
STARTCHAR 00FB
ENCODING 251
SWIDTH 607 0
DWIDTH 54 0
BBX 51 65 1 -1
BITMAP
0000001C000000
000000FC000000
000001FE000000
000003FF000000
000007FF800000
00000FFFC00000
00001FFFE00000
00003FFFF00000
0000FFFFF80000
0001FFFFFC0000
0003FFBFFE0000
0007FE0FFF0000
001FF803FF8000
003FF001FFC000
003FC0007FE000
003F80003FC000
001E00000F8000
000C0000060000
00000000000000
00000000000000
00000000000000
00000000000000
00000000000000
0003C00000F800
003FC0003FF800
7FFFE01FFFF800
7FFFE01FFFFC00
7FFFE01FFFFC00
FFFFE01FFFFC00
FFFFE01FFFFC00
FFFFE007FFFC00
0FFFE001FFFC00
07FFE000FFFC00
03FFE0007FFC00
03FFE0007FFC00
03FFE0007FFC00
03FFE0007FFC00
03FFE0007FFC00
03FFE0007FFC00
03FFE0007FFC00
03FFE0007FFC00
03FFE0007FFC00
03FFE0007FFC00
03FFE0007FFC00
03FFE0007FFC00
03FFE0007FFC00
03FFE0007FFC00
03FFE0007FFC00
03FFE0007FFC00
03FFE0007FFC00
03FFE0007FFC00
03FFE0007FFC00
03FFE0007FFC00
03FFF0007FFC00
03FFF0007FFC00
01FFF8007FFE00
01FFFC007FFFE0
01FFFF80FFFFE0
01FFFFFFFFFFE0
00FFFFFFFFFFE0
007FFFFF7FFFE0
007FFFFC7FFFC0
001FFFF07FF000
0007FF807C0000
00002000400000
ENDCHAR
STARTCHAR 00FC
ENCODING 252
SWIDTH 607 0
DWIDTH 54 0
BBX 51 60 1 -1
BITMAP
00038000180000
001FF001FF0000
003FF803FF8000
003FFC07FFC000
007FFC07FFC000
007FFC07FFC000
007FFC07FFC000
007FFC07FFC000
007FFC07FFC000
007FFC07FFC000
003FF803FF8000
001FF001FF0000
0007C0007E0000
00000000000000
00000000000000
00000000000000
00000000000000
00000000000000
0003C00000F800
003FC0003FF800
7FFFE01FFFF800
7FFFE01FFFFC00
7FFFE01FFFFC00
FFFFE01FFFFC00
FFFFE01FFFFC00
FFFFE007FFFC00
0FFFE001FFFC00
07FFE000FFFC00
03FFE0007FFC00
03FFE0007FFC00
03FFE0007FFC00
03FFE0007FFC00
03FFE0007FFC00
03FFE0007FFC00
03FFE0007FFC00
03FFE0007FFC00
03FFE0007FFC00
03FFE0007FFC00
03FFE0007FFC00
03FFE0007FFC00
03FFE0007FFC00
03FFE0007FFC00
03FFE0007FFC00
03FFE0007FFC00
03FFE0007FFC00
03FFE0007FFC00
03FFE0007FFC00
03FFE0007FFC00
03FFF0007FFC00
03FFF0007FFC00
01FFF8007FFE00
01FFFC007FFFE0
01FFFF80FFFFE0
01FFFFFFFFFFE0
00FFFFFFFFFFE0
007FFFFF7FFFE0
007FFFFC7FFFC0
001FFFF07FF000
0007FF807C0000
00002000400000
ENDCHAR
STARTCHAR 00FD
ENCODING 253
SWIDTH 551 0
DWIDTH 49 0
BBX 48 86 1 -22
BITMAP
00000001FF80
00000007FF00
00000007FF00
00000007FE00
0000000FFC00
0000000FF800
0000000FF800
0000001FF000
0000001FE000
0000003FC000
0000003FC000
0000003F8000
0000007F0000
0000007F0000
000000FE0000
000000FE0000
0000003C0000
000000000000
000000000000
000000000000
000000000000
000000000000
000000000000
FFFFFFC3FFFF
FFFFFFC3FFFF
FFFFFF83FFFF
FFFFFF83FFFE
FFFFFF81FFFE
7FFFFF81FFFE
1FFFF8003FF8
0FFFF0001FE0
07FFF0001FE0
03FFF0001FC0
03FFF8001FC0
01FFF8001F80
01FFF8001F80
00FFFC003F00
00FFFC003F00
007FFE007E00
007FFE007E00
003FFF007E00
003FFF00FC00
001FFF80FC00
001FFF81F800
000FFF81F800
000FFFC1F800
0007FFC3F000
0007FFE3F000
0003FFE7E000
0003FFE7E000
0001FFF7C000
0001FFFFC000
0001FFFFC000
0000FFFF8000
0000FFFF8000
00007FFF0000
00007FFF0000
00003FFE0000
00003FFE0000
00001FFE0000
00001FFC0000
00001FFC0000
00000FF80000
00000FF80000
000007F80000
000007F00000
000003F00000
000003E00000
000007E00000
000007C00000
00000FC00000
00001F800000
00001F800000
00003F800000
0000FF000000
1F87FF000000
1FFFFE000000
3FFFFC000000
3FFFFC000000
3FFFF8000000
3FFFF8000000
3FFFF0000000
3FFFE0000000
1FFFC0000000
07FF80000000
01FE00000000
ENDCHAR
STARTCHAR 00FE
ENCODING 254
SWIDTH 618 0
DWIDTH 55 0
BBX 50 86 2 -22
BITMAP
00004000000000
0003E000000000
007FE000000000
7FFFF000000000
7FFFF000000000
7FFFF000000000
FFFFF000000000
FFFFF000000000
1FFFF000000000
07FFF000000000
03FFF000000000
01FFF000000000
01FFF000000000
01FFF000000000
01FFF000000000
01FFF000000000
01FFF000000000
01FFF000000000
01FFF000000000
01FFF000000000
01FFF000000000
01FFF000000000
01FFF000C00000
01FFF01FFF0000
01FFF07FFFC000
01FFF0FFFFF000
01FFF3FFFFF800
01FFF7FFFFFC00
01FFEFFFFFFE00
01FFFFFFFFFF00
01FFFFC0FFFF00
01FFFF003FFF80
01FFFE001FFF80
01FFFC001FFFC0
01FFFC000FFFC0
01FFF8000FFFC0
01FFF8000FFFC0
01FFF80007FFC0
01FFF00007FFC0
01FFF00007FFC0
01FFF00007FFC0
01FFF00007FFC0
01FFF00007FFC0
01FFF00007FFC0
01FFF00007FFC0
01FFF00007FFC0
01FFF00007FFC0
01FFF00007FFC0
01FFF00007FF80
01FFF00007FF80
01FFF00007FF80
01FFF0000FFF00
01FFF0000FFF00
01FFF0001FFE00
01FFF0001FFE00
01FFF0003FFC00
01FFF0007FF800
01FFF800FFF000
01FFFC01FFE000
01FFFFDFFFC000
01FFFFFFFF8000
01FFFFFFFE0000
01FFFFFFF80000
01FFFFFFE00000
01FFF3FC000000
01FFF000000000
01FFF000000000
01FFF000000000
01FFF000000000
01FFF000000000
01FFF000000000
01FFF000000000
01FFF000000000
01FFF000000000
01FFF000000000
01FFF000000000
01FFF800000000
03FFF800000000
03FFFC00000000
07FFFF00000000
7FFFFFF8000000
7FFFFFF8000000
7FFFFFF8000000
7FFFFFF8000000
FFFFFFF8000000
FFFFFFF8000000
ENDCHAR
STARTCHAR 00FF
ENCODING 255
SWIDTH 551 0
DWIDTH 49 0
BBX 48 81 1 -22
BITMAP
0000C0000400
0007FC007F80
000FFE00FFE0
001FFE01FFE0
001FFF01FFF0
001FFF01FFF0
001FFF01FFF0
001FFF01FFF0
001FFF01FFF0
001FFF01FFF0
000FFE00FFE0
0007FC007FC0
0001F0001F00
000000000000
000000000000
000000000000
000000000000
000000000000
FFFFFFC3FFFF
FFFFFFC3FFFF
FFFFFF83FFFF
FFFFFF83FFFE
FFFFFF81FFFE
7FFFFF81FFFE
1FFFF8003FF8
0FFFF0001FE0
07FFF0001FE0
03FFF0001FC0
03FFF8001FC0
01FFF8001F80
01FFF8001F80
00FFFC003F00
00FFFC003F00
007FFE007E00
007FFE007E00
003FFF007E00
003FFF00FC00
001FFF80FC00
001FFF81F800
000FFF81F800
000FFFC1F800
0007FFC3F000
0007FFE3F000
0003FFE7E000
0003FFE7E000
0001FFF7C000
0001FFFFC000
0001FFFFC000
0000FFFF8000
0000FFFF8000
00007FFF0000
00007FFF0000
00003FFE0000
00003FFE0000
00001FFE0000
00001FFC0000
00001FFC0000
00000FF80000
00000FF80000
000007F80000
000007F00000
000003F00000
000003E00000
000007E00000
000007C00000
00000FC00000
00001F800000
00001F800000
00003F800000
0000FF000000
1F87FF000000
1FFFFE000000
3FFFFC000000
3FFFFC000000
3FFFF8000000
3FFFF8000000
3FFFF0000000
3FFFE0000000
1FFFC0000000
07FF80000000
01FE00000000
ENDCHAR
STARTCHAR 0100
ENCODING 256
SWIDTH 708 0
DWIDTH 63 0
BBX 60 73 2 0
BITMAP
0007FFFFFFF80000
000FFFFFFFF80000
000FFFFFFFF80000
000FFFFFFFF80000
000FFFFFFFF80000
000FFFC000000000
0000000000000000
0000000000000000
0000000000000000
0000000000000000
0000000000000000
0000000000000000
0000000200000000
0000003F00000000
0000007F00000000
0000007F80000000
0000007F80000000
000000FFC0000000
000000FFC0000000
000001FFC0000000
000001FFE0000000
000003FFE0000000
000003FFF0000000
000003FFF0000000
000007FFF8000000
000007FFF8000000
00000FFFFC000000
00000FFFFC000000
00000FFFFC000000
00001F7FFE000000
00001F7FFE000000
00003F3FFF000000
00003E3FFF000000
00003E3FFF800000
00007E1FFF800000
00007C1FFFC00000
0000FC0FFFC00000
0000FC0FFFC00000
0000F80FFFE00000
0001F807FFE00000
0001F007FFF00000
0003F003FFF00000
0003F003FFF80000
0003E001FFF80000
0007E001FFFC0000
0007E000FFFC0000
000FC000FFFC0000
000FC000FFFE0000
000F80007FFE0000
001F80007FFF0000
001F80003FFF0000
003FFFFFFFFF8000
003FFFFFFFFF8000
007FFFFFFFFFC000
007FFFFFFFFFC000
007FFFFFFFFFC000
00FF00000FFFE000
00FC000007FFE000
01F8000007FFF000
01F8000003FFF000
01F8000003FFF800
03F0000003FFF800
03F0000001FFFC00
07F0000001FFFC00
07F0000001FFFE00
0FF0000001FFFE00
1FF8000001FFFF00
3FFE000007FFFFC0
FFFF00001FFFFFE0
FFFF80001FFFFFE0
FFFF80001FFFFFF0
FFFF80001FFFFFF0
FFFF80001FFFFFF0
ENDCHAR
STARTCHAR 0101
ENCODING 257
SWIDTH 540 0
DWIDTH 48 0
BBX 42 57 6 -1
BITMAP
7FFFFFFF8000
7FFFFFFF8000
FFFFFFFF8000
FFFFFFFF8000
FFFFFFE00000
000000000000
000000000000
000000000000
000000000000
000000000000
000000000000
000000000000
000000000000
000000000000
00001C000000
0001FFF00000
0007FFFC0000
001FFFFE0000
007FFFFF0000
00FFFFFF8000
03FFFFFFC000
07F03FFFC000
0FF00FFFE000
1FF007FFE000
3FF007FFE000
7FF003FFE000
FFF003FFE000
FFF003FFE000
FFF003FFE000
FFF003FFE000
FFF003FFE000
000003FFE000
00001FFFE000
00007FFFE000
0001FFFFE000
000FFFFFE000
003FFBFFE000
00FFE3FFE000
07FF83FFE000
1FFE03FFE000
3FF803FFE000
7FF803FFE000
7FF803FFE000
FFF803FFE000
FFF803FFE000
FFF803FFE000
FFF803FFF000
FFF803FFF800
FFFC03FFFE00
FFFC03FFFFC0
7FFF1FFFFFC0
7FFFFFFFFFC0
3FFFFDFFFFC0
3FFFF9FFFF80
1FFFE0FFFE00
07FF807FF000
0078001F0000
ENDCHAR
STARTCHAR 0102
ENCODING 258
SWIDTH 708 0
DWIDTH 63 0
BBX 60 78 2 0
BITMAP
0000780003C00000
0003F80007E00000
0003F80007E00000
0003FC000FE00000
0003FE001FE00000
0003FF807FE00000
0001FFFFFFC00000
0001FFFFFFC00000
0000FFFFFF800000
00007FFFFF800000
00003FFFFE000000
00001FFFFC000000
000007FFF0000000
0000007F00000000
0000000000000000
0000000000000000
0000000000000000
0000000200000000
0000003F00000000
0000007F00000000
0000007F80000000
0000007F80000000
000000FFC0000000
000000FFC0000000
000001FFC0000000
000001FFE0000000
000003FFE0000000
000003FFF0000000
000003FFF0000000
000007FFF8000000
000007FFF8000000
00000FFFFC000000
00000FFFFC000000
00000FFFFC000000
00001F7FFE000000
00001F7FFE000000
00003F3FFF000000
00003E3FFF000000
00003E3FFF800000
00007E1FFF800000
00007C1FFFC00000
0000FC0FFFC00000
0000FC0FFFC00000
0000F80FFFE00000
0001F807FFE00000
0001F007FFF00000
0003F003FFF00000
0003F003FFF80000
0003E001FFF80000
0007E001FFFC0000
0007E000FFFC0000
000FC000FFFC0000
000FC000FFFE0000
000F80007FFE0000
001F80007FFF0000
001F80003FFF0000
003FFFFFFFFF8000
003FFFFFFFFF8000
007FFFFFFFFFC000
007FFFFFFFFFC000
007FFFFFFFFFC000
00FF00000FFFE000
00FC000007FFE000
01F8000007FFF000
01F8000003FFF000
01F8000003FFF800
03F0000003FFF800
03F0000001FFFC00
07F0000001FFFC00
07F0000001FFFE00
0FF0000001FFFE00
1FF8000001FFFF00
3FFE000007FFFFC0
FFFF00001FFFFFE0
FFFF80001FFFFFE0
FFFF80001FFFFFF0
FFFF80001FFFFFF0
FFFF80001FFFFFF0
ENDCHAR
STARTCHAR 0103
ENCODING 259
SWIDTH 540 0
DWIDTH 48 0
BBX 42 64 6 -1
BITMAP
3E00000F8000
FE00000F8000
FE00001F8000
FF00001F8000
FF80003F8000
7FC0007F8000
7FE000FF8000
7FF803FF0000
7FFFFFFF0000
3FFFFFFE0000
1FFFFFFE0000
1FFFFFFC0000
0FFFFFF80000
07FFFFF00000
01FFFFC00000
007FFF000000
0001C0000000
000000000000
000000000000
000000000000
000000000000
00001C000000
0001FFF00000
0007FFFC0000
001FFFFE0000
007FFFFF0000
00FFFFFF8000
03FFFFFFC000
07F03FFFC000
0FF00FFFE000
1FF007FFE000
3FF007FFE000
7FF003FFE000
FFF003FFE000
FFF003FFE000
FFF003FFE000
FFF003FFE000
FFF003FFE000
000003FFE000
00001FFFE000
00007FFFE000
0001FFFFE000
000FFFFFE000
003FFBFFE000
00FFE3FFE000
07FF83FFE000
1FFE03FFE000
3FF803FFE000
7FF803FFE000
7FF803FFE000
FFF803FFE000
FFF803FFE000
FFF803FFE000
FFF803FFF000
FFF803FFF800
FFFC03FFFE00
FFFC03FFFFC0
7FFF1FFFFFC0
7FFFFFFFFFC0
3FFFFDFFFFC0
3FFFF9FFFF80
1FFFE0FFFE00
07FF807FF000
0078001F0000
ENDCHAR
STARTCHAR 0104
ENCODING 260
SWIDTH 708 0
DWIDTH 63 0
BBX 60 83 2 -22
BITMAP
0000000200000000
0000003F00000000
0000007F00000000
0000007F80000000
0000007F80000000
000000FFC0000000
000000FFC0000000
000001FFC0000000
000001FFE0000000
000003FFE0000000
000003FFF0000000
000003FFF0000000
000007FFF8000000
000007FFF8000000
00000FFFFC000000
00000FFFFC000000
00000FFFFC000000
00001F7FFE000000
00001F7FFE000000
00003F3FFF000000
00003E3FFF000000
00003E3FFF800000
00007E1FFF800000
00007C1FFFC00000
0000FC0FFFC00000
0000FC0FFFC00000
0000F80FFFE00000
0001F807FFE00000
0001F007FFF00000
0003F003FFF00000
0003F003FFF80000
0003E001FFF80000
0007E001FFFC0000
0007E000FFFC0000
000FC000FFFC0000
000FC000FFFE0000
000F80007FFE0000
001F80007FFF0000
001F80003FFF0000
003FFFFFFFFF8000
003FFFFFFFFF8000
007FFFFFFFFFC000
007FFFFFFFFFC000
007FFFFFFFFFC000
00FF00000FFFE000
00FC000007FFE000
01F8000007FFF000
01F8000003FFF000
01F8000003FFF800
03F0000003FFF800
03F0000001FFFC00
07F0000001FFFC00
07F0000001FFFE00
0FF0000001FFFE00
1FF8000001FFFF00
3FFE000007FFFFC0
FFFF00001FFFFFE0
FFFF80001FFFFFE0
FFFF80001FFFFFF0
FFFF80001FFFFFF0
FFFF80001FFFFFF0
00000000001FE000
00000000007F8000
0000000001FE0000
0000000003FC0000
0000000007F80000
000000000FF80000
000000001FF00000
000000003FF00000
000000003FF00000
000000007FF00000
000000007FF00000
000000007FF80000
000000007FFE0800
000000007FFFFC00
000000007FFFFC00
000000007FFFFC00
000000007FFFFC00
000000003FFFFC00
000000001FFFF800
000000000FFFC000
0000000007FF0000
0000000001FC0000
ENDCHAR
STARTCHAR 0105
ENCODING 261
SWIDTH 540 0
DWIDTH 48 0
BBX 42 64 6 -22
BITMAP
00001C000000
0001FFF00000
0007FFFC0000
001FFFFE0000
007FFFFF0000
00FFFFFF8000
03FFFFFFC000
07F03FFFC000
0FF00FFFE000
1FF007FFE000
3FF007FFE000
7FF003FFE000
FFF003FFE000
FFF003FFE000
FFF003FFE000
FFF003FFE000
FFF003FFE000
000003FFE000
00001FFFE000
00007FFFE000
0001FFFFE000
000FFFFFE000
003FFBFFE000
00FFE3FFE000
07FF83FFE000
1FFE03FFE000
3FF803FFE000
7FF803FFE000
7FF803FFE000
FFF803FFE000
FFF803FFE000
FFF803FFE000
FFF803FFF000
FFF803FFF800
FFFC03FFFE00
FFFC03FFFFC0
7FFF1FFFFFC0
7FFFFFFFFFC0
3FFFFDFFFFC0
3FFFF9FFFF80
1FFFE0FFFE00
07FF807FF000
0078003F8000
0000007F0000
000001FE0000
000003FC0000
000007FC0000
00000FF80000
00000FF80000
00001FF80000
00001FF80000
00003FF80000
00003FFC0000
00003FFC0000
00003FFF0600
00003FFFFE00
00003FFFFE00
00001FFFFF00
00001FFFFF00
00001FFFFF00
00000FFFFC00
000007FFE000
000001FF8000
0000007E0000
ENDCHAR
STARTCHAR 0106
ENCODING 262
SWIDTH 641 0
DWIDTH 57 0
BBX 51 79 3 -1
BITMAP
00000001FFC000
00000003FF8000
00000003FF0000
00000003FF0000
00000007FE0000
00000007FC0000
0000000FF80000
0000000FF00000
0000001FE00000
0000001FE00000
0000003FC00000
0000003F800000
00000007000000
00000000000000
00000000000000
00000000000000
00000000000000
0000007FF00000
000007FFFF8000
00003FFFFFF000
0001FFFFFFFE00
0003FFFFFFFF80
000FFFFCFFFFC0
001FFF800FFFC0
003FFE0003FF80
007FF80001FF80
00FFF00000FF80
01FFE00000FF80
03FFC000007F80
07FFC000007F80
07FF8000007F80
0FFF8000003F80
1FFF0000003F80
1FFF0000003F80
1FFF0000003F80
3FFE0000003F80
3FFE0000002800
7FFE0000000000
7FFE0000000000
7FFC0000000000
7FFC0000000000
7FFC0000000000
FFFC0000000000
FFFC0000000000
FFFC0000000000
FFFC0000000000
FFFC0000000000
FFFC0000000000
FFFC0000000000
FFFC0000000000
FFFC0000000000
FFFC0000000000
FFFE0000000000
7FFE0000000000
7FFE0000000000
7FFE0000000000
7FFF0000000000
7FFF0000000000
3FFF0000000000
3FFF8000000000
3FFF8000000000
1FFF8000000000
1FFFC000000000
0FFFE000000000
0FFFE000000000
07FFF000000000
07FFF800000000
03FFFC00000000
01FFFE000001C0
00FFFF800007E0
007FFFE0003FE0
003FFFFC03FFE0
001FFFFFFFFFC0
000FFFFFFFFF00
0003FFFFFFFC00
0001FFFFFFF800
00003FFFFFC000
00000FFFFF0000
0000007FC00000
ENDCHAR
STARTCHAR 0107
ENCODING 263
SWIDTH 461 0
DWIDTH 41 0
BBX 36 65 3 -1
BITMAP
000000FFC0
000003FF80
000003FF80
000007FF00
000007FE00
000007FC00
000007F800
00000FF800
00000FF000
00001FE000
00001FE000
00003FC000
00003F8000
00003F8000
00007F0000
00007E0000
00001E0000
0000000000
0000000000
0000000000
0000000000
0000000000
0000080000
0003FFF800
001FFFFF00
007FFFFFC0
00FFFFFFE0
01FFFFFFE0
03FFC1FFE0
07FF807FE0
0FFF003FE0
0FFE003FE0
1FFC001FE0
3FFC001FE0
3FFC001FE0
3FF8001FE0
7FF8000FE0
7FF8000FC0
7FF8000000
FFF8000000
FFF8000000
FFF8000000
FFF8000000
FFF8000000
FFF8000000
FFF8000000
FFF8000000
FFF8000000
FFFC000000
7FFC000000
7FFC000000
7FFE000000
7FFE000000
3FFF000000
3FFF800000
1FFFC00060
1FFFE000F0
0FFFF807F0
07FFFFFFF0
03FFFFFFF0
01FFFFFFE0
007FFFFF80
003FFFFF00
0007FFF800
00007F8000
ENDCHAR
STARTCHAR 0108
ENCODING 264
SWIDTH 641 0
DWIDTH 57 0
BBX 51 80 3 -1
BITMAP
00000003C00000
0000001FE00000
0000003FF00000
0000007FF80000
000000FFFC0000
000003FFFE0000
000007FFFF0000
00001FFFFFC000
00003FFFFFE000
0000FFF1FFF000
0001FFC07FF800
0001FF001FF800
0000FC0007F000
0000700001C000
00000000000000
00000000000000
00000000000000
00000000000000
0000007FF00000
000007FFFF8000
00003FFFFFF000
0001FFFFFFFE00
0003FFFFFFFF80
000FFFFCFFFFC0
001FFF800FFFC0
003FFE0003FF80
007FF80001FF80
00FFF00000FF80
01FFE00000FF80
03FFC000007F80
07FFC000007F80
07FF8000007F80
0FFF8000003F80
1FFF0000003F80
1FFF0000003F80
1FFF0000003F80
3FFE0000003F80
3FFE0000002800
7FFE0000000000
7FFE0000000000
7FFC0000000000
7FFC0000000000
7FFC0000000000
FFFC0000000000
FFFC0000000000
FFFC0000000000
FFFC0000000000
FFFC0000000000
FFFC0000000000
FFFC0000000000
FFFC0000000000
FFFC0000000000
FFFC0000000000
FFFE0000000000
7FFE0000000000
7FFE0000000000
7FFE0000000000
7FFF0000000000
7FFF0000000000
3FFF0000000000
3FFF8000000000
3FFF8000000000
1FFF8000000000
1FFFC000000000
0FFFE000000000
0FFFE000000000
07FFF000000000
07FFF800000000
03FFFC00000000
01FFFE000001C0
00FFFF800007E0
007FFFE0003FE0
003FFFFC03FFE0
001FFFFFFFFFC0
000FFFFFFFFF00
0003FFFFFFFC00
0001FFFFFFF800
00003FFFFFC000
00000FFFFF0000
0000007FC00000
ENDCHAR
STARTCHAR 0109
ENCODING 265
SWIDTH 461 0
DWIDTH 41 0
BBX 38 65 3 -1
BITMAP
0000030000
00001F8000
00003FC000
00007FE000
0000FFF000
0001FFF800
0007FFFC00
000FFFFC00
001FFFFE00
003FFFFF00
007FE7FF80
00FFC1FFC0
03FF007FE0
07FC003FF0
07F8000FFC
07E00007F8
03C00003F0
01800000C0
0000000000
0000000000
0000000000
0000000000
0000080000
0003FFF800
001FFFFF00
007FFFFFC0
00FFFFFFE0
01FFFFFFE0
03FFC1FFE0
07FF807FE0
0FFF003FE0
0FFE003FE0
1FFC001FE0
3FFC001FE0
3FFC001FE0
3FF8001FE0
7FF8000FE0
7FF8000FC0
7FF8000000
FFF8000000
FFF8000000
FFF8000000
FFF8000000
FFF8000000
FFF8000000
FFF8000000
FFF8000000
FFF8000000
FFFC000000
7FFC000000
7FFC000000
7FFE000000
7FFE000000
3FFF000000
3FFF800000
1FFFC00060
1FFFE000F0
0FFFF807F0
07FFFFFFF0
03FFFFFFF0
01FFFFFFE0
007FFFFF80
003FFFFF00
0007FFF800
00007F8000
ENDCHAR
STARTCHAR 010A
ENCODING 266
SWIDTH 641 0
DWIDTH 57 0
BBX 51 78 3 -1
BITMAP
00000006000000
0000003FE00000
0000007FF00000
000000FFF80000
000001FFF80000
000001FFFC0000
000001FFFC0000
000001FFFC0000
000001FFFC0000
000001FFF80000
000000FFF80000
0000007FF00000
0000003FC00000
00000000000000
00000000000000
00000000000000
0000007FF00000
000007FFFF8000
00003FFFFFF000
0001FFFFFFFE00
0003FFFFFFFF80
000FFFFCFFFFC0
001FFF800FFFC0
003FFE0003FF80
007FF80001FF80
00FFF00000FF80
01FFE00000FF80
03FFC000007F80
07FFC000007F80
07FF8000007F80
0FFF8000003F80
1FFF0000003F80
1FFF0000003F80
1FFF0000003F80
3FFE0000003F80
3FFE0000002800
7FFE0000000000
7FFE0000000000
7FFC0000000000
7FFC0000000000
7FFC0000000000
FFFC0000000000
FFFC0000000000
FFFC0000000000
FFFC0000000000
FFFC0000000000
FFFC0000000000
FFFC0000000000
FFFC0000000000
FFFC0000000000
FFFC0000000000
FFFE0000000000
7FFE0000000000
7FFE0000000000
7FFE0000000000
7FFF0000000000
7FFF0000000000
3FFF0000000000
3FFF8000000000
3FFF8000000000
1FFF8000000000
1FFFC000000000
0FFFE000000000
0FFFE000000000
07FFF000000000
07FFF800000000
03FFFC00000000
01FFFE000001C0
00FFFF800007E0
007FFFE0003FE0
003FFFFC03FFE0
001FFFFFFFFFC0
000FFFFFFFFF00
0003FFFFFFFC00
0001FFFFFFF800
00003FFFFFC000
00000FFFFF0000
0000007FC00000
ENDCHAR
STARTCHAR 010B
ENCODING 267
SWIDTH 461 0
DWIDTH 41 0
BBX 36 60 3 -1
BITMAP
0000FF8000
0001FFC000
0003FFE000
0007FFE000
0007FFF000
0007FFF000
0007FFF000
0007FFF000
0007FFE000
0003FFE000
0003FFC000
0000FF8000
0000180000
0000000000
0000000000
0000000000
0000000000
0000080000
0003FFF800
001FFFFF00
007FFFFFC0
00FFFFFFE0
01FFFFFFE0
03FFC1FFE0
07FF807FE0
0FFF003FE0
0FFE003FE0
1FFC001FE0
3FFC001FE0
3FFC001FE0
3FF8001FE0
7FF8000FE0
7FF8000FC0
7FF8000000
FFF8000000
FFF8000000
FFF8000000
FFF8000000
FFF8000000
FFF8000000
FFF8000000
FFF8000000
FFF8000000
FFFC000000
7FFC000000
7FFC000000
7FFE000000
7FFE000000
3FFF000000
3FFF800000
1FFFC00060
1FFFE000F0
0FFFF807F0
07FFFFFFF0
03FFFFFFF0
01FFFFFFE0
007FFFFF80
003FFFFF00
0007FFF800
00007F8000
ENDCHAR
STARTCHAR 010C
ENCODING 268
SWIDTH 641 0
DWIDTH 57 0
BBX 51 80 3 -1
BITMAP
00001000004000
00007C0001E000
0001FF0007F000
0003FFC01FF800
0001FFF07FF800
00007FFDFFE000
00003FFFFF8000
00001FFFFF0000
00000FFFFE0000
000007FFF80000
000001FFF00000
000000FFE00000
0000007F800000
0000003F000000
00000000000000
00000000000000
00000000000000
00000000000000
0000007FF00000
000007FFFF8000
00003FFFFFF000
0001FFFFFFFE00
0003FFFFFFFF80
000FFFFCFFFFC0
001FFF800FFFC0
003FFE0003FF80
007FF80001FF80
00FFF00000FF80
01FFE00000FF80
03FFC000007F80
07FFC000007F80
07FF8000007F80
0FFF8000003F80
1FFF0000003F80
1FFF0000003F80
1FFF0000003F80
3FFE0000003F80
3FFE0000002800
7FFE0000000000
7FFE0000000000
7FFC0000000000
7FFC0000000000
7FFC0000000000
FFFC0000000000
FFFC0000000000
FFFC0000000000
FFFC0000000000
FFFC0000000000
FFFC0000000000
FFFC0000000000
FFFC0000000000
FFFC0000000000
FFFC0000000000
FFFE0000000000
7FFE0000000000
7FFE0000000000
7FFE0000000000
7FFF0000000000
7FFF0000000000
3FFF0000000000
3FFF8000000000
3FFF8000000000
1FFF8000000000
1FFFC000000000
0FFFE000000000
0FFFE000000000
07FFF000000000
07FFF800000000
03FFFC00000000
01FFFE000001C0
00FFFF800007E0
007FFFE0003FE0
003FFFFC03FFE0
001FFFFFFFFFC0
000FFFFFFFFF00
0003FFFFFFFC00
0001FFFFFFF800
00003FFFFFC000
00000FFFFF0000
0000007FC00000
ENDCHAR
STARTCHAR 010D
ENCODING 269
SWIDTH 461 0
DWIDTH 41 0
BBX 36 64 3 -1
BITMAP
01800001C0
07E00003F0
07F0000FF0
0FFC001FF0
07FF007FE0
03FF80FFC0
01FFE3FF80
00FFFFFF00
007FFFFE00
003FFFF800
001FFFF000
000FFFE000
0007FFC000
0003FF8000
0001FF0000
0000FF0000
00007C0000
0000000000
0000000000
0000000000
0000000000
0000080000
0003FFF800
001FFFFF00
007FFFFFC0
00FFFFFFE0
01FFFFFFE0
03FFC1FFE0
07FF807FE0
0FFF003FE0
0FFE003FE0
1FFC001FE0
3FFC001FE0
3FFC001FE0
3FF8001FE0
7FF8000FE0
7FF8000FC0
7FF8000000
FFF8000000
FFF8000000
FFF8000000
FFF8000000
FFF8000000
FFF8000000
FFF8000000
FFF8000000
FFF8000000
FFFC000000
7FFC000000
7FFC000000
7FFE000000
7FFE000000
3FFF000000
3FFF800000
1FFFC00060
1FFFE000F0
0FFFF807F0
07FFFFFFF0
03FFFFFFF0
01FFFFFFE0
007FFFFF80
003FFFFF00
0007FFF800
00007F8000
ENDCHAR
STARTCHAR 010E
ENCODING 270
SWIDTH 731 0
DWIDTH 65 0
BBX 58 79 4 0
BITMAP
0000800002000000
0003E0000F000000
000FF8003F800000
001FFE00FFC00000
000FFF83FFC00000
0007FFEFFF000000
0001FFFFFC000000
0000FFFFF8000000
00007FFFE0000000
00003FFFC0000000
00000FFF80000000
000007FF00000000
000003FC00000000
000001F800000000
0000000000000000
0000000000000000
0000000000000000
0000000000000000
0000000000000000
FFFFFFFFF0000000
FFFFFFFFFF000000
FFFFFFFFFFE00000
FFFFFFFFFFFC0000
FFFFFFFFFFFE0000
1FFFF003FFFF8000
07FFF0007FFFC000
07FFF0001FFFE000
03FFF0000FFFF000
03FFF00003FFF800
03FFF00001FFFC00
03FFF00001FFFC00
03FFF00000FFFE00
03FFF000007FFE00
03FFF000007FFF00
03FFF000003FFF00
03FFF000003FFF80
03FFF000001FFF80
03FFF000001FFF80
03FFF000001FFF80
03FFF000001FFFC0
03FFF000000FFFC0
03FFF000000FFFC0
03FFF000000FFFC0
03FFF000000FFFC0
03FFF000000FFFC0
03FFF000000FFFC0
03FFF000000FFFC0
03FFF000000FFFC0
03FFF000000FFFC0
03FFF000000FFFC0
03FFF000000FFFC0
03FFF000000FFFC0
03FFF000000FFFC0
03FFF000000FFFC0
03FFF000000FFFC0
03FFF000000FFF80
03FFF000000FFF80
03FFF000000FFF80
03FFF000000FFF80
03FFF000001FFF80
03FFF000001FFF00
03FFF000001FFF00
03FFF000001FFE00
03FFF000003FFE00
03FFF000003FFC00
03FFF000007FFC00
03FFF000007FF800
03FFF00000FFF800
03FFF00001FFF000
03FFF00003FFE000
03FFF80007FFC000
07FFF8000FFF8000
07FFFC003FFF0000
3FFFFFEFFFFC0000
FFFFFFFFFFF00000
FFFFFFFFFFC00000
FFFFFFFFFF000000
FFFFFFFFF8000000
FFFFFFFF00000000
ENDCHAR
STARTCHAR 010F
ENCODING 271
SWIDTH 742 0
DWIDTH 66 0
BBX 62 65 3 -1
BITMAP
00000000008000E0
0000000003E003F0
000000007FE07FF8
0000007FFFE0FFF8
0000007FFFE0FFFC
000000FFFFE0FFFC
000000FFFFE0FFFC
000000FFFFE0FFFC
0000003FFFE0FFFC
00000007FFE1FFFC
00000003FFE07FFC
00000003FFE01FF8
00000001FFE00FF8
00000001FFE007F8
00000001FFE007F8
00000001FFE007F0
00000001FFE007F0
00000001FFE00FE0
00000001FFE00FE0
00000001FFE00FC0
00000001FFE01FC0
00000001FFE03F80
00000181FFE03F00
00007FFFFFE07E00
0003FFFFFFE03C00
000FFFFFFFE00000
003FFFFFFFE00000
007FFFFFFFE00000
01FFF00FFFE00000
03FFE007FFE00000
07FF8001FFE00000
07FF0001FFE00000
0FFF0001FFE00000
1FFE0001FFE00000
1FFE0001FFE00000
3FFC0001FFE00000
3FFC0001FFE00000
7FFC0001FFE00000
7FFC0001FFE00000
7FF80001FFE00000
7FF80001FFE00000
FFF80001FFE00000
FFF80001FFE00000
FFF80001FFE00000
FFF80001FFE00000
FFF80001FFE00000
FFF80001FFE00000
FFF80003FFE00000
FFFC0003FFE00000
FFFC0003FFE00000
FFFC0003FFF00000
7FFC0007FFF00000
7FFE0007FFF00000
7FFE000FFFF00000
7FFF000FFFF00000
3FFF801FFFF80000
3FFFC07FFFFF8000
1FFFFBFEFFFF8000
1FFFFFFEFFFF8000
0FFFFFFCFFFF8000
07FFFFF8FFFF0000
03FFFFE0FFFF0000
00FFFFC0FFE00000
003FFF007C000000
0003F00030000000
ENDCHAR
STARTCHAR 0110
ENCODING 272
SWIDTH 731 0
DWIDTH 65 0
BBX 60 60 2 0
BITMAP
3FFFFFFFFC000000
3FFFFFFFFFC00000
3FFFFFFFFFF80000
3FFFFFFFFFFF0000
3FFFFFFFFFFF8000
07FFFC00FFFFE000
01FFFC001FFFF000
01FFFC0007FFF800
00FFFC0003FFFC00
00FFFC0000FFFE00
00FFFC00007FFF00
00FFFC00007FFF00
00FFFC00003FFF80
00FFFC00001FFF80
00FFFC00001FFFC0
00FFFC00000FFFC0
00FFFC00000FFFE0
00FFFC000007FFE0
00FFFC000007FFE0
00FFFC000007FFE0
00FFFC000007FFF0
00FFFC000003FFF0
00FFFC000003FFF0
00FFFC000003FFF0
00FFFC000003FFF0
00FFFC000003FFF0
00FFFC000003FFF0
7FFFFFFFC003FFF0
7FFFFFFFC003FFF0
7FFFFFFF8003FFF0
7FFFFFFF8003FFF0
7FFFFFFF8003FFF0
FFFFFFFF8003FFF0
00FFFC000003FFF0
00FFFC000003FFF0
00FFFC000003FFF0
00FFFC000003FFE0
00FFFC000003FFE0
00FFFC000003FFE0
00FFFC000003FFE0
00FFFC000007FFE0
00FFFC000007FFC0
00FFFC000007FFC0
00FFFC000007FF80
00FFFC00000FFF80
00FFFC00000FFF00
00FFFC00001FFF00
00FFFC00001FFE00
00FFFC00003FFE00
00FFFC00007FFC00
00FFFC0000FFF800
00FFFE0001FFF000
01FFFE0003FFE000
01FFFF000FFFC000
0FFFFFFBFFFF0000
3FFFFFFFFFFC0000
3FFFFFFFFFF00000
3FFFFFFFFFC00000
3FFFFFFFFE000000
3FFFFFFFC0000000
ENDCHAR
STARTCHAR 0111
ENCODING 273
SWIDTH 607 0
DWIDTH 54 0
BBX 49 65 3 -1
BITMAP
00000000008000
0000000003E000
000000007FE000
0000007FFFE000
0000007FFFE000
000000FFFFE000
000000FFFFE000
000000FFFFE000
0000003FFFE000
00000007FFE000
00000003FFE000
00000003FFE000
00000001FFE000
00000001FFE000
000007FFFFFF00
00000FFFFFFF00
00000FFFFFFF00
00000FFFFFFF00
00000001FFE000
00000001FFE000
00000001FFE000
00000001FFE000
00000181FFE000
00007FFFFFE000
0003FFFFFFE000
000FFFFFFFE000
003FFFFFFFE000
007FFFFFFFE000
01FFF00FFFE000
03FFC007FFE000
07FF8001FFE000
07FF0001FFE000
0FFF0001FFE000
1FFE0001FFE000
1FFE0001FFE000
3FFC0001FFE000
3FFC0001FFE000
7FFC0001FFE000
7FFC0001FFE000
7FF80001FFE000
7FF80001FFE000
FFF80001FFE000
FFF80001FFE000
FFF80001FFE000
FFF80001FFE000
FFF80001FFE000
FFF80001FFE000
FFFC0001FFE000
FFFC0001FFE000
FFFC0001FFE000
FFFE0001FFE000
7FFE0001FFF000
7FFF0001FFF000
7FFF0001FFF000
7FFF8001FFF000
3FFFC001FFF800
3FFFE001FFFF80
1FFFF807FFFF80
1FFFFFFFFFFF80
0FFFFFFFFFFF80
07FFFFFDFFFF00
03FFFFF1FFFF00
00FFFFE1FF8000
003FFF81F00000
0007F801000000
ENDCHAR
STARTCHAR 0112
ENCODING 274
SWIDTH 618 0
DWIDTH 55 0
BBX 49 73 4 0
BITMAP
01FFFFFFFF0000
03FFFFFFFF0000
03FFFFFFFE0000
03FFFFFFFE0000
03FFFFFFFE0000
03FFF000000000
00000000000000
00000000000000
00000000000000
00000000000000
00000000000000
00000000000000
00000000000000
FFFFFFFFFFF000
FFFFFFFFFFF000
FFFFFFFFFFF000
FFFFFFFFFFF000
FFFFFFFFFFF000
1FFFF001FFF000
07FFF0003FF800
07FFF0001FF800
03FFF0000FF800
03FFF00007F800
03FFF00003F800
03FFF00003F800
03FFF00003F800
03FFF00001FC00
03FFF00001FC00
03FFF00001F000
03FFF000000000
03FFF000000000
03FFF000000000
03FFF000000000
03FFF001F80000
03FFF001F80000
03FFF001F80000
03FFF003F80000
03FFF003F80000
03FFF007F80000
03FFF00FF80000
03FFFFFFF80000
03FFFFFFF80000
03FFFFFFF80000
03FFFFFFF80000
03FFFFFFF80000
03FFFFFFF80000
03FFF00FF80000
03FFF007F80000
03FFF003F80000
03FFF003F80000
03FFF001F80000
03FFF001F80000
03FFF001F80000
03FFF000000000
03FFF000000000
03FFF000000000
03FFF000003800
03FFF000003F00
03FFF000003F80
03FFF000007F80
03FFF000007F00
03FFF00000FF00
03FFF00000FF00
03FFF00001FF00
03FFF80003FF00
07FFF80007FE00
07FFFC001FFE00
3FFFFFE7FFFE00
FFFFFFFFFFFE00
FFFFFFFFFFFE00
FFFFFFFFFFFE00
FFFFFFFFFFFE00
FFFFFFFFFFFC00
ENDCHAR
STARTCHAR 0113
ENCODING 275
SWIDTH 506 0
DWIDTH 45 0
BBX 39 57 3 -1
BITMAP
07FFFFFFF8
0FFFFFFFF8
0FFFFFFFF8
0FFFFFFFF8
0FFFFFFE00
0000000000
0000000000
0000000000
0000000000
0000000000
0000000000
0000000000
0000000000
0000000000
0000080000
0003FFF000
001FFFFC00
007FFFFF00
00FFFFFF80
01FFFFFFC0
03FFC1FFE0
07FF80FFF0
0FFF007FF0
1FFE003FF8
1FFC003FF8
3FFC003FFC
3FFC001FFC
7FFC001FFC
7FF8001FFE
7FF8001FFE
7FF8001FFE
FFF8001FFE
FFFFFFFFFE
FFFFFFFFFE
FFFFFFFFFE
FFFFFFFFFE
FFFFFFFFFC
FFFFFFFFF8
FFF8000000
FFF8000000
FFFC000000
7FFC000000
7FFC000000
7FFE000000
7FFE000000
3FFF000000
3FFF800008
1FFFC0001C
1FFFE0007E
0FFFF803FE
07FFFFFFFE
03FFFFFFFC
01FFFFFFF0
00FFFFFFE0
003FFFFF80
0007FFFC00
00003F8000
ENDCHAR
STARTCHAR 0114
ENCODING 276
SWIDTH 618 0
DWIDTH 55 0
BBX 49 78 4 0
BITMAP
001E0000F00000
00FE0000F80000
00FE0001F80000
00FF0001F80000
00FF8003F80000
007FE01FF80000
007FFFFFF80000
007FFFFFF00000
003FFFFFE00000
001FFFFFE00000
000FFFFFC00000
0007FFFF000000
0001FFFC000000
00000F80000000
00000000000000
00000000000000
00000000000000
00000000000000
FFFFFFFFFFF000
FFFFFFFFFFF000
FFFFFFFFFFF000
FFFFFFFFFFF000
FFFFFFFFFFF000
1FFFF001FFF000
07FFF0003FF800
07FFF0001FF800
03FFF0000FF800
03FFF00007F800
03FFF00003F800
03FFF00003F800
03FFF00003F800
03FFF00001FC00
03FFF00001FC00
03FFF00001F000
03FFF000000000
03FFF000000000
03FFF000000000
03FFF000000000
03FFF001F80000
03FFF001F80000
03FFF001F80000
03FFF003F80000
03FFF003F80000
03FFF007F80000
03FFF00FF80000
03FFFFFFF80000
03FFFFFFF80000
03FFFFFFF80000
03FFFFFFF80000
03FFFFFFF80000
03FFFFFFF80000
03FFF00FF80000
03FFF007F80000
03FFF003F80000
03FFF003F80000
03FFF001F80000
03FFF001F80000
03FFF001F80000
03FFF000000000
03FFF000000000
03FFF000000000
03FFF000003800
03FFF000003F00
03FFF000003F80
03FFF000007F80
03FFF000007F00
03FFF00000FF00
03FFF00000FF00
03FFF00001FF00
03FFF80003FF00
07FFF80007FE00
07FFFC001FFE00
3FFFFFE7FFFE00
FFFFFFFFFFFE00
FFFFFFFFFFFE00
FFFFFFFFFFFE00
FFFFFFFFFFFE00
FFFFFFFFFFFC00
ENDCHAR
STARTCHAR 0115
ENCODING 277
SWIDTH 506 0
DWIDTH 45 0
BBX 39 64 3 -1
BITMAP
07E00000F8
0FE00001F8
0FE00001F8
0FF00001F8
0FF00003F8
0FF80007F8
07FE000FF0
07FF803FF0
07FFFFFFF0
03FFFFFFE0
03FFFFFFE0
01FFFFFFC0
00FFFFFF80
007FFFFF00
001FFFFC00
0007FFF000
00001C0000
0000000000
0000000000
0000000000
0000000000
0000080000
0003FFF000
001FFFFC00
007FFFFF00
00FFFFFF80
01FFFFFFC0
03FFC1FFE0
07FF80FFF0
0FFF007FF0
1FFE003FF8
1FFC003FF8
3FFC003FFC
3FFC001FFC
7FFC001FFC
7FF8001FFE
7FF8001FFE
7FF8001FFE
FFF8001FFE
FFFFFFFFFE
FFFFFFFFFE
FFFFFFFFFE
FFFFFFFFFE
FFFFFFFFFC
FFFFFFFFF8
FFF8000000
FFF8000000
FFFC000000
7FFC000000
7FFC000000
7FFE000000
7FFE000000
3FFF000000
3FFF800008
1FFFC0001C
1FFFE0007E
0FFFF803FE
07FFFFFFFE
03FFFFFFFC
01FFFFFFF0
00FFFFFFE0
003FFFFF80
0007FFFC00
00003F8000
ENDCHAR
STARTCHAR 0116
ENCODING 278
SWIDTH 618 0
DWIDTH 55 0
BBX 49 77 4 0
BITMAP
00000380000000
00003FF0000000
00007FF8000000
0000FFF8000000
0000FFFC000000
0001FFFC000000
0001FFFC000000
0001FFFC000000
0001FFFC000000
0000FFFC000000
0000FFF8000000
00007FF0000000
00001FC0000000
00000000000000
00000000000000
00000000000000
00000000000000
FFFFFFFFFFF000
FFFFFFFFFFF000
FFFFFFFFFFF000
FFFFFFFFFFF000
FFFFFFFFFFF000
1FFFF001FFF000
07FFF0003FF800
07FFF0001FF800
03FFF0000FF800
03FFF00007F800
03FFF00003F800
03FFF00003F800
03FFF00003F800
03FFF00001FC00
03FFF00001FC00
03FFF00001F000
03FFF000000000
03FFF000000000
03FFF000000000
03FFF000000000
03FFF001F80000
03FFF001F80000
03FFF001F80000
03FFF003F80000
03FFF003F80000
03FFF007F80000
03FFF00FF80000
03FFFFFFF80000
03FFFFFFF80000
03FFFFFFF80000
03FFFFFFF80000
03FFFFFFF80000
03FFFFFFF80000
03FFF00FF80000
03FFF007F80000
03FFF003F80000
03FFF003F80000
03FFF001F80000
03FFF001F80000
03FFF001F80000
03FFF000000000
03FFF000000000
03FFF000000000
03FFF000003800
03FFF000003F00
03FFF000003F80
03FFF000007F80
03FFF000007F00
03FFF00000FF00
03FFF00000FF00
03FFF00001FF00
03FFF80003FF00
07FFF80007FE00
07FFFC001FFE00
3FFFFFE7FFFE00
FFFFFFFFFFFE00
FFFFFFFFFFFE00
FFFFFFFFFFFE00
FFFFFFFFFFFE00
FFFFFFFFFFFC00
ENDCHAR
STARTCHAR 0117
ENCODING 279
SWIDTH 506 0
DWIDTH 45 0
BBX 39 60 3 -1
BITMAP
00007F8000
0001FFC000
0003FFE000
0003FFF000
0007FFF000
0007FFF000
0007FFF000
0007FFF000
0007FFF000
0003FFE000
0001FFC000
0000FF8000
0000080000
0000000000
0000000000
0000000000
0000000000
0000080000
0003FFF000
001FFFFC00
007FFFFF00
00FFFFFF80
01FFFFFFC0
03FFC1FFE0
07FF80FFF0
0FFF007FF0
1FFE003FF8
1FFC003FF8
3FFC003FFC
3FFC001FFC
7FFC001FFC
7FF8001FFE
7FF8001FFE
7FF8001FFE
FFF8001FFE
FFFFFFFFFE
FFFFFFFFFE
FFFFFFFFFE
FFFFFFFFFE
FFFFFFFFFC
FFFFFFFFF8
FFF8000000
FFF8000000
FFFC000000
7FFC000000
7FFC000000
7FFE000000
7FFE000000
3FFF000000
3FFF800008
1FFFC0001C
1FFFE0007E
0FFFF803FE
07FFFFFFFE
03FFFFFFFC
01FFFFFFF0
00FFFFFFE0
003FFFFF80
0007FFFC00
00003F8000
ENDCHAR
STARTCHAR 0118
ENCODING 280
SWIDTH 618 0
DWIDTH 55 0
BBX 49 82 4 -22
BITMAP
FFFFFFFFFFF000
FFFFFFFFFFF000
FFFFFFFFFFF000
FFFFFFFFFFF000
FFFFFFFFFFF000
1FFFF001FFF000
07FFF0003FF800
07FFF0001FF800
03FFF0000FF800
03FFF00007F800
03FFF00003F800
03FFF00003F800
03FFF00003F800
03FFF00001FC00
03FFF00001FC00
03FFF00001F000
03FFF000000000
03FFF000000000
03FFF000000000
03FFF000000000
03FFF001F80000
03FFF001F80000
03FFF001F80000
03FFF003F80000
03FFF003F80000
03FFF007F80000
03FFF00FF80000
03FFFFFFF80000
03FFFFFFF80000
03FFFFFFF80000
03FFFFFFF80000
03FFFFFFF80000
03FFFFFFF80000
03FFF00FF80000
03FFF007F80000
03FFF003F80000
03FFF003F80000
03FFF001F80000
03FFF001F80000
03FFF001F80000
03FFF000000000
03FFF000000000
03FFF000000000
03FFF000003800
03FFF000003F00
03FFF000003F80
03FFF000007F80
03FFF000007F00
03FFF00000FF00
03FFF00000FF00
03FFF00001FF00
03FFF80003FF00
07FFF80007FE00
07FFFC001FFE00
3FFFFFE7FFFE00
FFFFFFFFFFFE00
FFFFFFFFFFFE00
FFFFFFFFFFFE00
FFFFFFFFFFFE00
FFFFFFFFFFFC00
00000000FF0000
00000003FC0000
0000000FF00000
0000001FE00000
0000003FC00000
0000007FC00000
000000FF800000
000001FF800000
000001FF800000
000003FF800000
000003FF800000
000003FFC00000
000003FFF06000
000003FFFFE000
000003FFFFE000
000003FFFFE000
000001FFFFF000
000001FFFFF000
000000FFFFC000
0000007FFE0000
0000003FF80000
0000000FE00000
ENDCHAR
STARTCHAR 0119
ENCODING 281
SWIDTH 506 0
DWIDTH 45 0
BBX 39 64 3 -22
BITMAP
0000080000
0003FFF000
001FFFFC00
007FFFFF00
00FFFFFF80
01FFFFFFC0
03FFC1FFE0
07FF80FFF0
0FFF007FF0
1FFE003FF8
1FFC003FF8
3FFC003FFC
3FFC001FFC
7FFC001FFC
7FF8001FFE
7FF8001FFE
7FF8001FFE
FFF8001FFE
FFFFFFFFFE
FFFFFFFFFE
FFFFFFFFFE
FFFFFFFFFE
FFFFFFFFFC
FFFFFFFFF8
FFF8000000
FFF8000000
FFFC000000
7FFC000000
7FFC000000
7FFE000000
7FFE000000
3FFF000000
3FFF800008
1FFFC0001C
1FFFE0007E
0FFFF803FE
07FFFFFFFE
03FFFFFFFC
01FFFFFFF0
00FFFFFFE0
003FFFFFC0
0007FFFF00
00003FFE00
000001FC00
000003F800
00000FF000
00001FF000
00003FF000
00003FE000
00007FE000
00007FE000
00007FE000
0000FFF000
0000FFF800
0000FFFE08
0000FFFFF8
00007FFFFC
00007FFFFC
00007FFFFC
00003FFFFC
00003FFFF0
00000FFF80
000007FE00
000001F800
ENDCHAR
STARTCHAR 011A
ENCODING 282
SWIDTH 618 0
DWIDTH 55 0
BBX 49 79 4 0
BITMAP
00180000600000
007E0000F00000
00FF0003F80000
01FFC00FF80000
00FFF03FF80000
007FFCFFE00000
003FFFFFC00000
001FFFFF000000
0007FFFE000000
0003FFFC000000
0001FFF0000000
0000FFE0000000
00007FC0000000
00003F80000000
00000000000000
00000000000000
00000000000000
00000000000000
00000000000000
FFFFFFFFFFF000
FFFFFFFFFFF000
FFFFFFFFFFF000
FFFFFFFFFFF000
FFFFFFFFFFF000
1FFFF001FFF000
07FFF0003FF800
07FFF0001FF800
03FFF0000FF800
03FFF00007F800
03FFF00003F800
03FFF00003F800
03FFF00003F800
03FFF00001FC00
03FFF00001FC00
03FFF00001F000
03FFF000000000
03FFF000000000
03FFF000000000
03FFF000000000
03FFF001F80000
03FFF001F80000
03FFF001F80000
03FFF003F80000
03FFF003F80000
03FFF007F80000
03FFF00FF80000
03FFFFFFF80000
03FFFFFFF80000
03FFFFFFF80000
03FFFFFFF80000
03FFFFFFF80000
03FFFFFFF80000
03FFF00FF80000
03FFF007F80000
03FFF003F80000
03FFF003F80000
03FFF001F80000
03FFF001F80000
03FFF001F80000
03FFF000000000
03FFF000000000
03FFF000000000
03FFF000003800
03FFF000003F00
03FFF000003F80
03FFF000007F80
03FFF000007F00
03FFF00000FF00
03FFF00000FF00
03FFF00001FF00
03FFF80003FF00
07FFF80007FE00
07FFFC001FFE00
3FFFFFE7FFFE00
FFFFFFFFFFFE00
FFFFFFFFFFFE00
FFFFFFFFFFFE00
FFFFFFFFFFFE00
FFFFFFFFFFFC00
ENDCHAR
STARTCHAR 011B
ENCODING 283
SWIDTH 506 0
DWIDTH 45 0
BBX 39 64 3 -1
BITMAP
01C00000E0
03E00003F0
07F80007F0
0FFC001FF8
07FF003FE0
03FF80FFC0
00FFE3FF80
007FFFFF00
003FFFFE00
001FFFFC00
001FFFF800
000FFFF000
0007FFE000
0003FFC000
0001FF8000
0000FF0000
00007E0000
0000000000
0000000000
0000000000
0000000000
0000080000
0003FFF000
001FFFFC00
007FFFFF00
00FFFFFF80
01FFFFFFC0
03FFC1FFE0
07FF80FFF0
0FFF007FF0
1FFE003FF8
1FFC003FF8
3FFC003FFC
3FFC001FFC
7FFC001FFC
7FF8001FFE
7FF8001FFE
7FF8001FFE
FFF8001FFE
FFFFFFFFFE
FFFFFFFFFE
FFFFFFFFFE
FFFFFFFFFE
FFFFFFFFFC
FFFFFFFFF8
FFF8000000
FFF8000000
FFFC000000
7FFC000000
7FFC000000
7FFE000000
7FFE000000
3FFF000000
3FFF800008
1FFFC0001C
1FFFE0007E
0FFFF803FE
07FFFFFFFE
03FFFFFFFC
01FFFFFFF0
00FFFFFFE0
003FFFFF80
0007FFFC00
00003F8000
ENDCHAR
STARTCHAR 011C
ENCODING 284
SWIDTH 708 0
DWIDTH 63 0
BBX 57 80 3 -1
BITMAP
00000001C0000000
0000000FE0000000
0000001FF0000000
0000007FF8000000
000000FFFE000000
000001FFFF000000
000007FFFF800000
00000FFFFFC00000
00003FFFFFE00000
00007FF8FFF80000
0000FFC03FFC0000
0000FF000FFC0000
00007E0003F80000
0000380001E00000
0000000000000000
0000000000000000
0000000000000000
0000000000000000
0000003FFC000000
000007FFFFF00000
00003FFFFFFE0000
0000FFFFFFFFC000
0003FFFFFFFFF000
000FFFFE7FFFF000
001FFFC003FFF000
003FFE0000FFF000
00FFFC00007FF000
01FFF800003FF000
01FFF000003FF000
03FFE000001FF000
07FFC000001FF000
0FFFC000000FF000
0FFF8000000FF000
1FFF8000000FF000
1FFF0000000FF000
3FFF00000007F000
3FFE00000007E000
3FFE000000000000
7FFE000000000000
7FFE000000000000
7FFE000000000000
7FFC000000000000
7FFC000000000000
FFFC000000000000
FFFC000000000000
FFFC000000000000
FFFC000000000000
FFFC000000000000
FFFC000000000000
FFFC000000000000
FFFC00007FFFFF80
FFFC00007FFFFF00
FFFC00007FFFFF00
FFFE00007FFFFF00
FFFE00003FFFFF00
7FFE000007FFFC00
7FFE000001FFF800
7FFE000000FFF800
7FFF000000FFF000
3FFF0000007FF000
3FFF0000007FF000
3FFF0000007FF000
1FFF8000007FF000
1FFF8000007FF000
0FFFC000007FF000
0FFFC000007FF000
07FFE000007FF000
07FFF000007FF000
03FFF000007FF000
01FFF800007FF800
00FFFC0000FFF800
00FFFF0000FFF800
003FFF8001FFF800
001FFFF007FFF800
000FFFFFFFFFE000
0003FFFFFFFFC000
0001FFFFFFFE0000
00003FFFFFF80000
00000FFFFF800000
0000003FF0000000
ENDCHAR
STARTCHAR 011D
ENCODING 285
SWIDTH 540 0
DWIDTH 48 0
BBX 43 86 3 -22
BITMAP
000006000000
00003F000000
00007F800000
0000FFC00000
0001FFE00000
0003FFF00000
0007FFF80000
000FFFFC0000
003FFFFE0000
007FFFFE0000
00FFCFFF0000
01FF83FFC000
07FE00FFE000
0FFC007FF000
0FF0001FF800
0FC0000FF000
07800003E000
030000018000
000000000000
000000000000
000000000000
000000000000
000020000000
001FFFFFFFE0
007FFFFFFFE0
01FFFFFFFFE0
03FFFFFFFFE0
0FFFC7FFFFE0
0FFF01FFFFE0
1FFE00FFF060
3FFE007FF800
3FFC007FF800
3FFC003FFC00
7FFC003FFC00
7FFC003FFC00
7FFC003FFE00
7FFC003FFE00
7FFC003FFE00
7FFC003FFE00
7FFC003FFE00
7FFC003FFE00
7FFC003FFC00
3FFE003FFC00
3FFE007FF800
1FFF007FF800
0FFF80FFF000
0FFFFFFFE000
07FFFFFFC000
01FFFFFF8000
01FFFFFE0000
03FFFFF00000
07F83A000000
0FF000000000
0FF000000000
1FF000000000
1FF000000000
3FFE00000000
3FFFFFFF8000
3FFFFFFFF800
3FFFFFFFFE00
3FFFFFFFFF00
1FFFFFFFFF80
1FFFFFFFFF80
1FFFFFFFFFC0
0FFFFFFFFFC0
07FFFFFFFFC0
07FFFFFFFFC0
1FFFFFFFFFE0
3FE003FFFFC0
7FE00007FFC0
7FC00001FFC0
FFC00001FFC0
FFC00001FFC0
FFC00001FF80
FFC00001FF80
FFC00001FF00
FFE00003FF00
FFE00007FE00
FFF0001FFC00
FFFC007FF800
7FFFFFFFF000
3FFFFFFFC000
1FFFFFFF8000
0FFFFFFE0000
03FFFFF00000
007FFF000000
ENDCHAR
STARTCHAR 011E
ENCODING 286
SWIDTH 708 0
DWIDTH 63 0
BBX 57 79 3 -1
BITMAP
00001E0000F00000
0000FE0000FC0000
0000FF0001FC0000
0000FF0001FC0000
0000FFC003F80000
00007FF00FF80000
00007FFFFFF80000
00003FFFFFF00000
00003FFFFFF00000
00001FFFFFE00000
00000FFFFFC00000
000007FFFF000000
000000FFFC000000
0000000780000000
0000000000000000
0000000000000000
0000000000000000
0000003FFC000000
000007FFFFF00000
00003FFFFFFE0000
0000FFFFFFFFC000
0003FFFFFFFFF000
000FFFFE7FFFF000
001FFFC003FFF000
003FFE0000FFF000
00FFFC00007FF000
01FFF800003FF000
01FFF000003FF000
03FFE000001FF000
07FFC000001FF000
0FFFC000000FF000
0FFF8000000FF000
1FFF8000000FF000
1FFF0000000FF000
3FFF00000007F000
3FFE00000007E000
3FFE000000000000
7FFE000000000000
7FFE000000000000
7FFE000000000000
7FFC000000000000
7FFC000000000000
FFFC000000000000
FFFC000000000000
FFFC000000000000
FFFC000000000000
FFFC000000000000
FFFC000000000000
FFFC000000000000
FFFC00007FFFFF80
FFFC00007FFFFF00
FFFC00007FFFFF00
FFFE00007FFFFF00
FFFE00003FFFFF00
7FFE000007FFFC00
7FFE000001FFF800
7FFE000000FFF800
7FFF000000FFF000
3FFF0000007FF000
3FFF0000007FF000
3FFF0000007FF000
1FFF8000007FF000
1FFF8000007FF000
0FFFC000007FF000
0FFFC000007FF000
07FFE000007FF000
07FFF000007FF000
03FFF000007FF000
01FFF800007FF800
00FFFC0000FFF800
00FFFF0000FFF800
003FFF8001FFF800
001FFFF007FFF800
000FFFFFFFFFE000
0003FFFFFFFFC000
0001FFFFFFFE0000
00003FFFFFF80000
00000FFFFF800000
0000003FF0000000
ENDCHAR
STARTCHAR 011F
ENCODING 287
SWIDTH 540 0
DWIDTH 48 0
BBX 43 85 3 -22
BITMAP
0FC00001F000
1FC00003F000
1FC00003F000
1FE00003F000
1FE00007F000
1FF0000FF000
0FFC001FE000
0FFF007FE000
0FFFFFFFE000
07FFFFFFC000
07FFFFFFC000
03FFFFFF8000
01FFFFFF0000
00FFFFFE0000
003FFFF80000
000FFFE00000
000038000000
000000000000
000000000000
000000000000
000000000000
000020000000
001FFFFFFFE0
007FFFFFFFE0
01FFFFFFFFE0
03FFFFFFFFE0
0FFFC7FFFFE0
0FFF01FFFFE0
1FFE00FFF060
3FFE007FF800
3FFC007FF800
3FFC003FFC00
7FFC003FFC00
7FFC003FFC00
7FFC003FFE00
7FFC003FFE00
7FFC003FFE00
7FFC003FFE00
7FFC003FFE00
7FFC003FFE00
7FFC003FFC00
3FFE003FFC00
3FFE007FF800
1FFF007FF800
0FFF80FFF000
0FFFFFFFE000
07FFFFFFC000
01FFFFFF8000
01FFFFFE0000
03FFFFF00000
07F83A000000
0FF000000000
0FF000000000
1FF000000000
1FF000000000
3FFE00000000
3FFFFFFF8000
3FFFFFFFF800
3FFFFFFFFE00
3FFFFFFFFF00
1FFFFFFFFF80
1FFFFFFFFF80
1FFFFFFFFFC0
0FFFFFFFFFC0
07FFFFFFFFC0
07FFFFFFFFC0
1FFFFFFFFFE0
3FE003FFFFC0
7FE00007FFC0
7FC00001FFC0
FFC00001FFC0
FFC00001FFC0
FFC00001FF80
FFC00001FF80
FFC00001FF00
FFE00003FF00
FFE00007FE00
FFF0001FFC00
FFFC007FF800
7FFFFFFFF000
3FFFFFFFC000
1FFFFFFF8000
0FFFFFFE0000
03FFFFF00000
007FFF000000
ENDCHAR
STARTCHAR 0120
ENCODING 288
SWIDTH 708 0
DWIDTH 63 0
BBX 57 78 3 -1
BITMAP
0000000300000000
0000003FF0000000
0000007FF8000000
000000FFFC000000
000000FFFC000000
000000FFFC000000
000001FFFE000000
000001FFFC000000
000000FFFC000000
000000FFFC000000
000000FFF8000000
0000007FF0000000
0000001FE0000000
0000000000000000
0000000000000000
0000000000000000
0000003FFC000000
000007FFFFF00000
00003FFFFFFE0000
0000FFFFFFFFC000
0003FFFFFFFFF000
000FFFFE7FFFF000
001FFFC003FFF000
003FFE0000FFF000
00FFFC00007FF000
01FFF800003FF000
01FFF000003FF000
03FFE000001FF000
07FFC000001FF000
0FFFC000000FF000
0FFF8000000FF000
1FFF8000000FF000
1FFF0000000FF000
3FFF00000007F000
3FFE00000007E000
3FFE000000000000
7FFE000000000000
7FFE000000000000
7FFE000000000000
7FFC000000000000
7FFC000000000000
FFFC000000000000
FFFC000000000000
FFFC000000000000
FFFC000000000000
FFFC000000000000
FFFC000000000000
FFFC000000000000
FFFC00007FFFFF80
FFFC00007FFFFF00
FFFC00007FFFFF00
FFFE00007FFFFF00
FFFE00003FFFFF00
7FFE000007FFFC00
7FFE000001FFF800
7FFE000000FFF800
7FFF000000FFF000
3FFF0000007FF000
3FFF0000007FF000
3FFF0000007FF000
1FFF8000007FF000
1FFF8000007FF000
0FFFC000007FF000
0FFFC000007FF000
07FFE000007FF000
07FFF000007FF000
03FFF000007FF000
01FFF800007FF800
00FFFC0000FFF800
00FFFF0000FFF800
003FFF8001FFF800
001FFFF007FFF800
000FFFFFFFFFE000
0003FFFFFFFFC000
0001FFFFFFFE0000
00003FFFFFF80000
00000FFFFF800000
0000003FF0000000
ENDCHAR
STARTCHAR 0121
ENCODING 289
SWIDTH 540 0
DWIDTH 48 0
BBX 43 81 3 -22
BITMAP
0000FF000000
0003FF800000
0007FFC00000
0007FFE00000
000FFFE00000
000FFFE00000
000FFFE00000
000FFFE00000
000FFFE00000
0007FFC00000
0003FF800000
0001FF000000
000010000000
000000000000
000000000000
000000000000
000000000000
000020000000
001FFFFFFFE0
007FFFFFFFE0
01FFFFFFFFE0
03FFFFFFFFE0
0FFFC7FFFFE0
0FFF01FFFFE0
1FFE00FFF060
3FFE007FF800
3FFC007FF800
3FFC003FFC00
7FFC003FFC00
7FFC003FFC00
7FFC003FFE00
7FFC003FFE00
7FFC003FFE00
7FFC003FFE00
7FFC003FFE00
7FFC003FFE00
7FFC003FFC00
3FFE003FFC00
3FFE007FF800
1FFF007FF800
0FFF80FFF000
0FFFFFFFE000
07FFFFFFC000
01FFFFFF8000
01FFFFFE0000
03FFFFF00000
07F83A000000
0FF000000000
0FF000000000
1FF000000000
1FF000000000
3FFE00000000
3FFFFFFF8000
3FFFFFFFF800
3FFFFFFFFE00
3FFFFFFFFF00
1FFFFFFFFF80
1FFFFFFFFF80
1FFFFFFFFFC0
0FFFFFFFFFC0
07FFFFFFFFC0
07FFFFFFFFC0
1FFFFFFFFFE0
3FE003FFFFC0
7FE00007FFC0
7FC00001FFC0
FFC00001FFC0
FFC00001FFC0
FFC00001FF80
FFC00001FF80
FFC00001FF00
FFE00003FF00
FFE00007FE00
FFF0001FFC00
FFFC007FF800
7FFFFFFFF000
3FFFFFFFC000
1FFFFFFF8000
0FFFFFFE0000
03FFFFF00000
007FFF000000
ENDCHAR
ENDFONT
